MFB Oldstyle-Regular.ufo
<glyph name="exclam" format="2">
  <advance width="295"/>
  <unicode hex="0021"/>
  <outline>
    <contour>
      <point x="126" y="202" type="line"/>
      <point x="169" y="202" type="line"/>
      <point x="169" y="270" type="line" smooth="yes"/>
      <point x="169" y="502"/>
      <point x="218" y="568"/>
      <point x="218" y="646" type="curve" smooth="yes"/>
      <point x="218" y="715"/>
      <point x="180" y="735"/>
      <point x="147" y="735" type="curve" smooth="yes"/>
      <point x="114" y="735"/>
      <point x="77" y="715"/>
      <point x="77" y="647" type="curve" smooth="yes"/>
      <point x="77" y="568"/>
      <point x="126" y="502"/>
      <point x="126" y="270" type="curve" smooth="yes"/>
    </contour>
    <contour>
      <point x="148" y="-14" type="curve" smooth="yes"/>
      <point x="185" y="-14"/>
      <point x="216" y="15"/>
      <point x="216" y="55" type="curve" smooth="yes"/>
      <point x="216" y="95"/>
      <point x="185" y="123"/>
      <point x="148" y="123" type="curve" smooth="yes"/>
      <point x="111" y="123"/>
      <point x="79" y="95"/>
      <point x="79" y="55" type="curve" smooth="yes"/>
      <point x="79" y="15"/>
      <point x="111" y="-14"/>
    </contour>
  </outline>
</glyph>
<glyph name="quotedbl" format="2">
  <advance width="358"/>
  <unicode hex="0022"/>
  <outline>
    <contour>
      <point x="241" y="468" type="curve"/>
      <point x="275" y="468" type="line"/>
      <point x="275" y="532"/>
      <point x="315" y="624"/>
      <point x="315" y="674" type="curve" smooth="yes"/>
      <point x="315" y="715"/>
      <point x="286" y="735"/>
      <point x="257" y="735" type="curve" smooth="yes"/>
      <point x="228" y="735"/>
      <point x="201" y="715"/>
      <point x="201" y="674" type="curve" smooth="yes"/>
      <point x="201" y="624"/>
      <point x="241" y="532"/>
    </contour>
    <contour>
      <point x="83" y="468" type="curve"/>
      <point x="117" y="468" type="line"/>
      <point x="117" y="532"/>
      <point x="157" y="624"/>
      <point x="157" y="674" type="curve" smooth="yes"/>
      <point x="157" y="715"/>
      <point x="129" y="735"/>
      <point x="99" y="735" type="curve" smooth="yes"/>
      <point x="70" y="735"/>
      <point x="43" y="715"/>
      <point x="43" y="674" type="curve" smooth="yes"/>
      <point x="43" y="624"/>
      <point x="83" y="532"/>
    </contour>
  </outline>
</glyph>
<glyph name="dollar" format="2">
  <advance width="535"/>
  <unicode hex="0024"/>
  <outline>
    <contour>
      <point x="227" y="-89" type="line"/>
      <point x="286" y="-89" type="line"/>
      <point x="286" y="1" type="line"/>
      <point x="441" y="16"/>
      <point x="493" y="122"/>
      <point x="493" y="215" type="curve" smooth="yes"/>
      <point x="493" y="362"/>
      <point x="363" y="403"/>
      <point x="286" y="425" type="curve"/>
      <point x="286" y="678" type="line"/>
      <point x="330" y="672"/>
      <point x="364" y="652"/>
      <point x="364" y="627" type="curve" smooth="yes"/>
      <point x="364" y="607"/>
      <point x="342" y="596"/>
      <point x="342" y="566" type="curve" smooth="yes"/>
      <point x="342" y="531"/>
      <point x="373" y="516"/>
      <point x="400" y="516" type="curve" smooth="yes"/>
      <point x="444" y="516"/>
      <point x="463" y="555"/>
      <point x="463" y="584" type="curve" smooth="yes"/>
      <point x="463" y="630"/>
      <point x="416" y="711"/>
      <point x="286" y="720" type="curve"/>
      <point x="286" y="810" type="line"/>
      <point x="227" y="810" type="line"/>
      <point x="227" y="719" type="line"/>
      <point x="112" y="704"/>
      <point x="53" y="630"/>
      <point x="53" y="528" type="curve" smooth="yes"/>
      <point x="53" y="401"/>
      <point x="145" y="358"/>
      <point x="227" y="331" type="curve"/>
      <point x="227" y="50" type="line"/>
      <point x="151" y="59"/>
      <point x="123" y="97"/>
      <point x="123" y="116" type="curve" smooth="yes"/>
      <point x="123" y="138"/>
      <point x="162" y="143"/>
      <point x="162" y="179" type="curve" smooth="yes"/>
      <point x="162" y="211"/>
      <point x="132" y="227"/>
      <point x="103" y="227" type="curve" smooth="yes"/>
      <point x="59" y="227"/>
      <point x="41" y="189"/>
      <point x="41" y="152" type="curve" smooth="yes"/>
      <point x="41" y="65"/>
      <point x="142" y="10"/>
      <point x="227" y="2" type="curve"/>
    </contour>
    <contour>
      <point x="286" y="49" type="curve"/>
      <point x="286" y="311" type="line"/>
      <point x="352" y="288"/>
      <point x="416" y="255"/>
      <point x="416" y="173" type="curve" smooth="yes"/>
      <point x="416" y="93"/>
      <point x="354" y="57"/>
    </contour>
    <contour>
      <point x="227" y="444" type="line"/>
      <point x="176" y="462"/>
      <point x="126" y="496"/>
      <point x="126" y="564" type="curve" smooth="yes"/>
      <point x="126" y="619"/>
      <point x="159" y="663"/>
      <point x="227" y="676" type="curve"/>
    </contour>
  </outline>
</glyph>
<glyph name="percent" format="2">
  <advance width="643"/>
  <unicode hex="0025"/>
  <outline>
    <contour>
      <point x="111" y="-1" type="line"/>
      <point x="161" y="-1" type="line"/>
      <point x="535" y="732" type="line"/>
      <point x="486" y="732" type="line"/>
    </contour>
    <contour>
      <point x="475" y="-14" type="curve" smooth="yes"/>
      <point x="549" y="-14"/>
      <point x="608" y="87"/>
      <point x="608" y="198" type="curve" smooth="yes"/>
      <point x="608" y="304"/>
      <point x="554" y="409"/>
      <point x="476" y="409" type="curve" smooth="yes"/>
      <point x="398" y="409"/>
      <point x="343" y="306"/>
      <point x="343" y="197" type="curve" smooth="yes"/>
      <point x="343" y="86"/>
      <point x="401" y="-14"/>
    </contour>
    <contour>
      <point x="476" y="16" type="curve" smooth="yes"/>
      <point x="418" y="16"/>
      <point x="410" y="104"/>
      <point x="410" y="201" type="curve" smooth="yes"/>
      <point x="410" y="292"/>
      <point x="417" y="378"/>
      <point x="475" y="378" type="curve" smooth="yes"/>
      <point x="523" y="378"/>
      <point x="541" y="321"/>
      <point x="541" y="195" type="curve" smooth="yes"/>
      <point x="541" y="88"/>
      <point x="528" y="16"/>
    </contour>
    <contour>
      <point x="168" y="319" type="curve" smooth="yes"/>
      <point x="241" y="319"/>
      <point x="301" y="418"/>
      <point x="301" y="530" type="curve" smooth="yes"/>
      <point x="301" y="637"/>
      <point x="246" y="742"/>
      <point x="168" y="742" type="curve" smooth="yes"/>
      <point x="91" y="742"/>
      <point x="36" y="639"/>
      <point x="36" y="530" type="curve" smooth="yes"/>
      <point x="36" y="419"/>
      <point x="94" y="319"/>
    </contour>
    <contour>
      <point x="169" y="349" type="curve" smooth="yes"/>
      <point x="111" y="349"/>
      <point x="103" y="437"/>
      <point x="103" y="534" type="curve" smooth="yes"/>
      <point x="103" y="625"/>
      <point x="110" y="711"/>
      <point x="168" y="711" type="curve" smooth="yes"/>
      <point x="216" y="711"/>
      <point x="234" y="654"/>
      <point x="234" y="528" type="curve" smooth="yes"/>
      <point x="234" y="421"/>
      <point x="221" y="349"/>
    </contour>
  </outline>
</glyph>
<glyph name="ampersand" format="2">
  <advance width="841"/>
  <unicode hex="0026"/>
  <outline>
    <contour>
      <point x="287" y="-14" type="curve" smooth="yes"/>
      <point x="381" y="-14"/>
      <point x="457" y="26"/>
      <point x="495" y="46" type="curve"/>
      <point x="521" y="17"/>
      <point x="565" y="-14"/>
      <point x="629" y="-14" type="curve" smooth="yes"/>
      <point x="724" y="-14"/>
      <point x="783" y="53"/>
      <point x="822" y="114" type="curve"/>
      <point x="786" y="135" type="line"/>
      <point x="754" y="96"/>
      <point x="706" y="54"/>
      <point x="656" y="54" type="curve" smooth="yes"/>
      <point x="617" y="54"/>
      <point x="584" y="79"/>
      <point x="562" y="99" type="curve"/>
      <point x="665" y="192"/>
      <point x="673" y="253"/>
      <point x="703" y="324" type="curve" smooth="yes"/>
      <point x="714" y="349"/>
      <point x="735" y="391"/>
      <point x="802" y="391" type="curve"/>
      <point x="802" y="431" type="line"/>
      <point x="547" y="431" type="line"/>
      <point x="547" y="391" type="line"/>
      <point x="614" y="391"/>
      <point x="640" y="362"/>
      <point x="640" y="316" type="curve" smooth="yes"/>
      <point x="640" y="276"/>
      <point x="620" y="244"/>
      <point x="610" y="225" type="curve" smooth="yes"/>
      <point x="591" y="189"/>
      <point x="559" y="158"/>
      <point x="534" y="134" type="curve"/>
      <point x="465" y="227"/>
      <point x="410" y="319"/>
      <point x="366" y="412" type="curve"/>
      <point x="471" y="455"/>
      <point x="579" y="499"/>
      <point x="579" y="600" type="curve" smooth="yes"/>
      <point x="579" y="685"/>
      <point x="503" y="735"/>
      <point x="408" y="735" type="curve" smooth="yes"/>
      <point x="304" y="735"/>
      <point x="213" y="675"/>
      <point x="213" y="571" type="curve" smooth="yes"/>
      <point x="213" y="515"/>
      <point x="240" y="462"/>
      <point x="259" y="409" type="curve"/>
      <point x="158" y="372"/>
      <point x="44" y="298"/>
      <point x="44" y="182" type="curve" smooth="yes"/>
      <point x="44" y="71"/>
      <point x="149" y="-14"/>
    </contour>
    <contour>
      <point x="321" y="45" type="curve" smooth="yes"/>
      <point x="215" y="45"/>
      <point x="157" y="127"/>
      <point x="157" y="206" type="curve" smooth="yes"/>
      <point x="157" y="291"/>
      <point x="225" y="345"/>
      <point x="277" y="373" type="curve"/>
      <point x="316" y="286"/>
      <point x="372" y="177"/>
      <point x="463" y="81" type="curve"/>
      <point x="427" y="63"/>
      <point x="370" y="45"/>
    </contour>
    <contour>
      <point x="348" y="451" type="curve"/>
      <point x="332" y="484"/>
      <point x="301" y="542"/>
      <point x="301" y="591" type="curve" smooth="yes"/>
      <point x="301" y="657"/>
      <point x="355" y="699"/>
      <point x="411" y="699" type="curve" smooth="yes"/>
      <point x="453" y="699"/>
      <point x="507" y="675"/>
      <point x="507" y="616" type="curve" smooth="yes"/>
      <point x="507" y="550"/>
      <point x="439" y="501"/>
    </contour>
  </outline>
</glyph>
<glyph name="quotesingle" format="2">
  <advance width="200"/>
  <unicode hex="0027"/>
  <outline>
    <contour>
      <point x="83" y="468" type="curve"/>
      <point x="117" y="468" type="line"/>
      <point x="117" y="532"/>
      <point x="157" y="624"/>
      <point x="157" y="674" type="curve" smooth="yes"/>
      <point x="157" y="715"/>
      <point x="129" y="735"/>
      <point x="99" y="735" type="curve" smooth="yes"/>
      <point x="70" y="735"/>
      <point x="43" y="715"/>
      <point x="43" y="674" type="curve" smooth="yes"/>
      <point x="43" y="624"/>
      <point x="83" y="532"/>
    </contour>
  </outline>
</glyph>
<glyph name="parenleft" format="2">
  <advance width="360"/>
  <unicode hex="0028"/>
  <outline>
    <contour>
      <point x="314" y="-195" type="curve"/>
      <point x="314" y="-156" type="line"/>
      <point x="214" y="-69"/>
      <point x="145" y="48"/>
      <point x="145" y="270" type="curve" smooth="yes"/>
      <point x="145" y="493"/>
      <point x="214" y="610"/>
      <point x="314" y="696" type="curve"/>
      <point x="314" y="735" type="line"/>
      <point x="208" y="674"/>
      <point x="57" y="534"/>
      <point x="57" y="270" type="curve" smooth="yes"/>
      <point x="57" y="6"/>
      <point x="208" y="-133"/>
    </contour>
  </outline>
</glyph>
<glyph name="asterisk" format="2">
  <advance width="475"/>
  <unicode hex="002A"/>
  <outline>
    <contour>
      <point x="155" y="408" type="curve" smooth="yes"/>
      <point x="168" y="408"/>
      <point x="182" y="414"/>
      <point x="192" y="428" type="curve" smooth="yes"/>
      <point x="210" y="453"/>
      <point x="208" y="493"/>
      <point x="237" y="533" type="curve"/>
      <point x="266" y="493"/>
      <point x="266" y="450"/>
      <point x="282" y="428" type="curve" smooth="yes"/>
      <point x="292" y="414"/>
      <point x="306" y="408"/>
      <point x="319" y="408" type="curve" smooth="yes"/>
      <point x="327" y="408"/>
      <point x="335" y="410"/>
      <point x="342" y="415" type="curve" smooth="yes"/>
      <point x="351" y="422"/>
      <point x="357" y="434"/>
      <point x="357" y="447" type="curve" smooth="yes"/>
      <point x="357" y="457"/>
      <point x="354" y="468"/>
      <point x="347" y="477" type="curve" smooth="yes"/>
      <point x="331" y="498"/>
      <point x="291" y="510"/>
      <point x="262" y="550" type="curve"/>
      <point x="281" y="556"/>
      <point x="299" y="558"/>
      <point x="316" y="558" type="curve" smooth="yes"/>
      <point x="349" y="557" type="line" smooth="yes"/>
      <point x="359" y="557"/>
      <point x="368" y="558"/>
      <point x="375" y="560" type="curve" smooth="yes"/>
      <point x="393" y="565"/>
      <point x="408" y="583"/>
      <point x="408" y="601" type="curve" smooth="yes"/>
      <point x="408" y="622"/>
      <point x="388" y="640"/>
      <point x="364" y="640" type="curve" smooth="yes"/>
      <point x="359" y="640"/>
      <point x="355" y="639"/>
      <point x="350" y="638" type="curve"/>
      <point x="324" y="629"/>
      <point x="299" y="594"/>
      <point x="252" y="578" type="curve"/>
      <point x="252" y="628"/>
      <point x="278" y="662"/>
      <point x="278" y="691" type="curve" smooth="yes"/>
      <point x="278" y="715"/>
      <point x="260" y="735"/>
      <point x="238" y="735" type="curve" smooth="yes"/>
      <point x="216" y="735"/>
      <point x="197" y="716"/>
      <point x="197" y="691" type="curve" smooth="yes"/>
      <point x="197" y="662"/>
      <point x="223" y="628"/>
      <point x="223" y="578" type="curve"/>
      <point x="175" y="594"/>
      <point x="150" y="629"/>
      <point x="124" y="638" type="curve"/>
      <point x="119" y="639"/>
      <point x="114" y="640"/>
      <point x="109" y="640" type="curve" smooth="yes"/>
      <point x="86" y="640"/>
      <point x="67" y="623"/>
      <point x="67" y="602" type="curve" smooth="yes"/>
      <point x="67" y="586"/>
      <point x="79" y="566"/>
      <point x="99" y="560" type="curve" smooth="yes"/>
      <point x="106" y="558"/>
      <point x="114" y="557"/>
      <point x="122" y="557" type="curve" smooth="yes"/>
      <point x="157" y="558" type="line" smooth="yes"/>
      <point x="174" y="558"/>
      <point x="193" y="556"/>
      <point x="213" y="550" type="curve"/>
      <point x="185" y="511"/>
      <point x="145" y="498"/>
      <point x="128" y="478" type="curve" smooth="yes"/>
      <point x="120" y="469"/>
      <point x="117" y="457"/>
      <point x="117" y="447" type="curve" smooth="yes"/>
      <point x="117" y="434"/>
      <point x="123" y="422"/>
      <point x="132" y="415" type="curve" smooth="yes"/>
      <point x="138" y="410"/>
      <point x="146" y="408"/>
    </contour>
  </outline>
</glyph>
<glyph name="comma" format="2">
  <advance width="267"/>
  <unicode hex="002C"/>
  <outline>
    <contour>
      <point x="83" y="-156" type="line"/>
      <point x="126" y="-112"/>
      <point x="201" y="-33"/>
      <point x="201" y="44" type="curve" smooth="yes"/>
      <point x="201" y="97"/>
      <point x="165" y="123"/>
      <point x="131" y="123" type="curve" smooth="yes"/>
      <point x="101" y="123"/>
      <point x="69" y="102"/>
      <point x="69" y="60" type="curve" smooth="yes"/>
      <point x="69" y="4"/>
      <point x="125" y="6"/>
      <point x="125" y="-24" type="curve" smooth="yes"/>
      <point x="125" y="-50"/>
      <point x="85" y="-98"/>
      <point x="57" y="-129" type="curve"/>
    </contour>
  </outline>
</glyph>
<glyph name="hyphen" format="2">
  <advance width="209"/>
  <unicode hex="002D"/>
  <outline>
    <contour>
      <point x="0" y="200" type="line"/>
      <point x="209" y="200" type="line"/>
      <point x="209" y="277" type="line"/>
      <point x="0" y="277" type="line"/>
    </contour>
  </outline>
</glyph>
<glyph name="period" format="2">
  <advance width="267"/>
  <unicode hex="002E"/>
  <outline>
    <contour>
      <point x="134" y="-14" type="curve" smooth="yes"/>
      <point x="171" y="-14"/>
      <point x="202" y="15"/>
      <point x="202" y="55" type="curve" smooth="yes"/>
      <point x="202" y="95"/>
      <point x="171" y="123"/>
      <point x="134" y="123" type="curve" smooth="yes"/>
      <point x="97" y="123"/>
      <point x="65" y="95"/>
      <point x="65" y="55" type="curve" smooth="yes"/>
      <point x="65" y="15"/>
      <point x="97" y="-14"/>
    </contour>
  </outline>
</glyph>
<glyph name="slash" format="2">
  <advance width="363"/>
  <unicode hex="002F"/>
  <outline>
    <contour>
      <point x="-12" y="-181" type="line"/>
      <point x="45" y="-181" type="line"/>
      <point x="320" y="721" type="line"/>
      <point x="261" y="721" type="line"/>
    </contour>
  </outline>
</glyph>
<glyph name="zero" format="2">
  <advance width="535"/>
  <unicode hex="0030"/>
  <outline>
    <contour>
      <point x="268" y="-14" type="curve" smooth="yes"/>
      <point x="395" y="-14"/>
      <point x="492" y="161"/>
      <point x="492" y="346" type="curve" smooth="yes"/>
      <point x="492" y="525"/>
      <point x="401" y="707"/>
      <point x="268" y="707" type="curve" smooth="yes"/>
      <point x="136" y="707"/>
      <point x="43" y="529"/>
      <point x="43" y="346" type="curve" smooth="yes"/>
      <point x="43" y="157"/>
      <point x="143" y="-14"/>
    </contour>
    <contour>
      <point x="268" y="27" type="curve" smooth="yes"/>
      <point x="172" y="27"/>
      <point x="146" y="184"/>
      <point x="146" y="349" type="curve" smooth="yes"/>
      <point x="146" y="505"/>
      <point x="169" y="666"/>
      <point x="267" y="666" type="curve" smooth="yes"/>
      <point x="349" y="666"/>
      <point x="389" y="553"/>
      <point x="389" y="347" type="curve" smooth="yes"/>
      <point x="389" y="162"/>
      <point x="357" y="27"/>
    </contour>
  </outline>
</glyph>
<glyph name="one" format="2">
  <advance width="535"/>
  <unicode hex="0031"/>
  <outline>
    <contour>
      <point x="104" y="0" type="line"/>
      <point x="459" y="0" type="line"/>
      <point x="459" y="43" type="line"/>
      <point x="347" y="43"/>
      <point x="326" y="61"/>
      <point x="326" y="131" type="curve" smooth="yes"/>
      <point x="326" y="714" type="line"/>
      <point x="249" y="682"/>
      <point x="187" y="658"/>
      <point x="93" y="639" type="curve"/>
      <point x="93" y="599" type="line"/>
      <point x="230" y="599"/>
      <point x="237" y="595"/>
      <point x="237" y="511" type="curve" smooth="yes"/>
      <point x="237" y="131" type="line" smooth="yes"/>
      <point x="237" y="61"/>
      <point x="216" y="43"/>
      <point x="104" y="43" type="curve"/>
    </contour>
  </outline>
</glyph>
<glyph name="two" format="2">
  <advance width="535"/>
  <unicode hex="0032"/>
  <outline>
    <contour>
      <point x="42" y="0" type="line"/>
      <point x="436" y="0" type="line"/>
      <point x="480" y="190" type="line"/>
      <point x="441" y="201" type="line"/>
      <point x="408" y="109"/>
      <point x="387" y="81"/>
      <point x="322" y="81" type="curve" smooth="yes"/>
      <point x="125" y="81" type="line"/>
      <point x="163" y="136"/>
      <point x="201" y="182"/>
      <point x="274" y="248" type="curve" smooth="yes"/>
      <point x="374" y="338"/>
      <point x="475" y="410"/>
      <point x="475" y="524" type="curve" smooth="yes"/>
      <point x="475" y="623"/>
      <point x="400" y="707"/>
      <point x="276" y="707" type="curve" smooth="yes"/>
      <point x="142" y="707"/>
      <point x="65" y="609"/>
      <point x="65" y="535" type="curve" smooth="yes"/>
      <point x="65" y="498"/>
      <point x="84" y="458"/>
      <point x="124" y="458" type="curve" smooth="yes"/>
      <point x="160" y="458"/>
      <point x="179" y="489"/>
      <point x="179" y="518" type="curve" smooth="yes"/>
      <point x="179" y="549"/>
      <point x="157" y="567"/>
      <point x="157" y="593" type="curve" smooth="yes"/>
      <point x="157" y="631"/>
      <point x="203" y="662"/>
      <point x="257" y="662" type="curve" smooth="yes"/>
      <point x="317" y="662"/>
      <point x="372" y="623"/>
      <point x="372" y="535" type="curve" smooth="yes"/>
      <point x="372" y="423"/>
      <point x="280" y="349"/>
      <point x="219" y="279" type="curve" smooth="yes"/>
      <point x="152" y="202"/>
      <point x="92" y="137"/>
      <point x="42" y="39" type="curve"/>
    </contour>
  </outline>
</glyph>
<glyph name="three" format="2">
  <advance width="535"/>
  <unicode hex="0033"/>
  <outline>
    <contour>
      <point x="255" y="-14" type="curve" smooth="yes"/>
      <point x="404" y="-14"/>
      <point x="488" y="86"/>
      <point x="488" y="184" type="curve" smooth="yes"/>
      <point x="488" y="245"/>
      <point x="455" y="296"/>
      <point x="420" y="326" type="curve" smooth="yes"/>
      <point x="391" y="351"/>
      <point x="360" y="363"/>
      <point x="307" y="370" type="curve"/>
      <point x="391" y="387"/>
      <point x="464" y="452"/>
      <point x="464" y="543" type="curve" smooth="yes"/>
      <point x="464" y="638"/>
      <point x="383" y="707"/>
      <point x="271" y="707" type="curve" smooth="yes"/>
      <point x="164" y="707"/>
      <point x="63" y="645"/>
      <point x="63" y="570" type="curve" smooth="yes"/>
      <point x="63" y="537"/>
      <point x="82" y="508"/>
      <point x="118" y="508" type="curve" smooth="yes"/>
      <point x="151" y="508"/>
      <point x="173" y="533"/>
      <point x="173" y="563" type="curve" smooth="yes"/>
      <point x="173" y="576"/>
      <point x="169" y="590"/>
      <point x="169" y="603" type="curve" smooth="yes"/>
      <point x="169" y="640"/>
      <point x="203" y="663"/>
      <point x="254" y="663" type="curve" smooth="yes"/>
      <point x="327" y="663"/>
      <point x="363" y="615"/>
      <point x="363" y="539" type="curve" smooth="yes"/>
      <point x="363" y="445"/>
      <point x="308" y="390"/>
      <point x="239" y="390" type="curve" smooth="yes"/>
      <point x="197" y="392" type="line" smooth="yes"/>
      <point x="176" y="392"/>
      <point x="166" y="385"/>
      <point x="166" y="368" type="curve" smooth="yes"/>
      <point x="166" y="350"/>
      <point x="177" y="344"/>
      <point x="199" y="344" type="curve" smooth="yes"/>
      <point x="212" y="344"/>
      <point x="228" y="346"/>
      <point x="244" y="346" type="curve" smooth="yes"/>
      <point x="345" y="346"/>
      <point x="381" y="268"/>
      <point x="381" y="186" type="curve" smooth="yes"/>
      <point x="381" y="76"/>
      <point x="317" y="29"/>
      <point x="241" y="29" type="curve" smooth="yes"/>
      <point x="183" y="29"/>
      <point x="152" y="56"/>
      <point x="152" y="84" type="curve" smooth="yes"/>
      <point x="152" y="95"/>
      <point x="157" y="105"/>
      <point x="157" y="122" type="curve" smooth="yes"/>
      <point x="157" y="152"/>
      <point x="142" y="185"/>
      <point x="100" y="185" type="curve" smooth="yes"/>
      <point x="64" y="185"/>
      <point x="40" y="160"/>
      <point x="40" y="119" type="curve" smooth="yes"/>
      <point x="40" y="29"/>
      <point x="158" y="-14"/>
    </contour>
  </outline>
</glyph>
<glyph name="four" format="2">
  <advance width="535"/>
  <unicode hex="0034"/>
  <outline>
    <contour>
      <point x="211" y="0" type="line"/>
      <point x="459" y="0" type="line"/>
      <point x="459" y="43" type="line"/>
      <point x="377" y="43"/>
      <point x="384" y="61"/>
      <point x="384" y="131" type="curve" smooth="yes"/>
      <point x="384" y="165" type="line"/>
      <point x="502" y="165" type="line"/>
      <point x="502" y="216" type="line"/>
      <point x="384" y="216" type="line"/>
      <point x="384" y="699" type="line"/>
      <point x="338" y="699" type="line"/>
      <point x="38" y="211" type="line"/>
      <point x="38" y="165" type="line"/>
      <point x="294" y="165" type="line"/>
      <point x="294" y="131" type="line" smooth="yes"/>
      <point x="294" y="57"/>
      <point x="294" y="43"/>
      <point x="211" y="43" type="curve"/>
    </contour>
    <contour>
      <point x="92" y="216" type="line"/>
      <point x="294" y="547" type="line"/>
      <point x="294" y="216" type="line"/>
    </contour>
  </outline>
</glyph>
<glyph name="five" format="2">
  <advance width="535"/>
  <unicode hex="0035"/>
  <outline>
    <contour>
      <point x="246" y="-14" type="curve" smooth="yes"/>
      <point x="399" y="-14"/>
      <point x="483" y="104"/>
      <point x="483" y="224" type="curve" smooth="yes"/>
      <point x="483" y="292"/>
      <point x="456" y="349"/>
      <point x="418" y="386" type="curve" smooth="yes"/>
      <point x="395" y="409"/>
      <point x="349" y="442"/>
      <point x="280" y="442" type="curve" smooth="yes"/>
      <point x="212" y="442"/>
      <point x="163" y="410"/>
      <point x="136" y="385" type="curve"/>
      <point x="146" y="613" type="line"/>
      <point x="435" y="613" type="line"/>
      <point x="451" y="692" type="line"/>
      <point x="102" y="692" type="line"/>
      <point x="94" y="476" type="line" smooth="yes"/>
      <point x="92" y="427"/>
      <point x="88" y="378"/>
      <point x="83" y="330" type="curve"/>
      <point x="119" y="314" type="line"/>
      <point x="150" y="350"/>
      <point x="199" y="389"/>
      <point x="262" y="389" type="curve" smooth="yes"/>
      <point x="358" y="389"/>
      <point x="381" y="300"/>
      <point x="381" y="215" type="curve" smooth="yes"/>
      <point x="381" y="80"/>
      <point x="323" y="28"/>
      <point x="247" y="28" type="curve" smooth="yes"/>
      <point x="191" y="28"/>
      <point x="161" y="56"/>
      <point x="161" y="83" type="curve" smooth="yes"/>
      <point x="161" y="94"/>
      <point x="166" y="113"/>
      <point x="166" y="128" type="curve" smooth="yes"/>
      <point x="166" y="159"/>
      <point x="146" y="185"/>
      <point x="114" y="185" type="curve" smooth="yes"/>
      <point x="84" y="185"/>
      <point x="55" y="163"/>
      <point x="55" y="121" type="curve" smooth="yes"/>
      <point x="55" y="52"/>
      <point x="131" y="-14"/>
    </contour>
  </outline>
</glyph>
<glyph name="six" format="2">
  <advance width="535"/>
  <unicode hex="0036"/>
  <outline>
    <contour>
      <point x="273" y="-14" type="curve" smooth="yes"/>
      <point x="394" y="-14"/>
      <point x="491" y="93"/>
      <point x="491" y="228" type="curve" smooth="yes"/>
      <point x="491" y="334"/>
      <point x="431" y="443"/>
      <point x="316" y="443" type="curve" smooth="yes"/>
      <point x="256" y="443"/>
      <point x="201" y="413"/>
      <point x="151" y="349" type="curve"/>
      <point x="151" y="527"/>
      <point x="217" y="663"/>
      <point x="298" y="663" type="curve" smooth="yes"/>
      <point x="371" y="663"/>
      <point x="340" y="555"/>
      <point x="412" y="555" type="curve" smooth="yes"/>
      <point x="441" y="555"/>
      <point x="467" y="573"/>
      <point x="467" y="610" type="curve" smooth="yes"/>
      <point x="467" y="675"/>
      <point x="385" y="707"/>
      <point x="322" y="707" type="curve" smooth="yes"/>
      <point x="172" y="707"/>
      <point x="48" y="525"/>
      <point x="48" y="306" type="curve" smooth="yes"/>
      <point x="48" y="120"/>
      <point x="137" y="-14"/>
    </contour>
    <contour>
      <point x="273" y="24" type="curve" smooth="yes"/>
      <point x="240" y="24"/>
      <point x="211" y="41"/>
      <point x="191" y="71" type="curve" smooth="yes"/>
      <point x="163" y="113"/>
      <point x="148" y="182"/>
      <point x="148" y="227" type="curve" smooth="yes"/>
      <point x="148" y="250"/>
      <point x="148" y="265"/>
      <point x="149" y="279" type="curve"/>
      <point x="171" y="343"/>
      <point x="232" y="384"/>
      <point x="288" y="384" type="curve" smooth="yes"/>
      <point x="338" y="384"/>
      <point x="388" y="352"/>
      <point x="388" y="218" type="curve" smooth="yes"/>
      <point x="388" y="76"/>
      <point x="332" y="24"/>
    </contour>
  </outline>
</glyph>
<glyph name="seven" format="2">
  <advance width="535"/>
  <unicode hex="0037"/>
  <outline>
    <contour>
      <point x="231" y="-14" type="curve" smooth="yes"/>
      <point x="257" y="-14"/>
      <point x="284" y="3"/>
      <point x="284" y="66" type="curve" smooth="yes"/>
      <point x="284" y="104" type="line" smooth="yes"/>
      <point x="284" y="243"/>
      <point x="397" y="475"/>
      <point x="491" y="645" type="curve"/>
      <point x="491" y="692" type="line"/>
      <point x="107" y="692" type="line"/>
      <point x="59" y="490" type="line"/>
      <point x="96" y="478" type="line"/>
      <point x="145" y="604"/>
      <point x="146" y="613"/>
      <point x="224" y="613" type="curve" smooth="yes"/>
      <point x="431" y="613" type="line"/>
      <point x="350" y="487"/>
      <point x="276" y="345"/>
      <point x="226" y="229" type="curve" smooth="yes"/>
      <point x="198" y="164"/>
      <point x="174" y="99"/>
      <point x="174" y="54" type="curve" smooth="yes"/>
      <point x="174" y="5"/>
      <point x="203" y="-14"/>
    </contour>
  </outline>
</glyph>
<glyph name="eight" format="2">
  <advance width="535"/>
  <unicode hex="0038"/>
  <outline>
    <contour>
      <point x="253" y="-14" type="curve" smooth="yes"/>
      <point x="392" y="-14"/>
      <point x="482" y="77"/>
      <point x="482" y="200" type="curve" smooth="yes"/>
      <point x="482" y="290"/>
      <point x="434" y="348"/>
      <point x="341" y="388" type="curve"/>
      <point x="403" y="414"/>
      <point x="463" y="468"/>
      <point x="463" y="546" type="curve" smooth="yes"/>
      <point x="463" y="630"/>
      <point x="395" y="707"/>
      <point x="282" y="707" type="curve" smooth="yes"/>
      <point x="166" y="707"/>
      <point x="82" y="627"/>
      <point x="82" y="521" type="curve" smooth="yes"/>
      <point x="82" y="453"/>
      <point x="117" y="388"/>
      <point x="198" y="351" type="curve"/>
      <point x="119" y="309"/>
      <point x="40" y="256"/>
      <point x="40" y="160" type="curve" smooth="yes"/>
      <point x="40" y="56"/>
      <point x="132" y="-14"/>
    </contour>
    <contour>
      <point x="264" y="27" type="curve" smooth="yes"/>
      <point x="178" y="27"/>
      <point x="131" y="85"/>
      <point x="131" y="165" type="curve" smooth="yes"/>
      <point x="131" y="240"/>
      <point x="172" y="293"/>
      <point x="228" y="332" type="curve"/>
      <point x="355" y="272"/>
      <point x="410" y="242"/>
      <point x="410" y="169" type="curve" smooth="yes"/>
      <point x="410" y="98"/>
      <point x="359" y="27"/>
    </contour>
    <contour>
      <point x="309" y="405" type="curve"/>
      <point x="206" y="450"/>
      <point x="150" y="485"/>
      <point x="150" y="554" type="curve" smooth="yes"/>
      <point x="150" y="628"/>
      <point x="212" y="666"/>
      <point x="269" y="666" type="curve" smooth="yes"/>
      <point x="324" y="666"/>
      <point x="385" y="631"/>
      <point x="385" y="546" type="curve" smooth="yes"/>
      <point x="385" y="485"/>
      <point x="353" y="438"/>
    </contour>
  </outline>
</glyph>
<glyph name="nine" format="2">
  <advance width="535"/>
  <unicode hex="0039"/>
  <outline>
    <contour>
      <point x="212" y="-14" type="curve" smooth="yes"/>
      <point x="364" y="-14"/>
      <point x="486" y="168"/>
      <point x="486" y="386" type="curve" smooth="yes"/>
      <point x="486" y="567"/>
      <point x="402" y="707"/>
      <point x="261" y="707" type="curve" smooth="yes"/>
      <point x="129" y="707"/>
      <point x="44" y="584"/>
      <point x="44" y="459" type="curve" smooth="yes"/>
      <point x="44" y="337"/>
      <point x="125" y="250"/>
      <point x="224" y="250" type="curve" smooth="yes"/>
      <point x="293" y="250"/>
      <point x="348" y="293"/>
      <point x="389" y="354" type="curve"/>
      <point x="383" y="176"/>
      <point x="322" y="32"/>
      <point x="236" y="32" type="curve" smooth="yes"/>
      <point x="162" y="32"/>
      <point x="201" y="139"/>
      <point x="132" y="139" type="curve" smooth="yes"/>
      <point x="103" y="139"/>
      <point x="71" y="121"/>
      <point x="71" y="83" type="curve" smooth="yes"/>
      <point x="71" y="26"/>
      <point x="141" y="-14"/>
    </contour>
    <contour>
      <point x="250" y="311" type="curve" smooth="yes"/>
      <point x="194" y="311"/>
      <point x="145" y="343"/>
      <point x="145" y="473" type="curve" smooth="yes"/>
      <point x="145" y="591"/>
      <point x="186" y="666"/>
      <point x="259" y="666" type="curve" smooth="yes"/>
      <point x="350" y="666"/>
      <point x="386" y="547"/>
      <point x="386" y="432" type="curve" smooth="yes"/>
      <point x="386" y="404" type="line"/>
      <point x="355" y="349"/>
      <point x="311" y="311"/>
    </contour>
  </outline>
</glyph>
<glyph name="colon" format="2">
  <advance width="267"/>
  <unicode hex="003A"/>
  <outline>
    <contour>
      <point x="134" y="346" type="curve" smooth="yes"/>
      <point x="171" y="346"/>
      <point x="202" y="375"/>
      <point x="202" y="415" type="curve" smooth="yes"/>
      <point x="202" y="455"/>
      <point x="171" y="483"/>
      <point x="134" y="483" type="curve" smooth="yes"/>
      <point x="97" y="483"/>
      <point x="65" y="455"/>
      <point x="65" y="415" type="curve" smooth="yes"/>
      <point x="65" y="375"/>
      <point x="97" y="346"/>
    </contour>
    <contour>
      <point x="134" y="-14" type="curve" smooth="yes"/>
      <point x="171" y="-14"/>
      <point x="202" y="15"/>
      <point x="202" y="55" type="curve" smooth="yes"/>
      <point x="202" y="95"/>
      <point x="171" y="123"/>
      <point x="134" y="123" type="curve" smooth="yes"/>
      <point x="97" y="123"/>
      <point x="65" y="95"/>
      <point x="65" y="55" type="curve" smooth="yes"/>
      <point x="65" y="15"/>
      <point x="97" y="-14"/>
    </contour>
  </outline>
</glyph>
<glyph name="semicolon" format="2">
  <advance width="267"/>
  <unicode hex="003B"/>
  <outline>
    <contour>
      <point x="83" y="-156" type="line"/>
      <point x="126" y="-112"/>
      <point x="201" y="-33"/>
      <point x="201" y="44" type="curve" smooth="yes"/>
      <point x="201" y="97"/>
      <point x="165" y="123"/>
      <point x="131" y="123" type="curve" smooth="yes"/>
      <point x="101" y="123"/>
      <point x="69" y="102"/>
      <point x="69" y="60" type="curve" smooth="yes"/>
      <point x="69" y="4"/>
      <point x="125" y="6"/>
      <point x="125" y="-24" type="curve" smooth="yes"/>
      <point x="125" y="-50"/>
      <point x="85" y="-98"/>
      <point x="57" y="-129" type="curve"/>
    </contour>
    <contour>
      <point x="134" y="346" type="curve" smooth="yes"/>
      <point x="171" y="346"/>
      <point x="202" y="375"/>
      <point x="202" y="415" type="curve" smooth="yes"/>
      <point x="202" y="455"/>
      <point x="171" y="483"/>
      <point x="134" y="483" type="curve" smooth="yes"/>
      <point x="97" y="483"/>
      <point x="65" y="455"/>
      <point x="65" y="415" type="curve" smooth="yes"/>
      <point x="65" y="375"/>
      <point x="97" y="346"/>
    </contour>
  </outline>
</glyph>
<glyph name="less" format="2">
  <advance width="601"/>
  <unicode hex="003C"/>
  <note>
less
</note>
  <outline>
    <contour>
      <point x="539" y="-5" type="line"/>
      <point x="539" y="71" type="line"/>
      <point x="144" y="239" type="line"/>
      <point x="539" y="406" type="line"/>
      <point x="539" y="483" type="line"/>
      <point x="62" y="275" type="line"/>
      <point x="62" y="203" type="line"/>
    </contour>
  </outline>
</glyph>
<glyph name="question" format="2">
  <advance width="405"/>
  <unicode hex="003F"/>
  <outline>
    <contour>
      <point x="141" y="202" type="line"/>
      <point x="189" y="202" type="line"/>
      <point x="189" y="328" type="line"/>
      <point x="285" y="328"/>
      <point x="365" y="408"/>
      <point x="365" y="518" type="curve" smooth="yes"/>
      <point x="365" y="637"/>
      <point x="272" y="735"/>
      <point x="167" y="735" type="curve" smooth="yes"/>
      <point x="109" y="735"/>
      <point x="72" y="705"/>
      <point x="72" y="669" type="curve" smooth="yes"/>
      <point x="72" y="650"/>
      <point x="83" y="616"/>
      <point x="118" y="616" type="curve" smooth="yes"/>
      <point x="163" y="616"/>
      <point x="177" y="671"/>
      <point x="218" y="671" type="curve" smooth="yes"/>
      <point x="251" y="671"/>
      <point x="291" y="634"/>
      <point x="291" y="560" type="curve" smooth="yes"/>
      <point x="291" y="469"/>
      <point x="230" y="412"/>
      <point x="141" y="412" type="curve"/>
    </contour>
    <contour>
      <point x="162" y="-14" type="curve" smooth="yes"/>
      <point x="199" y="-14"/>
      <point x="230" y="15"/>
      <point x="230" y="55" type="curve" smooth="yes"/>
      <point x="230" y="95"/>
      <point x="199" y="123"/>
      <point x="162" y="123" type="curve" smooth="yes"/>
      <point x="125" y="123"/>
      <point x="93" y="95"/>
      <point x="93" y="55" type="curve" smooth="yes"/>
      <point x="93" y="15"/>
      <point x="125" y="-14"/>
    </contour>
  </outline>
</glyph>
<glyph name="at" format="2">
  <advance width="812"/>
  <unicode hex="0040"/>
  <outline>
    <contour>
      <point x="391" y="-14" type="curve" smooth="yes"/>
      <point x="505" y="-14"/>
      <point x="583" y="37"/>
      <point x="655" y="96" type="curve"/>
      <point x="634" y="125" type="line"/>
      <point x="565" y="76"/>
      <point x="492" y="29"/>
      <point x="394" y="29" type="curve" smooth="yes"/>
      <point x="236" y="29"/>
      <point x="98" y="151"/>
      <point x="98" y="333" type="curve" smooth="yes"/>
      <point x="98" y="548"/>
      <point x="292" y="691"/>
      <point x="466" y="691" type="curve" smooth="yes"/>
      <point x="599" y="691"/>
      <point x="718" y="607"/>
      <point x="718" y="458" type="curve" smooth="yes"/>
      <point x="718" y="317"/>
      <point x="610" y="206"/>
      <point x="548" y="206" type="curve" smooth="yes"/>
      <point x="531" y="206"/>
      <point x="523" y="214"/>
      <point x="523" y="230" type="curve" smooth="yes"/>
      <point x="523" y="243"/>
      <point x="528" y="261"/>
      <point x="531" y="277" type="curve" smooth="yes"/>
      <point x="549" y="372"/>
      <point x="572" y="466"/>
      <point x="598" y="561" type="curve"/>
      <point x="530" y="561" type="line"/>
      <point x="518" y="520" type="line"/>
      <point x="507" y="550"/>
      <point x="480" y="562"/>
      <point x="450" y="562" type="curve" smooth="yes"/>
      <point x="343" y="562"/>
      <point x="244" y="405"/>
      <point x="244" y="291" type="curve" smooth="yes"/>
      <point x="244" y="211"/>
      <point x="292" y="159"/>
      <point x="348" y="159" type="curve" smooth="yes"/>
      <point x="399" y="159"/>
      <point x="435" y="201"/>
      <point x="455" y="238" type="curve"/>
      <point x="454" y="219" type="line" smooth="yes"/>
      <point x="452" y="181"/>
      <point x="473" y="159"/>
      <point x="523" y="159" type="curve" smooth="yes"/>
      <point x="651" y="159"/>
      <point x="769" y="303"/>
      <point x="769" y="459" type="curve" smooth="yes"/>
      <point x="769" y="625"/>
      <point x="637" y="736"/>
      <point x="464" y="736" type="curve" smooth="yes"/>
      <point x="261" y="736"/>
      <point x="43" y="582"/>
      <point x="43" y="335" type="curve" smooth="yes"/>
      <point x="43" y="120"/>
      <point x="207" y="-14"/>
    </contour>
    <contour>
      <point x="354" y="199" type="curve" smooth="yes"/>
      <point x="324" y="199"/>
      <point x="319" y="235"/>
      <point x="319" y="263" type="curve" smooth="yes"/>
      <point x="319" y="370"/>
      <point x="389" y="528"/>
      <point x="453" y="528" type="curve" smooth="yes"/>
      <point x="477" y="528"/>
      <point x="494" y="505"/>
      <point x="494" y="466" type="curve" smooth="yes"/>
      <point x="494" y="386"/>
      <point x="421" y="199"/>
    </contour>
  </outline>
</glyph>
<glyph name="A" format="2">
  <advance width="643"/>
  <unicode hex="0041"/>
  <anchor x="301" y="0" name="dotbelow"/>
  <anchor x="519" y="0" name="ogonek"/>
  <anchor x="322" y="813" name="top"/>
  <outline>
    <contour>
      <point x="-8" y="0" type="line"/>
      <point x="213" y="0" type="line"/>
      <point x="213" y="42" type="line"/>
      <point x="148" y="42"/>
      <point x="130" y="63"/>
      <point x="130" y="96" type="curve" smooth="yes"/>
      <point x="130" y="109"/>
      <point x="133" y="122"/>
      <point x="137" y="135" type="curve" smooth="yes"/>
      <point x="172" y="249" type="line"/>
      <point x="415" y="249" type="line"/>
      <point x="457" y="105" type="line" smooth="yes"/>
      <point x="460" y="95"/>
      <point x="463" y="81"/>
      <point x="463" y="73" type="curve" smooth="yes"/>
      <point x="463" y="51"/>
      <point x="437" y="42"/>
      <point x="410" y="42" type="curve" smooth="yes"/>
      <point x="379" y="42" type="line"/>
      <point x="379" y="0" type="line"/>
      <point x="650" y="0" type="line"/>
      <point x="650" y="42" type="line"/>
      <point x="584" y="48"/>
      <point x="580" y="56"/>
      <point x="558" y="124" type="curve" smooth="yes"/>
      <point x="361" y="743" type="line"/>
      <point x="274" y="716" type="line"/>
      <point x="72" y="103" type="line" smooth="yes"/>
      <point x="59" y="64"/>
      <point x="34" y="42"/>
      <point x="-8" y="42" type="curve"/>
    </contour>
    <contour>
      <point x="188" y="297" type="line"/>
      <point x="298" y="639" type="line"/>
      <point x="398" y="297" type="line"/>
    </contour>
  </outline>
</glyph>
<glyph name="B" format="2">
  <advance width="663"/>
  <unicode hex="0042"/>
  <anchor x="334" y="0" name="dotbelow"/>
  <anchor x="315" y="813" name="top"/>
  <outline>
    <contour>
      <point x="32" y="0" type="line"/>
      <point x="334" y="0" type="line" smooth="yes"/>
      <point x="425" y="0"/>
      <point x="516" y="15"/>
      <point x="572" y="76" type="curve" smooth="yes"/>
      <point x="600" y="107"/>
      <point x="619" y="148"/>
      <point x="619" y="195" type="curve" smooth="yes"/>
      <point x="619" y="282"/>
      <point x="552" y="372"/>
      <point x="408" y="386" type="curve"/>
      <point x="490" y="400"/>
      <point x="581" y="454"/>
      <point x="581" y="553" type="curve" smooth="yes"/>
      <point x="581" y="629"/>
      <point x="528" y="673"/>
      <point x="483" y="692" type="curve" smooth="yes"/>
      <point x="443" y="709"/>
      <point x="374" y="721"/>
      <point x="294" y="721" type="curve" smooth="yes"/>
      <point x="32" y="721" type="line"/>
      <point x="32" y="679" type="line"/>
      <point x="56" y="679" type="line" smooth="yes"/>
      <point x="111" y="679"/>
      <point x="126" y="662"/>
      <point x="126" y="599" type="curve" smooth="yes"/>
      <point x="126" y="131" type="line" smooth="yes"/>
      <point x="126" y="53"/>
      <point x="109" y="42"/>
      <point x="55" y="42" type="curve" smooth="yes"/>
      <point x="32" y="42" type="line"/>
    </contour>
    <contour>
      <point x="306" y="42" type="curve" smooth="yes"/>
      <point x="269" y="42"/>
      <point x="250" y="45"/>
      <point x="239" y="54" type="curve" smooth="yes"/>
      <point x="230" y="62"/>
      <point x="227" y="73"/>
      <point x="227" y="128" type="curve" smooth="yes"/>
      <point x="227" y="361" type="line"/>
      <point x="252" y="363"/>
      <point x="271" y="363"/>
      <point x="294" y="363" type="curve" smooth="yes"/>
      <point x="374" y="363"/>
      <point x="508" y="363"/>
      <point x="508" y="196" type="curve" smooth="yes"/>
      <point x="508" y="89"/>
      <point x="453" y="42"/>
    </contour>
    <contour>
      <point x="227" y="402" type="line"/>
      <point x="227" y="611" type="line" smooth="yes"/>
      <point x="227" y="637"/>
      <point x="233" y="651"/>
      <point x="236" y="656" type="curve" smooth="yes"/>
      <point x="248" y="676"/>
      <point x="288" y="681"/>
      <point x="322" y="681" type="curve" smooth="yes"/>
      <point x="431" y="681"/>
      <point x="471" y="629"/>
      <point x="471" y="547" type="curve" smooth="yes"/>
      <point x="471" y="404"/>
      <point x="352" y="402"/>
      <point x="261" y="402" type="curve" smooth="yes"/>
    </contour>
  </outline>
</glyph>
<glyph name="C" format="2">
  <advance width="654"/>
  <unicode hex="0043"/>
  <anchor x="325" y="-17" name="attachcedilla"/>
  <anchor x="349" y="813" name="top"/>
  <outline>
    <contour>
      <point x="337" y="-14" type="curve" smooth="yes"/>
      <point x="458" y="-14"/>
      <point x="563" y="58"/>
      <point x="615" y="192" type="curve"/>
      <point x="576" y="209" type="line"/>
      <point x="543" y="128"/>
      <point x="470" y="63"/>
      <point x="375" y="63" type="curve" smooth="yes"/>
      <point x="264" y="63"/>
      <point x="151" y="152"/>
      <point x="151" y="377" type="curve" smooth="yes"/>
      <point x="151" y="574"/>
      <point x="238" y="692"/>
      <point x="351" y="692" type="curve" smooth="yes"/>
      <point x="451" y="692"/>
      <point x="542" y="600"/>
      <point x="575" y="524" type="curve"/>
      <point x="615" y="541" type="line"/>
      <point x="554" y="729" type="line"/>
      <point x="537" y="723"/>
      <point x="502" y="709"/>
      <point x="481" y="709" type="curve" smooth="yes"/>
      <point x="453" y="709"/>
      <point x="423" y="735"/>
      <point x="355" y="735" type="curve" smooth="yes"/>
      <point x="157" y="735"/>
      <point x="43" y="513"/>
      <point x="43" y="324" type="curve" smooth="yes"/>
      <point x="43" y="128"/>
      <point x="166" y="-14"/>
    </contour>
  </outline>
</glyph>
<glyph name="D" format="2">
  <advance width="721"/>
  <unicode hex="0044"/>
  <anchor x="362" y="0" name="commaaccentbelow"/>
  <anchor x="335" y="0" name="dotbelow"/>
  <anchor x="307" y="813" name="top"/>
  <outline>
    <contour>
      <point x="32" y="0" type="line"/>
      <point x="291" y="0" type="line" smooth="yes"/>
      <point x="403" y="0"/>
      <point x="488" y="21"/>
      <point x="555" y="76" type="curve" smooth="yes"/>
      <point x="596" y="110"/>
      <point x="678" y="198"/>
      <point x="678" y="365" type="curve" smooth="yes"/>
      <point x="678" y="577"/>
      <point x="546" y="663"/>
      <point x="492" y="689" type="curve" smooth="yes"/>
      <point x="445" y="711"/>
      <point x="391" y="721"/>
      <point x="294" y="721" type="curve" smooth="yes"/>
      <point x="32" y="721" type="line"/>
      <point x="32" y="679" type="line"/>
      <point x="56" y="679" type="line" smooth="yes"/>
      <point x="111" y="679"/>
      <point x="126" y="662"/>
      <point x="126" y="599" type="curve" smooth="yes"/>
      <point x="126" y="131" type="line" smooth="yes"/>
      <point x="126" y="53"/>
      <point x="109" y="42"/>
      <point x="55" y="42" type="curve" smooth="yes"/>
      <point x="32" y="42" type="line"/>
    </contour>
    <contour>
      <point x="316" y="40" type="curve" smooth="yes"/>
      <point x="243" y="40"/>
      <point x="227" y="53"/>
      <point x="227" y="136" type="curve" smooth="yes"/>
      <point x="227" y="597" type="line" smooth="yes"/>
      <point x="227" y="664"/>
      <point x="247" y="681"/>
      <point x="320" y="681" type="curve" smooth="yes"/>
      <point x="495" y="681"/>
      <point x="566" y="583"/>
      <point x="566" y="369" type="curve" smooth="yes"/>
      <point x="566" y="72"/>
      <point x="430" y="40"/>
    </contour>
  </outline>
</glyph>
<glyph name="E" format="2">
  <advance width="670"/>
  <unicode hex="0045"/>
  <anchor x="305" y="-17" name="attachcedilla"/>
  <anchor x="308" y="0" name="dotbelow"/>
  <anchor x="387" y="0" name="ogonek"/>
  <anchor x="308" y="813" name="top"/>
  <outline>
    <contour>
      <point x="32" y="0" type="line"/>
      <point x="557" y="0" type="line"/>
      <point x="627" y="188" type="line"/>
      <point x="594" y="203" type="line"/>
      <point x="533" y="129"/>
      <point x="471" y="41"/>
      <point x="305" y="41" type="curve" smooth="yes"/>
      <point x="239" y="41"/>
      <point x="227" y="55"/>
      <point x="227" y="116" type="curve" smooth="yes"/>
      <point x="227" y="349" type="line"/>
      <point x="257" y="349" type="line" smooth="yes"/>
      <point x="385" y="349"/>
      <point x="397" y="310"/>
      <point x="413" y="225" type="curve"/>
      <point x="453" y="225" type="line"/>
      <point x="453" y="511" type="line"/>
      <point x="412" y="511" type="line"/>
      <point x="395" y="426"/>
      <point x="379" y="391"/>
      <point x="257" y="391" type="curve" smooth="yes"/>
      <point x="227" y="391" type="line"/>
      <point x="227" y="615" type="line" smooth="yes"/>
      <point x="227" y="669"/>
      <point x="250" y="679"/>
      <point x="315" y="679" type="curve" smooth="yes"/>
      <point x="424" y="679"/>
      <point x="485" y="651"/>
      <point x="568" y="533" type="curve"/>
      <point x="605" y="546" type="line"/>
      <point x="542" y="721" type="line"/>
      <point x="32" y="721" type="line"/>
      <point x="32" y="679" type="line"/>
      <point x="56" y="679" type="line" smooth="yes"/>
      <point x="111" y="679"/>
      <point x="126" y="662"/>
      <point x="126" y="599" type="curve" smooth="yes"/>
      <point x="126" y="131" type="line" smooth="yes"/>
      <point x="126" y="53"/>
      <point x="109" y="42"/>
      <point x="55" y="42" type="curve" smooth="yes"/>
      <point x="32" y="42" type="line"/>
    </contour>
  </outline>
</glyph>
<glyph name="F" format="2">
  <advance width="613"/>
  <unicode hex="0046"/>
  <anchor x="308" y="813" name="top"/>
  <outline>
    <contour>
      <point x="32" y="0" type="line"/>
      <point x="328" y="0" type="line"/>
      <point x="328" y="42" type="line"/>
      <point x="298" y="42" type="line" smooth="yes"/>
      <point x="244" y="42"/>
      <point x="227" y="53"/>
      <point x="227" y="131" type="curve" smooth="yes"/>
      <point x="227" y="349" type="line"/>
      <point x="257" y="349" type="line" smooth="yes"/>
      <point x="385" y="349"/>
      <point x="404" y="308"/>
      <point x="413" y="225" type="curve"/>
      <point x="451" y="225" type="line"/>
      <point x="451" y="511" type="line"/>
      <point x="413" y="511" type="line"/>
      <point x="406" y="429"/>
      <point x="369" y="390"/>
      <point x="257" y="390" type="curve" smooth="yes"/>
      <point x="227" y="390" type="line"/>
      <point x="227" y="615" type="line" smooth="yes"/>
      <point x="227" y="670"/>
      <point x="261" y="679"/>
      <point x="320" y="679" type="curve" smooth="yes"/>
      <point x="429" y="679"/>
      <point x="491" y="648"/>
      <point x="573" y="529" type="curve"/>
      <point x="608" y="542" type="line"/>
      <point x="541" y="721" type="line"/>
      <point x="32" y="721" type="line"/>
      <point x="32" y="679" type="line"/>
      <point x="56" y="679" type="line" smooth="yes"/>
      <point x="111" y="679"/>
      <point x="126" y="662"/>
      <point x="126" y="599" type="curve" smooth="yes"/>
      <point x="126" y="131" type="line" smooth="yes"/>
      <point x="126" y="53"/>
      <point x="109" y="42"/>
      <point x="55" y="42" type="curve" smooth="yes"/>
      <point x="32" y="42" type="line"/>
    </contour>
  </outline>
</glyph>
<glyph name="G" format="2">
  <advance width="730"/>
  <unicode hex="0047"/>
  <anchor x="356" y="0" name="commaaccentbelow"/>
  <anchor x="347" y="813" name="top"/>
  <outline>
    <contour>
      <point x="361" y="-14" type="curve" smooth="yes"/>
      <point x="460" y="-14"/>
      <point x="494" y="27"/>
      <point x="582" y="27" type="curve" smooth="yes"/>
      <point x="588" y="27"/>
      <point x="596" y="27"/>
      <point x="604" y="26" type="curve"/>
      <point x="604" y="198" type="line" smooth="yes"/>
      <point x="604" y="253"/>
      <point x="615" y="279"/>
      <point x="669" y="279" type="curve" smooth="yes"/>
      <point x="691" y="279" type="line"/>
      <point x="691" y="321" type="line"/>
      <point x="408" y="321" type="line"/>
      <point x="408" y="279" type="line"/>
      <point x="424" y="279" type="line" smooth="yes"/>
      <point x="494" y="279"/>
      <point x="508" y="266"/>
      <point x="508" y="196" type="curve" smooth="yes"/>
      <point x="508" y="150" type="line" smooth="yes"/>
      <point x="508" y="76"/>
      <point x="446" y="26"/>
      <point x="362" y="26" type="curve" smooth="yes"/>
      <point x="240" y="26"/>
      <point x="155" y="132"/>
      <point x="155" y="350" type="curve" smooth="yes"/>
      <point x="155" y="562"/>
      <point x="236" y="695"/>
      <point x="360" y="695" type="curve" smooth="yes"/>
      <point x="463" y="695"/>
      <point x="541" y="604"/>
      <point x="586" y="534" type="curve"/>
      <point x="623" y="552" type="line"/>
      <point x="556" y="734" type="line"/>
      <point x="536" y="728"/>
      <point x="502" y="714"/>
      <point x="480" y="714" type="curve" smooth="yes"/>
      <point x="454" y="714"/>
      <point x="418" y="735"/>
      <point x="357" y="735" type="curve" smooth="yes"/>
      <point x="177" y="735"/>
      <point x="43" y="552"/>
      <point x="43" y="344" type="curve" smooth="yes"/>
      <point x="43" y="146"/>
      <point x="165" y="-14"/>
    </contour>
  </outline>
</glyph>
<glyph name="I" format="2">
  <advance width="354"/>
  <unicode hex="0049"/>
  <anchor x="177" y="0" name="dotbelow"/>
  <anchor x="173" y="0" name="ogonek"/>
  <anchor x="177" y="813" name="top"/>
  <outline>
    <contour>
      <point x="32" y="0" type="line"/>
      <point x="321" y="0" type="line"/>
      <point x="321" y="42" type="line"/>
      <point x="298" y="42" type="line" smooth="yes"/>
      <point x="244" y="42"/>
      <point x="227" y="53"/>
      <point x="227" y="131" type="curve" smooth="yes"/>
      <point x="227" y="599" type="line" smooth="yes"/>
      <point x="227" y="662"/>
      <point x="242" y="679"/>
      <point x="297" y="679" type="curve" smooth="yes"/>
      <point x="321" y="679" type="line"/>
      <point x="321" y="721" type="line"/>
      <point x="32" y="721" type="line"/>
      <point x="32" y="679" type="line"/>
      <point x="56" y="679" type="line" smooth="yes"/>
      <point x="111" y="679"/>
      <point x="126" y="662"/>
      <point x="126" y="599" type="curve" smooth="yes"/>
      <point x="126" y="131" type="line" smooth="yes"/>
      <point x="126" y="53"/>
      <point x="109" y="42"/>
      <point x="55" y="42" type="curve" smooth="yes"/>
      <point x="32" y="42" type="line"/>
    </contour>
  </outline>
</glyph>
<glyph name="J" format="2">
  <advance width="368"/>
  <unicode hex="004A"/>
  <anchor x="188" y="813" name="top"/>
  <outline>
    <contour>
      <point x="54" y="-166" type="curve" smooth="yes"/>
      <point x="116" y="-166"/>
      <point x="162" y="-137"/>
      <point x="194" y="-93" type="curve" smooth="yes"/>
      <point x="234" y="-38"/>
      <point x="244" y="30"/>
      <point x="244" y="99" type="curve" smooth="yes"/>
      <point x="244" y="599" type="line" smooth="yes"/>
      <point x="244" y="662"/>
      <point x="259" y="679"/>
      <point x="315" y="679" type="curve" smooth="yes"/>
      <point x="338" y="679" type="line"/>
      <point x="338" y="721" type="line"/>
      <point x="43" y="721" type="line"/>
      <point x="43" y="679" type="line"/>
      <point x="74" y="679" type="line" smooth="yes"/>
      <point x="129" y="679"/>
      <point x="144" y="662"/>
      <point x="144" y="599" type="curve" smooth="yes"/>
      <point x="144" y="-17" type="line" smooth="yes"/>
      <point x="144" y="-62"/>
      <point x="137" y="-107"/>
      <point x="101" y="-107" type="curve" smooth="yes"/>
      <point x="81" y="-107"/>
      <point x="81" y="-92"/>
      <point x="74" y="-74" type="curve" smooth="yes"/>
      <point x="67" y="-56"/>
      <point x="50" y="-27"/>
      <point x="13" y="-27" type="curve" smooth="yes"/>
      <point x="-26" y="-27"/>
      <point x="-51" y="-59"/>
      <point x="-51" y="-91" type="curve" smooth="yes"/>
      <point x="-51" y="-129"/>
      <point x="-15" y="-166"/>
    </contour>
  </outline>
</glyph>
<glyph name="K" format="2">
  <advance width="703"/>
  <unicode hex="004B"/>
  <anchor x="354" y="0" name="commaaccentbelow"/>
  <anchor x="354" y="0" name="dotbelow"/>
  <anchor x="351" y="813" name="top"/>
  <outline>
    <contour>
      <point x="32" y="0" type="line"/>
      <point x="314" y="0" type="line"/>
      <point x="314" y="42" type="line"/>
      <point x="298" y="42" type="line" smooth="yes"/>
      <point x="244" y="42"/>
      <point x="227" y="53"/>
      <point x="227" y="131" type="curve" smooth="yes"/>
      <point x="227" y="285" type="line"/>
      <point x="316" y="375" type="line"/>
      <point x="477" y="128" type="line" smooth="yes"/>
      <point x="496" y="99"/>
      <point x="510" y="76"/>
      <point x="510" y="63" type="curve" smooth="yes"/>
      <point x="510" y="42"/>
      <point x="470" y="42"/>
      <point x="452" y="42" type="curve" smooth="yes"/>
      <point x="432" y="42" type="line"/>
      <point x="432" y="0" type="line"/>
      <point x="710" y="0" type="line"/>
      <point x="710" y="42" type="line"/>
      <point x="672" y="42"/>
      <point x="643" y="48"/>
      <point x="608" y="103" type="curve" smooth="yes"/>
      <point x="388" y="450" type="line"/>
      <point x="536" y="602" type="line" smooth="yes"/>
      <point x="592" y="659"/>
      <point x="624" y="679"/>
      <point x="675" y="679" type="curve"/>
      <point x="675" y="721" type="line"/>
      <point x="426" y="721" type="line"/>
      <point x="426" y="679" type="line"/>
      <point x="452" y="679" type="line" smooth="yes"/>
      <point x="478" y="679"/>
      <point x="498" y="671"/>
      <point x="498" y="653" type="curve" smooth="yes"/>
      <point x="498" y="636"/>
      <point x="482" y="615"/>
      <point x="462" y="594" type="curve" smooth="yes"/>
      <point x="227" y="346" type="line"/>
      <point x="227" y="599" type="line" smooth="yes"/>
      <point x="227" y="662"/>
      <point x="242" y="679"/>
      <point x="297" y="679" type="curve" smooth="yes"/>
      <point x="314" y="679" type="line"/>
      <point x="314" y="721" type="line"/>
      <point x="32" y="721" type="line"/>
      <point x="32" y="679" type="line"/>
      <point x="56" y="679" type="line" smooth="yes"/>
      <point x="111" y="679"/>
      <point x="126" y="662"/>
      <point x="126" y="599" type="curve" smooth="yes"/>
      <point x="126" y="131" type="line" smooth="yes"/>
      <point x="126" y="53"/>
      <point x="109" y="42"/>
      <point x="55" y="42" type="curve" smooth="yes"/>
      <point x="32" y="42" type="line"/>
    </contour>
  </outline>
</glyph>
<glyph name="L" format="2">
  <advance width="605"/>
  <unicode hex="004C"/>
  <anchor x="478" y="735" name="caroncombalt"/>
  <anchor x="304" y="0" name="commaaccentbelow"/>
  <anchor x="305" y="0" name="dotbelow"/>
  <anchor x="411" y="292" name="ldot"/>
  <anchor x="177" y="813" name="top"/>
  <outline>
    <contour>
      <point x="32" y="0" type="line"/>
      <point x="538" y="0" type="line"/>
      <point x="605" y="187" type="line"/>
      <point x="570" y="202" type="line"/>
      <point x="548" y="170"/>
      <point x="526" y="145"/>
      <point x="496" y="117" type="curve" smooth="yes"/>
      <point x="437" y="63"/>
      <point x="396" y="44"/>
      <point x="311" y="44" type="curve" smooth="yes"/>
      <point x="245" y="44"/>
      <point x="227" y="55"/>
      <point x="227" y="116" type="curve" smooth="yes"/>
      <point x="227" y="599" type="line" smooth="yes"/>
      <point x="227" y="662"/>
      <point x="242" y="679"/>
      <point x="297" y="679" type="curve" smooth="yes"/>
      <point x="321" y="679" type="line"/>
      <point x="321" y="721" type="line"/>
      <point x="32" y="721" type="line"/>
      <point x="32" y="679" type="line"/>
      <point x="56" y="679" type="line" smooth="yes"/>
      <point x="111" y="679"/>
      <point x="126" y="662"/>
      <point x="126" y="599" type="curve" smooth="yes"/>
      <point x="126" y="131" type="line" smooth="yes"/>
      <point x="126" y="53"/>
      <point x="109" y="42"/>
      <point x="55" y="42" type="curve" smooth="yes"/>
      <point x="32" y="42" type="line"/>
    </contour>
  </outline>
</glyph>
<glyph name="M" format="2">
  <advance width="908"/>
  <unicode hex="004D"/>
  <anchor x="430" y="0" name="dotbelow"/>
  <anchor x="450" y="813" name="top"/>
  <outline>
    <contour>
      <point x="32" y="0" type="line"/>
      <point x="271" y="0" type="line"/>
      <point x="271" y="42" type="line"/>
      <point x="195" y="42"/>
      <point x="177" y="76"/>
      <point x="177" y="171" type="curve" smooth="yes"/>
      <point x="177" y="644" type="line"/>
      <point x="414" y="0" type="line"/>
      <point x="445" y="0" type="line"/>
      <point x="681" y="653" type="line"/>
      <point x="681" y="131" type="line" smooth="yes"/>
      <point x="681" y="53"/>
      <point x="664" y="42"/>
      <point x="610" y="42" type="curve" smooth="yes"/>
      <point x="587" y="42" type="line"/>
      <point x="587" y="0" type="line"/>
      <point x="876" y="0" type="line"/>
      <point x="876" y="42" type="line"/>
      <point x="853" y="42" type="line" smooth="yes"/>
      <point x="799" y="42"/>
      <point x="782" y="53"/>
      <point x="782" y="131" type="curve" smooth="yes"/>
      <point x="782" y="599" type="line" smooth="yes"/>
      <point x="782" y="662"/>
      <point x="797" y="679"/>
      <point x="852" y="679" type="curve" smooth="yes"/>
      <point x="876" y="679" type="line"/>
      <point x="876" y="721" type="line"/>
      <point x="658" y="721" type="line"/>
      <point x="457" y="171" type="line"/>
      <point x="254" y="721" type="line"/>
      <point x="32" y="721" type="line"/>
      <point x="32" y="679" type="line"/>
      <point x="54" y="679" type="line" smooth="yes"/>
      <point x="108" y="679"/>
      <point x="126" y="667"/>
      <point x="126" y="598" type="curve" smooth="yes"/>
      <point x="126" y="171" type="line" smooth="yes"/>
      <point x="126" y="88"/>
      <point x="107" y="42"/>
      <point x="32" y="42" type="curve"/>
    </contour>
  </outline>
</glyph>
<glyph name="N" format="2">
  <advance width="738"/>
  <unicode hex="004E"/>
  <anchor x="375" y="0" name="commaaccentbelow"/>
  <anchor x="375" y="0" name="dotbelow"/>
  <anchor x="362" y="813" name="top"/>
  <outline>
    <contour>
      <point x="586" y="-14" type="line"/>
      <point x="619" y="-14" type="line"/>
      <point x="619" y="550" type="line" smooth="yes"/>
      <point x="619" y="634"/>
      <point x="634" y="675"/>
      <point x="714" y="679" type="curve"/>
      <point x="714" y="721" type="line"/>
      <point x="475" y="721" type="line"/>
      <point x="475" y="679" type="line"/>
      <point x="555" y="672"/>
      <point x="569" y="640"/>
      <point x="569" y="545" type="curve" smooth="yes"/>
      <point x="569" y="194" type="line"/>
      <point x="202" y="721" type="line"/>
      <point x="32" y="721" type="line"/>
      <point x="32" y="677" type="line"/>
      <point x="78" y="677"/>
      <point x="110" y="656"/>
      <point x="126" y="637" type="curve"/>
      <point x="126" y="171" type="line" smooth="yes"/>
      <point x="126" y="88"/>
      <point x="107" y="42"/>
      <point x="32" y="42" type="curve"/>
      <point x="32" y="0" type="line"/>
      <point x="271" y="0" type="line"/>
      <point x="271" y="42" type="line"/>
      <point x="195" y="42"/>
      <point x="177" y="86"/>
      <point x="177" y="182" type="curve" smooth="yes"/>
      <point x="177" y="591" type="line"/>
    </contour>
  </outline>
</glyph>
<glyph name="O" format="2">
  <advance width="707"/>
  <unicode hex="004F"/>
  <anchor x="563" y="592" name="attachhorn"/>
  <anchor x="354" y="0" name="dotbelow"/>
  <anchor x="398" y="0" name="ogonek"/>
  <anchor x="354" y="813" name="top"/>
  <outline>
    <contour>
      <point x="354" y="-14" type="curve" smooth="yes"/>
      <point x="525" y="-14"/>
      <point x="664" y="155"/>
      <point x="664" y="361" type="curve" smooth="yes"/>
      <point x="664" y="568"/>
      <point x="524" y="735"/>
      <point x="354" y="735" type="curve" smooth="yes"/>
      <point x="183" y="735"/>
      <point x="43" y="568"/>
      <point x="43" y="361" type="curve" smooth="yes"/>
      <point x="43" y="154"/>
      <point x="183" y="-14"/>
    </contour>
    <contour>
      <point x="353" y="26" type="curve" smooth="yes"/>
      <point x="241" y="26"/>
      <point x="155" y="152"/>
      <point x="155" y="362" type="curve" smooth="yes"/>
      <point x="155" y="571"/>
      <point x="241" y="695"/>
      <point x="353" y="695" type="curve" smooth="yes"/>
      <point x="466" y="695"/>
      <point x="552" y="570"/>
      <point x="552" y="362" type="curve" smooth="yes"/>
      <point x="552" y="153"/>
      <point x="466" y="26"/>
    </contour>
  </outline>
</glyph>
<glyph name="P" format="2">
  <advance width="621"/>
  <unicode hex="0050"/>
  <anchor x="302" y="813" name="top"/>
  <outline>
    <contour>
      <point x="32" y="0" type="line"/>
      <point x="328" y="0" type="line"/>
      <point x="328" y="42" type="line"/>
      <point x="298" y="42" type="line" smooth="yes"/>
      <point x="244" y="42"/>
      <point x="227" y="53"/>
      <point x="227" y="131" type="curve" smooth="yes"/>
      <point x="227" y="332" type="line"/>
      <point x="261" y="332" type="line" smooth="yes"/>
      <point x="349" y="332"/>
      <point x="430" y="332"/>
      <point x="493" y="365" type="curve" smooth="yes"/>
      <point x="552" y="396"/>
      <point x="588" y="451"/>
      <point x="588" y="522" type="curve" smooth="yes"/>
      <point x="588" y="630"/>
      <point x="506" y="683"/>
      <point x="457" y="701" type="curve" smooth="yes"/>
      <point x="424" y="713"/>
      <point x="373" y="721"/>
      <point x="294" y="721" type="curve" smooth="yes"/>
      <point x="32" y="721" type="line"/>
      <point x="32" y="679" type="line"/>
      <point x="56" y="679" type="line" smooth="yes"/>
      <point x="111" y="679"/>
      <point x="126" y="662"/>
      <point x="126" y="599" type="curve" smooth="yes"/>
      <point x="126" y="131" type="line" smooth="yes"/>
      <point x="126" y="53"/>
      <point x="109" y="42"/>
      <point x="55" y="42" type="curve" smooth="yes"/>
      <point x="32" y="42" type="line"/>
    </contour>
    <contour>
      <point x="227" y="376" type="line"/>
      <point x="227" y="611" type="line" smooth="yes"/>
      <point x="227" y="637"/>
      <point x="233" y="651"/>
      <point x="236" y="656" type="curve" smooth="yes"/>
      <point x="248" y="676"/>
      <point x="289" y="681"/>
      <point x="321" y="681" type="curve" smooth="yes"/>
      <point x="431" y="681"/>
      <point x="477" y="622"/>
      <point x="477" y="526" type="curve" smooth="yes"/>
      <point x="477" y="376"/>
      <point x="364" y="376"/>
      <point x="285" y="376" type="curve" smooth="yes"/>
    </contour>
  </outline>
</glyph>
<glyph name="Q" format="2">
  <advance width="708"/>
  <unicode hex="0051"/>
  <anchor x="354" y="813" name="top"/>
  <outline>
    <contour>
      <point x="552" y="-121" type="curve" smooth="yes"/>
      <point x="614" y="-121"/>
      <point x="660" y="-83"/>
      <point x="682" y="-51" type="curve"/>
      <point x="662" y="-27" type="line"/>
      <point x="646" y="-38"/>
      <point x="631" y="-50"/>
      <point x="612" y="-50" type="curve" smooth="yes"/>
      <point x="574" y="-50"/>
      <point x="538" y="-1"/>
      <point x="514" y="39" type="curve"/>
      <point x="592" y="95"/>
      <point x="665" y="190"/>
      <point x="665" y="354" type="curve" smooth="yes"/>
      <point x="665" y="569"/>
      <point x="540" y="735"/>
      <point x="357" y="735" type="curve" smooth="yes"/>
      <point x="172" y="735"/>
      <point x="43" y="566"/>
      <point x="43" y="354" type="curve" smooth="yes"/>
      <point x="43" y="142"/>
      <point x="172" y="-14"/>
      <point x="348" y="-14" type="curve" smooth="yes"/>
      <point x="379" y="-14"/>
      <point x="404" y="-9"/>
      <point x="428" y="-1" type="curve"/>
      <point x="449" y="-77"/>
      <point x="485" y="-121"/>
    </contour>
    <contour>
      <point x="353" y="26" type="curve" smooth="yes"/>
      <point x="274" y="26"/>
      <point x="230" y="69"/>
      <point x="230" y="109" type="curve" smooth="yes"/>
      <point x="230" y="143"/>
      <point x="262" y="172"/>
      <point x="301" y="172" type="curve" smooth="yes"/>
      <point x="351" y="172"/>
      <point x="400" y="124"/>
      <point x="416" y="39" type="curve"/>
      <point x="397" y="29"/>
      <point x="374" y="26"/>
    </contour>
    <contour>
      <point x="481" y="81" type="curve"/>
      <point x="428" y="162"/>
      <point x="375" y="212"/>
      <point x="300" y="212" type="curve" smooth="yes"/>
      <point x="235" y="212"/>
      <point x="206" y="174"/>
      <point x="198" y="124" type="curve"/>
      <point x="176" y="181"/>
      <point x="155" y="256"/>
      <point x="155" y="365" type="curve" smooth="yes"/>
      <point x="155" y="578"/>
      <point x="236" y="695"/>
      <point x="357" y="695" type="curve" smooth="yes"/>
      <point x="495" y="695"/>
      <point x="552" y="545"/>
      <point x="552" y="359" type="curve" smooth="yes"/>
      <point x="552" y="231"/>
      <point x="525" y="133"/>
    </contour>
  </outline>
</glyph>
<glyph name="R" format="2">
  <advance width="645"/>
  <unicode hex="0052"/>
  <anchor x="330" y="0" name="commaaccentbelow"/>
  <anchor x="332" y="0" name="dotbelow"/>
  <anchor x="302" y="813" name="top"/>
  <outline>
    <contour>
      <point x="32" y="0" type="line"/>
      <point x="314" y="0" type="line"/>
      <point x="314" y="42" type="line"/>
      <point x="298" y="42" type="line" smooth="yes"/>
      <point x="244" y="42"/>
      <point x="227" y="53"/>
      <point x="227" y="131" type="curve" smooth="yes"/>
      <point x="227" y="346" type="line"/>
      <point x="297" y="346" type="line"/>
      <point x="486" y="0" type="line"/>
      <point x="658" y="0" type="line"/>
      <point x="658" y="42" type="line"/>
      <point x="643" y="42" type="line" smooth="yes"/>
      <point x="582" y="42"/>
      <point x="564" y="61"/>
      <point x="521" y="139" type="curve" smooth="yes"/>
      <point x="401" y="358" type="line"/>
      <point x="525" y="366"/>
      <point x="591" y="452"/>
      <point x="591" y="540" type="curve" smooth="yes"/>
      <point x="591" y="625"/>
      <point x="529" y="680"/>
      <point x="459" y="703" type="curve" smooth="yes"/>
      <point x="423" y="715"/>
      <point x="377" y="721"/>
      <point x="294" y="721" type="curve" smooth="yes"/>
      <point x="32" y="721" type="line"/>
      <point x="32" y="679" type="line"/>
      <point x="56" y="679" type="line" smooth="yes"/>
      <point x="111" y="679"/>
      <point x="126" y="662"/>
      <point x="126" y="599" type="curve" smooth="yes"/>
      <point x="126" y="131" type="line" smooth="yes"/>
      <point x="126" y="53"/>
      <point x="109" y="42"/>
      <point x="55" y="42" type="curve" smooth="yes"/>
      <point x="32" y="42" type="line"/>
    </contour>
    <contour>
      <point x="227" y="388" type="line"/>
      <point x="227" y="611" type="line" smooth="yes"/>
      <point x="227" y="636"/>
      <point x="233" y="650"/>
      <point x="237" y="656" type="curve" smooth="yes"/>
      <point x="250" y="676"/>
      <point x="276" y="681"/>
      <point x="313" y="681" type="curve" smooth="yes"/>
      <point x="413" y="681"/>
      <point x="480" y="644"/>
      <point x="480" y="539" type="curve" smooth="yes"/>
      <point x="480" y="438"/>
      <point x="417" y="388"/>
      <point x="317" y="388" type="curve" smooth="yes"/>
    </contour>
  </outline>
</glyph>
<glyph name="S" format="2">
  <advance width="568"/>
  <unicode hex="0053"/>
  <anchor x="290" y="-17" name="attachcedilla"/>
  <anchor x="308" y="0" name="commaaccentbelow"/>
  <anchor x="303" y="0" name="dotbelow"/>
  <anchor x="269" y="813" name="top"/>
  <outline>
    <contour>
      <point x="107" y="-14" type="line"/>
      <point x="136" y="3"/>
      <point x="158" y="23"/>
      <point x="179" y="23" type="curve" smooth="yes"/>
      <point x="207" y="23"/>
      <point x="247" y="-14"/>
      <point x="326" y="-14" type="curve" smooth="yes"/>
      <point x="474" y="-14"/>
      <point x="532" y="115"/>
      <point x="532" y="216" type="curve" smooth="yes"/>
      <point x="532" y="479"/>
      <point x="137" y="369"/>
      <point x="137" y="566" type="curve" smooth="yes"/>
      <point x="137" y="631"/>
      <point x="180" y="689"/>
      <point x="260" y="689" type="curve" smooth="yes"/>
      <point x="366" y="689"/>
      <point x="438" y="587"/>
      <point x="477" y="525" type="curve"/>
      <point x="511" y="548" type="line"/>
      <point x="444" y="735" type="line"/>
      <point x="424" y="726"/>
      <point x="401" y="709"/>
      <point x="380" y="709" type="curve" smooth="yes"/>
      <point x="353" y="709"/>
      <point x="306" y="735"/>
      <point x="251" y="735" type="curve" smooth="yes"/>
      <point x="148" y="735"/>
      <point x="64" y="646"/>
      <point x="64" y="526" type="curve" smooth="yes"/>
      <point x="64" y="268"/>
      <point x="455" y="380"/>
      <point x="455" y="169" type="curve" smooth="yes"/>
      <point x="455" y="84"/>
      <point x="391" y="32"/>
      <point x="318" y="32" type="curve" smooth="yes"/>
      <point x="222" y="32"/>
      <point x="119" y="123"/>
      <point x="70" y="199" type="curve"/>
      <point x="36" y="182" type="line"/>
    </contour>
  </outline>
</glyph>
<glyph name="T" format="2">
  <advance width="641"/>
  <unicode hex="0054"/>
  <anchor x="303" y="-17" name="attachcedilla"/>
  <anchor x="322" y="0" name="commaaccentbelow"/>
  <anchor x="320" y="0" name="dotbelow"/>
  <anchor x="320" y="813" name="top"/>
  <outline>
    <contour>
      <point x="170" y="0" type="line"/>
      <point x="471" y="0" type="line"/>
      <point x="471" y="42" type="line"/>
      <point x="442" y="42" type="line" smooth="yes"/>
      <point x="388" y="42"/>
      <point x="371" y="53"/>
      <point x="371" y="131" type="curve" smooth="yes"/>
      <point x="371" y="615" type="line" smooth="yes"/>
      <point x="371" y="664"/>
      <point x="371" y="679"/>
      <point x="411" y="679" type="curve" smooth="yes"/>
      <point x="469" y="679"/>
      <point x="533" y="647"/>
      <point x="611" y="526" type="curve"/>
      <point x="649" y="542" type="line"/>
      <point x="595" y="721" type="line"/>
      <point x="46" y="721" type="line"/>
      <point x="-8" y="542" type="line"/>
      <point x="30" y="526" type="line"/>
      <point x="108" y="647"/>
      <point x="172" y="679"/>
      <point x="230" y="679" type="curve" smooth="yes"/>
      <point x="270" y="679"/>
      <point x="270" y="664"/>
      <point x="270" y="615" type="curve" smooth="yes"/>
      <point x="270" y="131" type="line" smooth="yes"/>
      <point x="270" y="53"/>
      <point x="253" y="42"/>
      <point x="199" y="42" type="curve" smooth="yes"/>
      <point x="170" y="42" type="line"/>
    </contour>
  </outline>
</glyph>
<glyph name="U" format="2">
  <advance width="757"/>
  <unicode hex="0055"/>
  <anchor x="716" y="592" name="attachhorn"/>
  <anchor x="384" y="0" name="dotbelow"/>
  <anchor x="470" y="0" name="ogonek"/>
  <anchor x="378" y="813" name="top"/>
  <outline>
    <contour>
      <point x="377" y="-16" type="curve" smooth="yes"/>
      <point x="493" y="-16"/>
      <point x="570" y="25"/>
      <point x="604" y="103" type="curve" smooth="yes"/>
      <point x="623" y="145"/>
      <point x="630" y="201"/>
      <point x="630" y="271" type="curve" smooth="yes"/>
      <point x="630" y="560" type="line" smooth="yes"/>
      <point x="630" y="646"/>
      <point x="654" y="675"/>
      <point x="724" y="679" type="curve"/>
      <point x="724" y="721" type="line"/>
      <point x="485" y="721" type="line"/>
      <point x="485" y="679" type="line"/>
      <point x="556" y="675"/>
      <point x="579" y="646"/>
      <point x="579" y="560" type="curve" smooth="yes"/>
      <point x="579" y="267" type="line" smooth="yes"/>
      <point x="579" y="215"/>
      <point x="576" y="169"/>
      <point x="562" y="131" type="curve" smooth="yes"/>
      <point x="535" y="58"/>
      <point x="470" y="30"/>
      <point x="401" y="30" type="curve" smooth="yes"/>
      <point x="358" y="30"/>
      <point x="305" y="41"/>
      <point x="266" y="90" type="curve" smooth="yes"/>
      <point x="242" y="120"/>
      <point x="227" y="158"/>
      <point x="227" y="228" type="curve" smooth="yes"/>
      <point x="227" y="599" type="line" smooth="yes"/>
      <point x="227" y="662"/>
      <point x="242" y="679"/>
      <point x="297" y="679" type="curve" smooth="yes"/>
      <point x="321" y="679" type="line"/>
      <point x="321" y="721" type="line"/>
      <point x="32" y="721" type="line"/>
      <point x="32" y="679" type="line"/>
      <point x="56" y="679" type="line" smooth="yes"/>
      <point x="111" y="679"/>
      <point x="126" y="662"/>
      <point x="126" y="599" type="curve" smooth="yes"/>
      <point x="126" y="230" type="line" smooth="yes"/>
      <point x="126" y="96"/>
      <point x="183" y="-16"/>
    </contour>
  </outline>
</glyph>
<glyph name="V" format="2">
  <advance width="632"/>
  <unicode hex="0056"/>
  <anchor x="317" y="0" name="dotbelow"/>
  <anchor x="328" y="813" name="top"/>
  <outline>
    <contour>
      <point x="298" y="-22" type="line"/>
      <point x="332" y="-22" type="line"/>
      <point x="534" y="562" type="line" smooth="yes"/>
      <point x="562" y="643"/>
      <point x="571" y="677"/>
      <point x="640" y="679" type="curve"/>
      <point x="640" y="721" type="line"/>
      <point x="417" y="721" type="line"/>
      <point x="417" y="679" type="line"/>
      <point x="474" y="679"/>
      <point x="496" y="662"/>
      <point x="496" y="626" type="curve" smooth="yes"/>
      <point x="496" y="611"/>
      <point x="492" y="596"/>
      <point x="480" y="560" type="curve" smooth="yes"/>
      <point x="343" y="147" type="line"/>
      <point x="195" y="599" type="line" smooth="yes"/>
      <point x="184" y="633"/>
      <point x="185" y="634"/>
      <point x="185" y="646" type="curve" smooth="yes"/>
      <point x="185" y="675"/>
      <point x="216" y="679"/>
      <point x="240" y="679" type="curve" smooth="yes"/>
      <point x="264" y="679" type="line"/>
      <point x="264" y="721" type="line"/>
      <point x="-8" y="721" type="line"/>
      <point x="-8" y="679" type="line"/>
      <point x="46" y="679"/>
      <point x="67" y="669"/>
      <point x="90" y="599" type="curve" smooth="yes"/>
    </contour>
  </outline>
</glyph>
<glyph name="W" format="2">
  <advance width="853"/>
  <unicode hex="0057"/>
  <anchor x="424" y="0" name="dotbelow"/>
  <anchor x="434" y="813" name="top"/>
  <outline>
    <contour>
      <point x="240" y="-22" type="line"/>
      <point x="272" y="-22" type="line"/>
      <point x="424" y="506" type="line"/>
      <point x="571" y="-22" type="line"/>
      <point x="598" y="-22" type="line"/>
      <point x="772" y="568" type="line" smooth="yes"/>
      <point x="798" y="656"/>
      <point x="802" y="676"/>
      <point x="859" y="679" type="curve"/>
      <point x="859" y="721" type="line"/>
      <point x="654" y="721" type="line"/>
      <point x="654" y="679" type="line"/>
      <point x="676" y="679" type="line" smooth="yes"/>
      <point x="716" y="679"/>
      <point x="735" y="668"/>
      <point x="735" y="637" type="curve" smooth="yes"/>
      <point x="735" y="624"/>
      <point x="732" y="609"/>
      <point x="718" y="560" type="curve" smooth="yes"/>
      <point x="611" y="184" type="line"/>
      <point x="501" y="599" type="line" smooth="yes"/>
      <point x="492" y="633"/>
      <point x="491" y="637"/>
      <point x="491" y="643" type="curve" smooth="yes"/>
      <point x="491" y="675"/>
      <point x="521" y="679"/>
      <point x="549" y="679" type="curve" smooth="yes"/>
      <point x="573" y="679" type="line"/>
      <point x="573" y="721" type="line"/>
      <point x="291" y="721" type="line"/>
      <point x="291" y="679" type="line"/>
      <point x="368" y="679"/>
      <point x="378" y="680"/>
      <point x="402" y="590" type="curve"/>
      <point x="282" y="184" type="line"/>
      <point x="173" y="599" type="line" smooth="yes"/>
      <point x="162" y="641"/>
      <point x="160" y="646"/>
      <point x="160" y="654" type="curve" smooth="yes"/>
      <point x="160" y="679"/>
      <point x="182" y="679"/>
      <point x="211" y="679" type="curve" smooth="yes"/>
      <point x="245" y="679" type="line"/>
      <point x="245" y="721" type="line"/>
      <point x="-8" y="721" type="line"/>
      <point x="-8" y="679" type="line"/>
      <point x="46" y="679"/>
      <point x="48" y="670"/>
      <point x="68" y="599" type="curve" smooth="yes"/>
    </contour>
  </outline>
</glyph>
<glyph name="X" format="2">
  <advance width="632"/>
  <unicode hex="0058"/>
  <anchor x="324" y="813" name="top"/>
  <outline>
    <contour>
      <point x="-8" y="0" type="line"/>
      <point x="249" y="0" type="line"/>
      <point x="249" y="42" type="line"/>
      <point x="222" y="42" type="line" smooth="yes"/>
      <point x="180" y="42"/>
      <point x="171" y="59"/>
      <point x="171" y="77" type="curve" smooth="yes"/>
      <point x="171" y="97"/>
      <point x="181" y="118"/>
      <point x="187" y="128" type="curve" smooth="yes"/>
      <point x="297" y="310" type="line"/>
      <point x="411" y="112" type="line" smooth="yes"/>
      <point x="418" y="100"/>
      <point x="432" y="74"/>
      <point x="432" y="62" type="curve" smooth="yes"/>
      <point x="432" y="46"/>
      <point x="406" y="42"/>
      <point x="383" y="42" type="curve" smooth="yes"/>
      <point x="354" y="42" type="line"/>
      <point x="354" y="0" type="line"/>
      <point x="640" y="0" type="line"/>
      <point x="640" y="42" type="line"/>
      <point x="574" y="42"/>
      <point x="554" y="66"/>
      <point x="524" y="117" type="curve" smooth="yes"/>
      <point x="359" y="399" type="line"/>
      <point x="488" y="594" type="line" smooth="yes"/>
      <point x="539" y="671"/>
      <point x="565" y="679"/>
      <point x="611" y="679" type="curve" smooth="yes"/>
      <point x="617" y="679" type="line"/>
      <point x="617" y="721" type="line"/>
      <point x="376" y="721" type="line"/>
      <point x="376" y="679" type="line"/>
      <point x="384" y="679" type="line" smooth="yes"/>
      <point x="438" y="679"/>
      <point x="448" y="662"/>
      <point x="448" y="650" type="curve" smooth="yes"/>
      <point x="448" y="637"/>
      <point x="437" y="614"/>
      <point x="434" y="609" type="curve" smooth="yes"/>
      <point x="333" y="438" type="line"/>
      <point x="232" y="609" type="line" smooth="yes"/>
      <point x="224" y="623"/>
      <point x="212" y="644"/>
      <point x="212" y="656" type="curve" smooth="yes"/>
      <point x="212" y="673"/>
      <point x="235" y="679"/>
      <point x="259" y="679" type="curve" smooth="yes"/>
      <point x="283" y="679" type="line"/>
      <point x="283" y="721" type="line"/>
      <point x="0" y="721" type="line"/>
      <point x="0" y="679" type="line"/>
      <point x="67" y="679"/>
      <point x="88" y="654"/>
      <point x="116" y="608" type="curve" smooth="yes"/>
      <point x="270" y="352" type="line"/>
      <point x="128" y="128" type="line" smooth="yes"/>
      <point x="96" y="78"/>
      <point x="58" y="42"/>
      <point x="1" y="42" type="curve" smooth="yes"/>
      <point x="-8" y="42" type="line"/>
    </contour>
  </outline>
</glyph>
<glyph name="Z" format="2">
  <advance width="588"/>
  <unicode hex="005A"/>
  <anchor x="278" y="0" name="dotbelow"/>
  <anchor x="316" y="813" name="top"/>
  <outline>
    <contour>
      <point x="41" y="0" type="line"/>
      <point x="490" y="0" type="line"/>
      <point x="560" y="189" type="line"/>
      <point x="523" y="205" type="line"/>
      <point x="443" y="89"/>
      <point x="369" y="46"/>
      <point x="240" y="46" type="curve" smooth="yes"/>
      <point x="156" y="46" type="line"/>
      <point x="548" y="699" type="line"/>
      <point x="532" y="721" type="line"/>
      <point x="110" y="721" type="line"/>
      <point x="45" y="544" type="line"/>
      <point x="80" y="528" type="line"/>
      <point x="161" y="645"/>
      <point x="251" y="675"/>
      <point x="330" y="675" type="curve" smooth="yes"/>
      <point x="418" y="675" type="line"/>
      <point x="27" y="23" type="line"/>
    </contour>
  </outline>
</glyph>
<glyph name="bracketleft" format="2">
  <advance width="328"/>
  <unicode hex="005B"/>
  <outline>
    <contour>
      <point x="97" y="-181" type="line"/>
      <point x="277" y="-181" type="line"/>
      <point x="277" y="-135" type="line"/>
      <point x="181" y="-135" type="line"/>
      <point x="181" y="676" type="line"/>
      <point x="271" y="676" type="line"/>
      <point x="271" y="721" type="line"/>
      <point x="97" y="721" type="line"/>
    </contour>
  </outline>
</glyph>
<glyph name="a" format="2">
  <advance width="468"/>
  <unicode hex="0061"/>
  <anchor x="219" y="0" name="dotbelow"/>
  <anchor x="326" y="0" name="ogonek"/>
  <anchor x="219" y="558" name="top"/>
  <outline>
    <contour>
      <point x="163" y="-14" type="curve" smooth="yes"/>
      <point x="221" y="-14"/>
      <point x="276" y="26"/>
      <point x="304" y="46" type="curve"/>
      <point x="308" y="15"/>
      <point x="325" y="-14"/>
      <point x="365" y="-14" type="curve" smooth="yes"/>
      <point x="397" y="-14"/>
      <point x="430" y="4"/>
      <point x="451" y="35" type="curve"/>
      <point x="427" y="57" type="line"/>
      <point x="419" y="51"/>
      <point x="408" y="39"/>
      <point x="398" y="39" type="curve" smooth="yes"/>
      <point x="391" y="39"/>
      <point x="383" y="44"/>
      <point x="383" y="95" type="curve" smooth="yes"/>
      <point x="383" y="350" type="line" smooth="yes"/>
      <point x="383" y="414"/>
      <point x="362" y="482"/>
      <point x="237" y="482" type="curve" smooth="yes"/>
      <point x="135" y="482"/>
      <point x="54" y="436"/>
      <point x="54" y="380" type="curve" smooth="yes"/>
      <point x="54" y="352"/>
      <point x="74" y="332"/>
      <point x="104" y="332" type="curve" smooth="yes"/>
      <point x="175" y="332"/>
      <point x="144" y="441"/>
      <point x="231" y="441" type="curve" smooth="yes"/>
      <point x="286" y="441"/>
      <point x="299" y="397"/>
      <point x="299" y="355" type="curve" smooth="yes"/>
      <point x="299" y="292" type="line"/>
      <point x="169" y="256"/>
      <point x="38" y="212"/>
      <point x="38" y="98" type="curve" smooth="yes"/>
      <point x="38" y="9"/>
      <point x="119" y="-14"/>
    </contour>
    <contour>
      <point x="193" y="37" type="curve" smooth="yes"/>
      <point x="154" y="37"/>
      <point x="130" y="66"/>
      <point x="130" y="104" type="curve" smooth="yes"/>
      <point x="130" y="183"/>
      <point x="232" y="229"/>
      <point x="299" y="252" type="curve"/>
      <point x="299" y="83" type="line"/>
      <point x="268" y="58"/>
      <point x="226" y="37"/>
    </contour>
  </outline>
</glyph>
<glyph name="b" format="2">
  <advance width="522"/>
  <unicode hex="0062"/>
  <anchor x="268" y="0" name="dotbelow"/>
  <anchor x="268" y="813" name="top"/>
  <outline>
    <contour>
      <point x="110" y="-18" type="line"/>
      <point x="157" y="50" type="line"/>
      <point x="186" y="17"/>
      <point x="231" y="-14"/>
      <point x="289" y="-14" type="curve" smooth="yes"/>
      <point x="406" y="-14"/>
      <point x="482" y="109"/>
      <point x="482" y="240" type="curve" smooth="yes"/>
      <point x="482" y="376"/>
      <point x="399" y="483"/>
      <point x="295" y="483" type="curve" smooth="yes"/>
      <point x="244" y="483"/>
      <point x="204" y="458"/>
      <point x="168" y="430" type="curve"/>
      <point x="168" y="729" type="line"/>
      <point x="16" y="681" type="line"/>
      <point x="16" y="651" type="line"/>
      <point x="75" y="642"/>
      <point x="84" y="638"/>
      <point x="84" y="576" type="curve" smooth="yes"/>
      <point x="84" y="-13" type="line"/>
    </contour>
    <contour>
      <point x="269" y="40" type="curve" smooth="yes"/>
      <point x="221" y="40"/>
      <point x="191" y="66"/>
      <point x="168" y="93" type="curve"/>
      <point x="168" y="378" type="line"/>
      <point x="183" y="391"/>
      <point x="224" y="426"/>
      <point x="272" y="426" type="curve" smooth="yes"/>
      <point x="334" y="426"/>
      <point x="388" y="367"/>
      <point x="388" y="228" type="curve" smooth="yes"/>
      <point x="388" y="99"/>
      <point x="341" y="40"/>
    </contour>
  </outline>
</glyph>
<glyph name="c" format="2">
  <advance width="462"/>
  <unicode hex="0063"/>
  <anchor x="224" y="-17" name="attachcedilla"/>
  <anchor x="274" y="558" name="top"/>
  <outline>
    <contour>
      <point x="249" y="-14" type="curve" smooth="yes"/>
      <point x="343" y="-14"/>
      <point x="407" y="47"/>
      <point x="443" y="109" type="curve"/>
      <point x="410" y="130" type="line"/>
      <point x="378" y="81"/>
      <point x="333" y="43"/>
      <point x="275" y="43" type="curve" smooth="yes"/>
      <point x="190" y="43"/>
      <point x="134" y="125"/>
      <point x="134" y="249" type="curve" smooth="yes"/>
      <point x="134" y="363"/>
      <point x="181" y="442"/>
      <point x="252" y="442" type="curve" smooth="yes"/>
      <point x="335" y="442"/>
      <point x="308" y="336"/>
      <point x="374" y="336" type="curve" smooth="yes"/>
      <point x="405" y="336"/>
      <point x="427" y="360"/>
      <point x="427" y="387" type="curve" smooth="yes"/>
      <point x="427" y="436"/>
      <point x="352" y="482"/>
      <point x="272" y="482" type="curve" smooth="yes"/>
      <point x="145" y="482"/>
      <point x="41" y="364"/>
      <point x="41" y="219" type="curve" smooth="yes"/>
      <point x="41" y="84"/>
      <point x="130" y="-14"/>
    </contour>
  </outline>
</glyph>
<glyph name="d" format="2">
  <advance width="524"/>
  <unicode hex="0064"/>
  <anchor x="556" y="735" name="caroncombalt"/>
  <anchor x="264" y="0" name="commaaccentbelow"/>
  <anchor x="249" y="0" name="dotbelow"/>
  <anchor x="249" y="813" name="top"/>
  <outline>
    <contour>
      <point x="227" y="-14" type="curve" smooth="yes"/>
      <point x="284" y="-14"/>
      <point x="327" y="16"/>
      <point x="357" y="53" type="curve"/>
      <point x="357" y="-9" type="line"/>
      <point x="502" y="0" type="line"/>
      <point x="502" y="36" type="line"/>
      <point x="453" y="37"/>
      <point x="440" y="42"/>
      <point x="440" y="109" type="curve" smooth="yes"/>
      <point x="440" y="729" type="line"/>
      <point x="289" y="681" type="line"/>
      <point x="289" y="651" type="line"/>
      <point x="347" y="642"/>
      <point x="357" y="638"/>
      <point x="357" y="576" type="curve" smooth="yes"/>
      <point x="357" y="423" type="line"/>
      <point x="333" y="443"/>
      <point x="289" y="482"/>
      <point x="227" y="482" type="curve" smooth="yes"/>
      <point x="123" y="482"/>
      <point x="40" y="374"/>
      <point x="40" y="237" type="curve" smooth="yes"/>
      <point x="40" y="111"/>
      <point x="111" y="-14"/>
    </contour>
    <contour>
      <point x="245" y="39" type="curve" smooth="yes"/>
      <point x="195" y="39"/>
      <point x="134" y="80"/>
      <point x="134" y="224" type="curve" smooth="yes"/>
      <point x="134" y="344"/>
      <point x="176" y="425"/>
      <point x="251" y="425" type="curve" smooth="yes"/>
      <point x="299" y="425"/>
      <point x="336" y="392"/>
      <point x="357" y="373" type="curve"/>
      <point x="357" y="104" type="line"/>
      <point x="326" y="62"/>
      <point x="281" y="39"/>
    </contour>
  </outline>
</glyph>
<glyph name="e" format="2">
  <advance width="510"/>
  <unicode hex="0065"/>
  <anchor x="244" y="-17" name="attachcedilla"/>
  <anchor x="270" y="0" name="dotbelow"/>
  <anchor x="329" y="0" name="ogonek"/>
  <anchor x="270" y="558" name="top"/>
  <outline>
    <contour>
      <point x="266" y="-14" type="curve" smooth="yes"/>
      <point x="361" y="-14"/>
      <point x="431" y="39"/>
      <point x="475" y="101" type="curve"/>
      <point x="448" y="122" type="line"/>
      <point x="403" y="72"/>
      <point x="350" y="43"/>
      <point x="292" y="43" type="curve" smooth="yes"/>
      <point x="248" y="43"/>
      <point x="208" y="60"/>
      <point x="179" y="93" type="curve" smooth="yes"/>
      <point x="149" y="127"/>
      <point x="133" y="175"/>
      <point x="133" y="257" type="curve"/>
      <point x="469" y="257" type="line"/>
      <point x="462" y="373"/>
      <point x="395" y="482"/>
      <point x="272" y="482" type="curve" smooth="yes"/>
      <point x="139" y="482"/>
      <point x="41" y="356"/>
      <point x="41" y="217" type="curve" smooth="yes"/>
      <point x="41" y="75"/>
      <point x="143" y="-14"/>
    </contour>
    <contour>
      <point x="139" y="301" type="line"/>
      <point x="156" y="401"/>
      <point x="206" y="445"/>
      <point x="266" y="445" type="curve" smooth="yes"/>
      <point x="319" y="445"/>
      <point x="368" y="410"/>
      <point x="375" y="301" type="curve"/>
    </contour>
  </outline>
</glyph>
<glyph name="g" format="2">
  <advance width="506"/>
  <unicode hex="0067"/>
  <anchor x="243" y="558" name="top"/>
  <outline>
    <contour>
      <point x="239" y="-181" type="curve" smooth="yes"/>
      <point x="395" y="-181"/>
      <point x="476" y="-130"/>
      <point x="476" y="-50" type="curve" smooth="yes"/>
      <point x="476" y="35"/>
      <point x="383" y="59"/>
      <point x="327" y="70" type="curve" smooth="yes"/>
      <point x="227" y="90"/>
      <point x="146" y="89"/>
      <point x="146" y="120" type="curve" smooth="yes"/>
      <point x="146" y="131"/>
      <point x="156" y="143"/>
      <point x="182" y="149" type="curve"/>
      <point x="196" y="146"/>
      <point x="213" y="141"/>
      <point x="240" y="141" type="curve" smooth="yes"/>
      <point x="348" y="141"/>
      <point x="426" y="220"/>
      <point x="426" y="310" type="curve" smooth="yes"/>
      <point x="426" y="362"/>
      <point x="400" y="401"/>
      <point x="382" y="422" type="curve"/>
      <point x="385" y="425"/>
      <point x="391" y="430"/>
      <point x="398" y="430" type="curve" smooth="yes"/>
      <point x="415" y="430"/>
      <point x="420" y="404"/>
      <point x="451" y="404" type="curve" smooth="yes"/>
      <point x="476" y="404"/>
      <point x="486" y="422"/>
      <point x="486" y="443" type="curve" smooth="yes"/>
      <point x="486" y="474"/>
      <point x="465" y="493"/>
      <point x="436" y="493" type="curve" smooth="yes"/>
      <point x="402" y="493"/>
      <point x="374" y="467"/>
      <point x="356" y="441" type="curve"/>
      <point x="329" y="459"/>
      <point x="294" y="482"/>
      <point x="239" y="482" type="curve" smooth="yes"/>
      <point x="139" y="482"/>
      <point x="58" y="404"/>
      <point x="58" y="305" type="curve" smooth="yes"/>
      <point x="58" y="238"/>
      <point x="96" y="191"/>
      <point x="150" y="163" type="curve"/>
      <point x="115" y="151"/>
      <point x="65" y="132"/>
      <point x="65" y="92" type="curve" smooth="yes"/>
      <point x="65" y="58"/>
      <point x="102" y="36"/>
      <point x="173" y="28" type="curve"/>
      <point x="107" y="10"/>
      <point x="25" y="-22"/>
      <point x="25" y="-84" type="curve" smooth="yes"/>
      <point x="25" y="-151"/>
      <point x="120" y="-181"/>
    </contour>
    <contour>
      <point x="248" y="-144" type="curve" smooth="yes"/>
      <point x="142" y="-144"/>
      <point x="106" y="-119"/>
      <point x="106" y="-79" type="curve" smooth="yes"/>
      <point x="106" y="-39"/>
      <point x="141" y="-19"/>
      <point x="216" y="13" type="curve"/>
      <point x="370" y="-14"/>
      <point x="408" y="-35"/>
      <point x="408" y="-73" type="curve" smooth="yes"/>
      <point x="408" y="-109"/>
      <point x="373" y="-144"/>
    </contour>
    <contour>
      <point x="241" y="174" type="curve" smooth="yes"/>
      <point x="178" y="174"/>
      <point x="144" y="234"/>
      <point x="144" y="309" type="curve" smooth="yes"/>
      <point x="144" y="390"/>
      <point x="184" y="445"/>
      <point x="243" y="445" type="curve" smooth="yes"/>
      <point x="294" y="445"/>
      <point x="341" y="403"/>
      <point x="341" y="312" type="curve" smooth="yes"/>
      <point x="341" y="226"/>
      <point x="299" y="174"/>
    </contour>
  </outline>
</glyph>
<glyph name="h" format="2">
  <advance width="546"/>
  <unicode hex="0068"/>
  <anchor x="118" y="-17" name="attachcedilla"/>
  <anchor x="268" y="0" name="dotbelow"/>
  <anchor x="264" y="813" name="top"/>
  <outline>
    <contour>
      <point x="28" y="0" type="line"/>
      <point x="241" y="0" type="line"/>
      <point x="241" y="40" type="line"/>
      <point x="187" y="40"/>
      <point x="179" y="53"/>
      <point x="179" y="98" type="curve" smooth="yes"/>
      <point x="179" y="357" type="line"/>
      <point x="215" y="400"/>
      <point x="256" y="426"/>
      <point x="300" y="426" type="curve" smooth="yes"/>
      <point x="342" y="426"/>
      <point x="370" y="403"/>
      <point x="370" y="323" type="curve" smooth="yes"/>
      <point x="370" y="95" type="line" smooth="yes"/>
      <point x="370" y="56"/>
      <point x="364" y="40"/>
      <point x="310" y="40" type="curve" smooth="yes"/>
      <point x="308" y="40" type="line"/>
      <point x="308" y="0" type="line"/>
      <point x="515" y="0" type="line"/>
      <point x="515" y="40" type="line"/>
      <point x="461" y="40"/>
      <point x="453" y="53"/>
      <point x="453" y="98" type="curve" smooth="yes"/>
      <point x="453" y="329" type="line" smooth="yes"/>
      <point x="453" y="440"/>
      <point x="398" y="483"/>
      <point x="330" y="483" type="curve" smooth="yes"/>
      <point x="277" y="483"/>
      <point x="232" y="457"/>
      <point x="179" y="404" type="curve"/>
      <point x="179" y="729" type="line"/>
      <point x="28" y="681" type="line"/>
      <point x="28" y="651" type="line"/>
      <point x="86" y="642"/>
      <point x="96" y="638"/>
      <point x="96" y="576" type="curve" smooth="yes"/>
      <point x="96" y="98" type="line" smooth="yes"/>
      <point x="96" y="59"/>
      <point x="91" y="40"/>
      <point x="37" y="40" type="curve" smooth="yes"/>
      <point x="28" y="40" type="line"/>
    </contour>
  </outline>
</glyph>
<glyph name="k" format="2">
  <advance width="509"/>
  <unicode hex="006B"/>
  <anchor x="256" y="0" name="commaaccentbelow"/>
  <anchor x="256" y="0" name="dotbelow"/>
  <anchor x="256" y="813" name="top"/>
  <outline>
    <contour>
      <point x="26" y="0" type="line"/>
      <point x="239" y="0" type="line"/>
      <point x="239" y="40" type="line"/>
      <point x="185" y="40"/>
      <point x="177" y="53"/>
      <point x="177" y="98" type="curve" smooth="yes"/>
      <point x="177" y="177" type="line"/>
      <point x="237" y="236" type="line"/>
      <point x="295" y="146" type="line" smooth="yes"/>
      <point x="365" y="37"/>
      <point x="346" y="66"/>
      <point x="346" y="55" type="curve" smooth="yes"/>
      <point x="346" y="44"/>
      <point x="330" y="40"/>
      <point x="305" y="40" type="curve" smooth="yes"/>
      <point x="296" y="40" type="line"/>
      <point x="296" y="0" type="line"/>
      <point x="509" y="0" type="line"/>
      <point x="509" y="40" type="line"/>
      <point x="463" y="43"/>
      <point x="459" y="44"/>
      <point x="442" y="67" type="curve" smooth="yes"/>
      <point x="416" y="103" type="line"/>
      <point x="296" y="290" type="line"/>
      <point x="343" y="338" type="line" smooth="yes"/>
      <point x="383" y="379"/>
      <point x="427" y="428"/>
      <point x="494" y="428" type="curve"/>
      <point x="494" y="468" type="line"/>
      <point x="282" y="468" type="line"/>
      <point x="282" y="428" type="line"/>
      <point x="321" y="427"/>
      <point x="339" y="423"/>
      <point x="339" y="408" type="curve" smooth="yes"/>
      <point x="339" y="396"/>
      <point x="328" y="382"/>
      <point x="314" y="368" type="curve" smooth="yes"/>
      <point x="177" y="231" type="line"/>
      <point x="177" y="729" type="line"/>
      <point x="26" y="681" type="line"/>
      <point x="26" y="651" type="line"/>
      <point x="84" y="642"/>
      <point x="94" y="638"/>
      <point x="94" y="576" type="curve" smooth="yes"/>
      <point x="94" y="98" type="line" smooth="yes"/>
      <point x="94" y="59"/>
      <point x="89" y="40"/>
      <point x="35" y="40" type="curve" smooth="yes"/>
      <point x="26" y="40" type="line"/>
    </contour>
  </outline>
</glyph>
<glyph name="l" format="2">
  <advance width="263"/>
  <unicode hex="006C"/>
  <anchor x="295" y="735" name="caroncombalt"/>
  <anchor x="133" y="0" name="commaaccentbelow"/>
  <anchor x="137" y="0" name="dotbelow"/>
  <anchor x="274" y="292" name="ldot"/>
  <anchor x="135" y="813" name="top"/>
  <outline>
    <contour>
      <point x="28" y="0" type="line"/>
      <point x="241" y="0" type="line"/>
      <point x="241" y="40" type="line"/>
      <point x="187" y="40"/>
      <point x="179" y="53"/>
      <point x="179" y="98" type="curve" smooth="yes"/>
      <point x="179" y="729" type="line"/>
      <point x="28" y="681" type="line"/>
      <point x="28" y="651" type="line"/>
      <point x="86" y="642"/>
      <point x="96" y="638"/>
      <point x="96" y="576" type="curve" smooth="yes"/>
      <point x="96" y="98" type="line" smooth="yes"/>
      <point x="96" y="59"/>
      <point x="91" y="40"/>
      <point x="37" y="40" type="curve" smooth="yes"/>
      <point x="28" y="40" type="line"/>
    </contour>
  </outline>
</glyph>
<glyph name="m" format="2">
  <advance width="818"/>
  <unicode hex="006D"/>
  <anchor x="418" y="0" name="dotbelow"/>
  <anchor x="418" y="558" name="top"/>
  <outline>
    <contour>
      <point x="34" y="0" type="line"/>
      <point x="246" y="0" type="line"/>
      <point x="246" y="40" type="line"/>
      <point x="192" y="40"/>
      <point x="185" y="58"/>
      <point x="185" y="104" type="curve" smooth="yes"/>
      <point x="185" y="359" type="line"/>
      <point x="226" y="399"/>
      <point x="268" y="425"/>
      <point x="305" y="425" type="curve" smooth="yes"/>
      <point x="343" y="425"/>
      <point x="376" y="401"/>
      <point x="376" y="322" type="curve" smooth="yes"/>
      <point x="376" y="98" type="line" smooth="yes"/>
      <point x="376" y="59"/>
      <point x="371" y="40"/>
      <point x="317" y="40" type="curve" smooth="yes"/>
      <point x="315" y="40" type="line"/>
      <point x="315" y="0" type="line"/>
      <point x="521" y="0" type="line"/>
      <point x="521" y="40" type="line"/>
      <point x="467" y="40"/>
      <point x="459" y="53"/>
      <point x="459" y="98" type="curve" smooth="yes"/>
      <point x="459" y="358" type="line"/>
      <point x="497" y="396"/>
      <point x="536" y="425"/>
      <point x="578" y="425" type="curve" smooth="yes"/>
      <point x="616" y="425"/>
      <point x="650" y="402"/>
      <point x="650" y="319" type="curve" smooth="yes"/>
      <point x="650" y="98" type="line" smooth="yes"/>
      <point x="650" y="59"/>
      <point x="644" y="40"/>
      <point x="590" y="40" type="curve" smooth="yes"/>
      <point x="588" y="40" type="line"/>
      <point x="588" y="0" type="line"/>
      <point x="795" y="0" type="line"/>
      <point x="795" y="40" type="line"/>
      <point x="741" y="40"/>
      <point x="733" y="53"/>
      <point x="733" y="98" type="curve" smooth="yes"/>
      <point x="733" y="334" type="line" smooth="yes"/>
      <point x="733" y="442"/>
      <point x="678" y="482"/>
      <point x="609" y="482" type="curve" smooth="yes"/>
      <point x="551" y="482"/>
      <point x="500" y="454"/>
      <point x="453" y="397" type="curve"/>
      <point x="438" y="433"/>
      <point x="404" y="482"/>
      <point x="333" y="482" type="curve" smooth="yes"/>
      <point x="281" y="482"/>
      <point x="229" y="455"/>
      <point x="185" y="403" type="curve"/>
      <point x="185" y="490" type="line"/>
      <point x="34" y="442" type="line"/>
      <point x="34" y="412" type="line"/>
      <point x="92" y="403"/>
      <point x="102" y="399"/>
      <point x="102" y="337" type="curve" smooth="yes"/>
      <point x="102" y="98" type="line" smooth="yes"/>
      <point x="102" y="59"/>
      <point x="96" y="40"/>
      <point x="42" y="40" type="curve" smooth="yes"/>
      <point x="34" y="40" type="line"/>
    </contour>
  </outline>
</glyph>
<glyph name="n" format="2">
  <advance width="544"/>
  <unicode hex="006E"/>
  <anchor x="274" y="0" name="commaaccentbelow"/>
  <anchor x="275" y="0" name="dotbelow"/>
  <anchor x="269" y="558" name="top"/>
  <outline>
    <contour>
      <point x="34" y="0" type="line"/>
      <point x="246" y="0" type="line"/>
      <point x="246" y="40" type="line"/>
      <point x="192" y="40"/>
      <point x="185" y="54"/>
      <point x="185" y="99" type="curve" smooth="yes"/>
      <point x="185" y="363" type="line"/>
      <point x="226" y="402"/>
      <point x="266" y="425"/>
      <point x="302" y="425" type="curve" smooth="yes"/>
      <point x="338" y="425"/>
      <point x="375" y="401"/>
      <point x="375" y="322" type="curve" smooth="yes"/>
      <point x="375" y="96" type="line" smooth="yes"/>
      <point x="375" y="57"/>
      <point x="370" y="40"/>
      <point x="316" y="40" type="curve" smooth="yes"/>
      <point x="314" y="40" type="line"/>
      <point x="314" y="0" type="line"/>
      <point x="520" y="0" type="line"/>
      <point x="520" y="40" type="line"/>
      <point x="466" y="40"/>
      <point x="458" y="53"/>
      <point x="458" y="98" type="curve" smooth="yes"/>
      <point x="458" y="325" type="line" smooth="yes"/>
      <point x="458" y="440"/>
      <point x="404" y="482"/>
      <point x="336" y="482" type="curve" smooth="yes"/>
      <point x="281" y="482"/>
      <point x="233" y="454"/>
      <point x="185" y="408" type="curve"/>
      <point x="185" y="490" type="line"/>
      <point x="34" y="442" type="line"/>
      <point x="34" y="412" type="line"/>
      <point x="92" y="403"/>
      <point x="102" y="399"/>
      <point x="102" y="337" type="curve" smooth="yes"/>
      <point x="102" y="98" type="line" smooth="yes"/>
      <point x="102" y="59"/>
      <point x="96" y="40"/>
      <point x="42" y="40" type="curve" smooth="yes"/>
      <point x="34" y="40" type="line"/>
    </contour>
  </outline>
</glyph>
<glyph name="o" format="2">
  <advance width="522"/>
  <unicode hex="006F"/>
  <anchor x="432" y="368" name="attachhorn"/>
  <anchor x="262" y="0" name="dotbelow"/>
  <anchor x="296" y="0" name="ogonek"/>
  <anchor x="262" y="558" name="top"/>
  <outline>
    <contour>
      <point x="261" y="-14" type="curve" smooth="yes"/>
      <point x="396" y="-14"/>
      <point x="481" y="107"/>
      <point x="481" y="236" type="curve" smooth="yes"/>
      <point x="481" y="380"/>
      <point x="376" y="482"/>
      <point x="263" y="482" type="curve" smooth="yes"/>
      <point x="152" y="482"/>
      <point x="41" y="385"/>
      <point x="41" y="237" type="curve" smooth="yes"/>
      <point x="41" y="109"/>
      <point x="124" y="-14"/>
    </contour>
    <contour>
      <point x="261" y="23" type="curve" smooth="yes"/>
      <point x="179" y="23"/>
      <point x="135" y="120"/>
      <point x="135" y="234" type="curve" smooth="yes"/>
      <point x="135" y="347"/>
      <point x="178" y="445"/>
      <point x="261" y="445" type="curve" smooth="yes"/>
      <point x="343" y="445"/>
      <point x="387" y="348"/>
      <point x="387" y="235" type="curve" smooth="yes"/>
      <point x="387" y="121"/>
      <point x="343" y="23"/>
    </contour>
  </outline>
</glyph>
<glyph name="q" format="2">
  <advance width="524"/>
  <unicode hex="0071"/>
  <anchor x="259" y="558" name="top"/>
  <outline>
    <contour>
      <point x="291" y="-181" type="line"/>
      <point x="504" y="-181" type="line"/>
      <point x="504" y="-141" type="line"/>
      <point x="450" y="-141"/>
      <point x="442" y="-128"/>
      <point x="442" y="-82" type="curve" smooth="yes"/>
      <point x="442" y="477" type="line"/>
      <point x="417" y="484" type="line"/>
      <point x="371" y="421" type="line"/>
      <point x="345" y="444"/>
      <point x="301" y="482"/>
      <point x="238" y="482" type="curve" smooth="yes"/>
      <point x="130" y="482"/>
      <point x="41" y="368"/>
      <point x="41" y="230" type="curve" smooth="yes"/>
      <point x="41" y="100"/>
      <point x="119" y="-14"/>
      <point x="232" y="-14" type="curve" smooth="yes"/>
      <point x="282" y="-14"/>
      <point x="318" y="8"/>
      <point x="359" y="40" type="curve"/>
      <point x="359" y="-82" type="line" smooth="yes"/>
      <point x="359" y="-121"/>
      <point x="354" y="-141"/>
      <point x="299" y="-141" type="curve" smooth="yes"/>
      <point x="291" y="-141" type="line"/>
    </contour>
    <contour>
      <point x="256" y="40" type="curve" smooth="yes"/>
      <point x="200" y="40"/>
      <point x="135" y="85"/>
      <point x="135" y="232" type="curve" smooth="yes"/>
      <point x="135" y="350"/>
      <point x="177" y="429"/>
      <point x="254" y="429" type="curve" smooth="yes"/>
      <point x="301" y="429"/>
      <point x="338" y="400"/>
      <point x="359" y="378" type="curve"/>
      <point x="359" y="92" type="line"/>
      <point x="322" y="56"/>
      <point x="289" y="40"/>
    </contour>
  </outline>
</glyph>
<glyph name="r" format="2">
  <advance width="400"/>
  <unicode hex="0072"/>
  <anchor x="144" y="0" name="commaaccentbelow"/>
  <anchor x="155" y="0" name="dotbelow"/>
  <anchor x="200" y="558" name="top"/>
  <outline>
    <contour>
      <point x="26" y="0" type="line"/>
      <point x="290" y="0" type="line"/>
      <point x="290" y="40" type="line"/>
      <point x="246" y="40" type="line" smooth="yes"/>
      <point x="192" y="40"/>
      <point x="185" y="53"/>
      <point x="185" y="98" type="curve" smooth="yes"/>
      <point x="185" y="318" type="line"/>
      <point x="228" y="370"/>
      <point x="253" y="401"/>
      <point x="284" y="401" type="curve" smooth="yes"/>
      <point x="309" y="401"/>
      <point x="323" y="381"/>
      <point x="352" y="381" type="curve" smooth="yes"/>
      <point x="377" y="381"/>
      <point x="402" y="397"/>
      <point x="402" y="433" type="curve" smooth="yes"/>
      <point x="402" y="463"/>
      <point x="384" y="482"/>
      <point x="340" y="482" type="curve" smooth="yes"/>
      <point x="281" y="482"/>
      <point x="240" y="447"/>
      <point x="185" y="369" type="curve"/>
      <point x="185" y="490" type="line"/>
      <point x="34" y="442" type="line"/>
      <point x="34" y="412" type="line"/>
      <point x="92" y="403"/>
      <point x="102" y="399"/>
      <point x="102" y="337" type="curve" smooth="yes"/>
      <point x="102" y="98" type="line" smooth="yes"/>
      <point x="102" y="59"/>
      <point x="96" y="40"/>
      <point x="42" y="40" type="curve" smooth="yes"/>
      <point x="26" y="40" type="line"/>
    </contour>
  </outline>
</glyph>
<glyph name="s" format="2">
  <advance width="440"/>
  <unicode hex="0073"/>
  <anchor x="226" y="-17" name="attachcedilla"/>
  <anchor x="229" y="0" name="commaaccentbelow"/>
  <anchor x="228" y="0" name="dotbelow"/>
  <anchor x="206" y="558" name="top"/>
  <outline>
    <contour>
      <point x="99" y="-18" type="line"/>
      <point x="123" y="-4"/>
      <point x="128" y="5"/>
      <point x="152" y="5" type="curve" smooth="yes"/>
      <point x="187" y="5"/>
      <point x="220" y="-14"/>
      <point x="263" y="-14" type="curve" smooth="yes"/>
      <point x="343" y="-14"/>
      <point x="404" y="50"/>
      <point x="404" y="136" type="curve" smooth="yes"/>
      <point x="404" y="324"/>
      <point x="110" y="255"/>
      <point x="110" y="373" type="curve" smooth="yes"/>
      <point x="110" y="411"/>
      <point x="141" y="440"/>
      <point x="188" y="440" type="curve" smooth="yes"/>
      <point x="262" y="440"/>
      <point x="325" y="366"/>
      <point x="355" y="321" type="curve"/>
      <point x="387" y="342" type="line"/>
      <point x="328" y="486" type="line"/>
      <point x="311" y="475"/>
      <point x="296" y="463"/>
      <point x="280" y="463" type="curve" smooth="yes"/>
      <point x="260" y="463"/>
      <point x="233" y="482"/>
      <point x="188" y="482" type="curve" smooth="yes"/>
      <point x="109" y="482"/>
      <point x="52" y="425"/>
      <point x="52" y="347" type="curve" smooth="yes"/>
      <point x="52" y="226"/>
      <point x="192" y="204"/>
      <point x="258" y="186" type="curve" smooth="yes"/>
      <point x="287" y="178"/>
      <point x="339" y="160"/>
      <point x="339" y="108" type="curve" smooth="yes"/>
      <point x="339" y="70"/>
      <point x="312" y="28"/>
      <point x="256" y="28" type="curve" smooth="yes"/>
      <point x="176" y="28"/>
      <point x="94" y="112"/>
      <point x="69" y="160" type="curve"/>
      <point x="36" y="144" type="line"/>
    </contour>
  </outline>
</glyph>
<glyph name="t" format="2">
  <advance width="335"/>
  <unicode hex="0074"/>
  <anchor x="190" y="-17" name="attachcedilla"/>
  <anchor x="297" y="735" name="caroncombalt"/>
  <anchor x="190" y="0" name="commaaccentbelow"/>
  <anchor x="192" y="-17" name="dotbelow"/>
  <anchor x="161" y="689" name="top"/>
  <outline>
    <contour>
      <point x="206" y="-14" type="curve" smooth="yes"/>
      <point x="270" y="-14"/>
      <point x="314" y="18"/>
      <point x="349" y="66" type="curve"/>
      <point x="320" y="88" type="line"/>
      <point x="291" y="61"/>
      <point x="274" y="43"/>
      <point x="238" y="43" type="curve" smooth="yes"/>
      <point x="210" y="43"/>
      <point x="183" y="54"/>
      <point x="183" y="148" type="curve" smooth="yes"/>
      <point x="183" y="425" type="line"/>
      <point x="315" y="425" type="line"/>
      <point x="315" y="468" type="line"/>
      <point x="183" y="468" type="line"/>
      <point x="183" y="630" type="line"/>
      <point x="142" y="630" type="line"/>
      <point x="128" y="512"/>
      <point x="76" y="472"/>
      <point x="34" y="458" type="curve"/>
      <point x="34" y="425" type="line"/>
      <point x="99" y="425" type="line"/>
      <point x="99" y="128" type="line" smooth="yes"/>
      <point x="99" y="74"/>
      <point x="99" y="-14"/>
    </contour>
  </outline>
</glyph>
<glyph name="u" format="2">
  <advance width="537"/>
  <unicode hex="0075"/>
  <anchor x="472" y="368" name="attachhorn"/>
  <anchor x="269" y="0" name="dotbelow"/>
  <anchor x="382" y="0" name="ogonek"/>
  <anchor x="269" y="558" name="top"/>
  <outline>
    <contour>
      <point x="215" y="-14" type="curve" smooth="yes"/>
      <point x="285" y="-14"/>
      <point x="334" y="32"/>
      <point x="368" y="68" type="curve"/>
      <point x="368" y="-9" type="line"/>
      <point x="512" y="0" type="line"/>
      <point x="512" y="36" type="line"/>
      <point x="464" y="37"/>
      <point x="451" y="42"/>
      <point x="451" y="109" type="curve" smooth="yes"/>
      <point x="451" y="490" type="line"/>
      <point x="299" y="442" type="line"/>
      <point x="299" y="412" type="line"/>
      <point x="358" y="403"/>
      <point x="368" y="399"/>
      <point x="368" y="337" type="curve" smooth="yes"/>
      <point x="368" y="116" type="line"/>
      <point x="331" y="78"/>
      <point x="289" y="51"/>
      <point x="248" y="51" type="curve" smooth="yes"/>
      <point x="227" y="51"/>
      <point x="205" y="58"/>
      <point x="193" y="78" type="curve" smooth="yes"/>
      <point x="182" y="96"/>
      <point x="177" y="127"/>
      <point x="177" y="169" type="curve" smooth="yes"/>
      <point x="177" y="490" type="line"/>
      <point x="26" y="442" type="line"/>
      <point x="26" y="412" type="line"/>
      <point x="84" y="403"/>
      <point x="94" y="399"/>
      <point x="94" y="337" type="curve" smooth="yes"/>
      <point x="94" y="168" type="line" smooth="yes"/>
      <point x="94" y="98"/>
      <point x="100" y="52"/>
      <point x="123" y="24" type="curve" smooth="yes"/>
      <point x="141" y="2"/>
      <point x="174" y="-14"/>
    </contour>
  </outline>
</glyph>
<glyph name="v" format="2">
  <advance width="468"/>
  <unicode hex="0076"/>
  <anchor x="234" y="0" name="dotbelow"/>
  <anchor x="241" y="558" name="top"/>
  <outline>
    <contour>
      <point x="216" y="-22" type="line"/>
      <point x="248" y="-22" type="line"/>
      <point x="394" y="358" type="line" smooth="yes"/>
      <point x="415" y="412"/>
      <point x="425" y="427"/>
      <point x="475" y="428" type="curve"/>
      <point x="475" y="468" type="line"/>
      <point x="283" y="468" type="line"/>
      <point x="283" y="428" type="line"/>
      <point x="294" y="428" type="line" smooth="yes"/>
      <point x="332" y="428"/>
      <point x="354" y="419"/>
      <point x="354" y="395" type="curve" smooth="yes"/>
      <point x="354" y="382"/>
      <point x="348" y="365"/>
      <point x="343" y="351" type="curve" smooth="yes"/>
      <point x="253" y="105" type="line"/>
      <point x="154" y="378" type="line" smooth="yes"/>
      <point x="150" y="389"/>
      <point x="147" y="398"/>
      <point x="147" y="406" type="curve" smooth="yes"/>
      <point x="147" y="423"/>
      <point x="161" y="426"/>
      <point x="203" y="428" type="curve"/>
      <point x="203" y="468" type="line"/>
      <point x="-8" y="468" type="line"/>
      <point x="-8" y="428" type="line"/>
      <point x="43" y="427"/>
      <point x="55" y="409"/>
      <point x="72" y="363" type="curve" smooth="yes"/>
    </contour>
  </outline>
</glyph>
<glyph name="w" format="2">
  <advance width="690"/>
  <unicode hex="0077"/>
  <anchor x="347" y="0" name="dotbelow"/>
  <anchor x="347" y="558" name="top"/>
  <outline>
    <contour>
      <point x="199" y="-22" type="line"/>
      <point x="234" y="-22" type="line"/>
      <point x="347" y="293" type="line"/>
      <point x="449" y="-22" type="line"/>
      <point x="483" y="-22" type="line"/>
      <point x="619" y="358" type="line" smooth="yes"/>
      <point x="639" y="413"/>
      <point x="646" y="427"/>
      <point x="696" y="428" type="curve"/>
      <point x="696" y="468" type="line"/>
      <point x="511" y="468" type="line"/>
      <point x="511" y="428" type="line"/>
      <point x="550" y="428"/>
      <point x="576" y="419"/>
      <point x="576" y="393" type="curve" smooth="yes"/>
      <point x="576" y="382"/>
      <point x="571" y="365"/>
      <point x="566" y="351" type="curve" smooth="yes"/>
      <point x="483" y="114" type="line"/>
      <point x="406" y="360" type="line" smooth="yes"/>
      <point x="401" y="376"/>
      <point x="396" y="397"/>
      <point x="396" y="405" type="curve" smooth="yes"/>
      <point x="396" y="425"/>
      <point x="424" y="428"/>
      <point x="449" y="428" type="curve"/>
      <point x="449" y="468" type="line"/>
      <point x="248" y="468" type="line"/>
      <point x="248" y="428" type="line"/>
      <point x="296" y="424"/>
      <point x="305" y="419"/>
      <point x="323" y="356" type="curve"/>
      <point x="234" y="114" type="line"/>
      <point x="152" y="378" type="line" smooth="yes"/>
      <point x="149" y="388"/>
      <point x="147" y="398"/>
      <point x="147" y="405" type="curve" smooth="yes"/>
      <point x="147" y="423"/>
      <point x="163" y="428"/>
      <point x="199" y="428" type="curve"/>
      <point x="199" y="468" type="line"/>
      <point x="-8" y="468" type="line"/>
      <point x="-8" y="428" type="line"/>
      <point x="43" y="427"/>
      <point x="56" y="409"/>
      <point x="71" y="363" type="curve" smooth="yes"/>
    </contour>
  </outline>
</glyph>
<glyph name="x" format="2">
  <advance width="482"/>
  <unicode hex="0078"/>
  <anchor x="252" y="558" name="top"/>
  <outline>
    <contour>
      <point x="0" y="0" type="line"/>
      <point x="200" y="0" type="line"/>
      <point x="200" y="40" type="line"/>
      <point x="194" y="40" type="line" smooth="yes"/>
      <point x="174" y="40"/>
      <point x="145" y="39"/>
      <point x="145" y="56" type="curve" smooth="yes"/>
      <point x="145" y="65"/>
      <point x="152" y="76"/>
      <point x="172" y="106" type="curve" smooth="yes"/>
      <point x="231" y="194" type="line"/>
      <point x="308" y="90" type="line" smooth="yes"/>
      <point x="314" y="82"/>
      <point x="326" y="65"/>
      <point x="326" y="55" type="curve" smooth="yes"/>
      <point x="326" y="48"/>
      <point x="320" y="40"/>
      <point x="291" y="40" type="curve" smooth="yes"/>
      <point x="280" y="40" type="line"/>
      <point x="280" y="0" type="line"/>
      <point x="482" y="0" type="line"/>
      <point x="482" y="40" type="line"/>
      <point x="467" y="40"/>
      <point x="429" y="56"/>
      <point x="399" y="95" type="curve" smooth="yes"/>
      <point x="280" y="251" type="line"/>
      <point x="367" y="361" type="line" smooth="yes"/>
      <point x="405" y="409"/>
      <point x="428" y="427"/>
      <point x="476" y="428" type="curve"/>
      <point x="476" y="468" type="line"/>
      <point x="286" y="468" type="line"/>
      <point x="286" y="428" type="line"/>
      <point x="309" y="428"/>
      <point x="336" y="426"/>
      <point x="336" y="407" type="curve" smooth="yes"/>
      <point x="336" y="399"/>
      <point x="331" y="391"/>
      <point x="312" y="363" type="curve" smooth="yes"/>
      <point x="256" y="281" type="line"/>
      <point x="177" y="394" type="line" smooth="yes"/>
      <point x="170" y="404"/>
      <point x="169" y="406"/>
      <point x="169" y="410" type="curve" smooth="yes"/>
      <point x="169" y="422"/>
      <point x="177" y="428"/>
      <point x="206" y="428" type="curve" smooth="yes"/>
      <point x="221" y="428" type="line"/>
      <point x="221" y="468" type="line"/>
      <point x="0" y="468" type="line"/>
      <point x="0" y="428" type="line"/>
      <point x="51" y="427"/>
      <point x="61" y="415"/>
      <point x="91" y="377" type="curve" smooth="yes"/>
      <point x="209" y="224" type="line"/>
      <point x="116" y="106" type="line" smooth="yes"/>
      <point x="68" y="45"/>
      <point x="50" y="41"/>
      <point x="0" y="40" type="curve"/>
    </contour>
  </outline>
</glyph>
<glyph name="y" format="2">
  <advance width="469"/>
  <unicode hex="0079"/>
  <anchor x="347" y="0" name="dotbelow"/>
  <anchor x="235" y="558" name="top"/>
  <outline>
    <contour>
      <point x="92" y="-192" type="curve" smooth="yes"/>
      <point x="183" y="-192"/>
      <point x="220" y="-97"/>
      <point x="243" y="-37" type="curve" smooth="yes"/>
      <point x="394" y="358" type="line" smooth="yes"/>
      <point x="414" y="411"/>
      <point x="426" y="427"/>
      <point x="476" y="428" type="curve"/>
      <point x="476" y="468" type="line"/>
      <point x="282" y="468" type="line"/>
      <point x="282" y="428" type="line"/>
      <point x="323" y="428"/>
      <point x="352" y="418"/>
      <point x="352" y="393" type="curve" smooth="yes"/>
      <point x="352" y="383"/>
      <point x="347" y="365"/>
      <point x="342" y="351" type="curve" smooth="yes"/>
      <point x="253" y="98" type="line"/>
      <point x="154" y="374" type="line" smooth="yes"/>
      <point x="150" y="385"/>
      <point x="147" y="394"/>
      <point x="147" y="401" type="curve" smooth="yes"/>
      <point x="147" y="419"/>
      <point x="164" y="428"/>
      <point x="208" y="428" type="curve"/>
      <point x="208" y="468" type="line"/>
      <point x="-8" y="468" type="line"/>
      <point x="-8" y="428" type="line"/>
      <point x="50" y="428"/>
      <point x="50" y="419"/>
      <point x="67" y="374" type="curve" smooth="yes"/>
      <point x="208" y="0" type="line"/>
      <point x="187" y="-58" type="line" smooth="yes"/>
      <point x="176" y="-88"/>
      <point x="157" y="-115"/>
      <point x="138" y="-115" type="curve" smooth="yes"/>
      <point x="118" y="-115"/>
      <point x="101" y="-84"/>
      <point x="66" y="-84" type="curve" smooth="yes"/>
      <point x="35" y="-84"/>
      <point x="18" y="-109"/>
      <point x="18" y="-133" type="curve" smooth="yes"/>
      <point x="18" y="-159"/>
      <point x="38" y="-192"/>
    </contour>
  </outline>
</glyph>
<glyph name="z" format="2">
  <advance width="440"/>
  <unicode hex="007A"/>
  <anchor x="198" y="0" name="dotbelow"/>
  <anchor x="240" y="558" name="top"/>
  <outline>
    <contour>
      <point x="24" y="0" type="line"/>
      <point x="359" y="0" type="line"/>
      <point x="416" y="154" type="line"/>
      <point x="384" y="170" type="line"/>
      <point x="354" y="123"/>
      <point x="318" y="88"/>
      <point x="299" y="72" type="curve" smooth="yes"/>
      <point x="269" y="47"/>
      <point x="248" y="40"/>
      <point x="192" y="40" type="curve" smooth="yes"/>
      <point x="130" y="40" type="line"/>
      <point x="405" y="435" type="line"/>
      <point x="395" y="468" type="line"/>
      <point x="101" y="468" type="line"/>
      <point x="42" y="322" type="line"/>
      <point x="72" y="306" type="line"/>
      <point x="135" y="395"/>
      <point x="166" y="428"/>
      <point x="262" y="428" type="curve" smooth="yes"/>
      <point x="305" y="428" type="line"/>
      <point x="24" y="30" type="line"/>
    </contour>
  </outline>
</glyph>
<glyph name="braceleft" format="2">
  <advance width="519"/>
  <unicode hex="007B"/>
  <outline>
    <contour>
      <point x="409" y="-181" type="curve" smooth="yes"/>
      <point x="435" y="-181" type="line"/>
      <point x="435" y="-138" type="line"/>
      <point x="298" y="-138"/>
      <point x="291" y="-86"/>
      <point x="291" y="4" type="curve" smooth="yes"/>
      <point x="291" y="130" type="line" smooth="yes"/>
      <point x="291" y="256"/>
      <point x="265" y="261"/>
      <point x="208" y="285" type="curve"/>
      <point x="255" y="310"/>
      <point x="291" y="310"/>
      <point x="291" y="410" type="curve" smooth="yes"/>
      <point x="291" y="537" type="line" smooth="yes"/>
      <point x="291" y="628"/>
      <point x="298" y="679"/>
      <point x="435" y="679" type="curve"/>
      <point x="435" y="721" type="line"/>
      <point x="409" y="721" type="line" smooth="yes"/>
      <point x="241" y="721"/>
      <point x="208" y="691"/>
      <point x="208" y="536" type="curve" smooth="yes"/>
      <point x="208" y="488"/>
      <point x="211" y="429"/>
      <point x="211" y="400" type="curve" smooth="yes"/>
      <point x="211" y="324"/>
      <point x="190" y="311"/>
      <point x="105" y="306" type="curve"/>
      <point x="105" y="265" type="line"/>
      <point x="190" y="260"/>
      <point x="211" y="246"/>
      <point x="211" y="171" type="curve" smooth="yes"/>
      <point x="211" y="142"/>
      <point x="208" y="53"/>
      <point x="208" y="4" type="curve" smooth="yes"/>
      <point x="208" y="-151"/>
      <point x="242" y="-181"/>
    </contour>
  </outline>
</glyph>
<glyph name="bar" format="2">
  <advance width="541"/>
  <unicode hex="007C"/>
  <outline>
    <contour>
      <point x="239" y="-181" type="line"/>
      <point x="302" y="-181" type="line"/>
      <point x="302" y="721" type="line"/>
      <point x="239" y="721" type="line"/>
    </contour>
  </outline>
</glyph>
<glyph name="braceright" format="2">
  <advance width="519"/>
  <unicode hex="007D"/>
  <outline>
    <contour>
      <point x="84" y="-181" type="line"/>
      <point x="110" y="-181" type="line" smooth="yes"/>
      <point x="295" y="-181"/>
      <point x="311" y="-134"/>
      <point x="311" y="-2" type="curve" smooth="yes"/>
      <point x="311" y="52"/>
      <point x="308" y="142"/>
      <point x="308" y="170" type="curve" smooth="yes"/>
      <point x="308" y="247"/>
      <point x="330" y="260"/>
      <point x="414" y="265" type="curve"/>
      <point x="414" y="306" type="line"/>
      <point x="330" y="311"/>
      <point x="308" y="323"/>
      <point x="308" y="400" type="curve" smooth="yes"/>
      <point x="308" y="429"/>
      <point x="311" y="488"/>
      <point x="311" y="536" type="curve" smooth="yes"/>
      <point x="311" y="691"/>
      <point x="279" y="721"/>
      <point x="110" y="721" type="curve" smooth="yes"/>
      <point x="84" y="721" type="line"/>
      <point x="84" y="679" type="line"/>
      <point x="221" y="679"/>
      <point x="228" y="628"/>
      <point x="228" y="537" type="curve" smooth="yes"/>
      <point x="228" y="410" type="line" smooth="yes"/>
      <point x="228" y="310"/>
      <point x="264" y="310"/>
      <point x="311" y="285" type="curve"/>
      <point x="254" y="261"/>
      <point x="228" y="256"/>
      <point x="228" y="130" type="curve" smooth="yes"/>
      <point x="228" y="4" type="line" smooth="yes"/>
      <point x="228" y="-86"/>
      <point x="221" y="-138"/>
      <point x="84" y="-138" type="curve"/>
    </contour>
  </outline>
</glyph>
<glyph name="cent" format="2">
  <advance width="535"/>
  <unicode hex="00A2"/>
  <outline>
    <contour>
      <point x="259" y="0" type="line"/>
      <point x="297" y="0" type="line"/>
      <point x="297" y="115" type="line"/>
      <point x="381" y="123"/>
      <point x="438" y="179"/>
      <point x="471" y="237" type="curve"/>
      <point x="438" y="257" type="line"/>
      <point x="406" y="209"/>
      <point x="361" y="171"/>
      <point x="302" y="171" type="curve" smooth="yes"/>
      <point x="297" y="171" type="line"/>
      <point x="297" y="568" type="line"/>
      <point x="362" y="552"/>
      <point x="340" y="464"/>
      <point x="402" y="464" type="curve" smooth="yes"/>
      <point x="435" y="464"/>
      <point x="455" y="489"/>
      <point x="455" y="515" type="curve" smooth="yes"/>
      <point x="455" y="567"/>
      <point x="372" y="610"/>
      <point x="306" y="610" type="curve" smooth="yes"/>
      <point x="297" y="610" type="line"/>
      <point x="297" y="721" type="line"/>
      <point x="259" y="721" type="line"/>
      <point x="259" y="605" type="line"/>
      <point x="144" y="581"/>
      <point x="69" y="468"/>
      <point x="69" y="346" type="curve" smooth="yes"/>
      <point x="69" y="217"/>
      <point x="152" y="121"/>
      <point x="259" y="115" type="curve"/>
    </contour>
    <contour>
      <point x="259" y="178" type="line"/>
      <point x="201" y="200"/>
      <point x="162" y="277"/>
      <point x="162" y="378" type="curve" smooth="yes"/>
      <point x="162" y="477"/>
      <point x="199" y="554"/>
      <point x="259" y="568" type="curve"/>
    </contour>
  </outline>
</glyph>
<glyph name="sterling" format="2">
  <advance width="535"/>
  <unicode hex="00A3"/>
  <outline>
    <contour>
      <point x="348" y="-23" type="curve" smooth="yes"/>
      <point x="431" y="-23"/>
      <point x="493" y="26"/>
      <point x="523" y="158" type="curve"/>
      <point x="485" y="168" type="line"/>
      <point x="455" y="88"/>
      <point x="405" y="69"/>
      <point x="347" y="69" type="curve" smooth="yes"/>
      <point x="298" y="69"/>
      <point x="272" y="83"/>
      <point x="242" y="96" type="curve"/>
      <point x="263" y="135"/>
      <point x="275" y="174"/>
      <point x="275" y="219" type="curve" smooth="yes"/>
      <point x="275" y="244"/>
      <point x="271" y="266"/>
      <point x="267" y="285" type="curve"/>
      <point x="404" y="285" type="line"/>
      <point x="404" y="345" type="line"/>
      <point x="250" y="345" type="line"/>
      <point x="231" y="401"/>
      <point x="196" y="466"/>
      <point x="196" y="528" type="curve" smooth="yes"/>
      <point x="196" y="608"/>
      <point x="253" y="674"/>
      <point x="332" y="674" type="curve" smooth="yes"/>
      <point x="384" y="674"/>
      <point x="424" y="646"/>
      <point x="424" y="620" type="curve" smooth="yes"/>
      <point x="424" y="592"/>
      <point x="375" y="605"/>
      <point x="375" y="559" type="curve" smooth="yes"/>
      <point x="375" y="531"/>
      <point x="394" y="508"/>
      <point x="425" y="508" type="curve" smooth="yes"/>
      <point x="459" y="508"/>
      <point x="490" y="536"/>
      <point x="490" y="586" type="curve" smooth="yes"/>
      <point x="490" y="666"/>
      <point x="412" y="721"/>
      <point x="317" y="721" type="curve" smooth="yes"/>
      <point x="184" y="721"/>
      <point x="97" y="614"/>
      <point x="97" y="488" type="curve" smooth="yes"/>
      <point x="97" y="437"/>
      <point x="111" y="388"/>
      <point x="128" y="345" type="curve"/>
      <point x="44" y="345" type="line"/>
      <point x="44" y="285" type="line"/>
      <point x="152" y="285" type="line"/>
      <point x="170" y="243"/>
      <point x="184" y="202"/>
      <point x="184" y="154" type="curve" smooth="yes"/>
      <point x="184" y="142"/>
      <point x="183" y="135"/>
      <point x="181" y="125" type="curve"/>
      <point x="162" y="135"/>
      <point x="135" y="146"/>
      <point x="105" y="146" type="curve" smooth="yes"/>
      <point x="50" y="146"/>
      <point x="9" y="112"/>
      <point x="9" y="63" type="curve" smooth="yes"/>
      <point x="9" y="12"/>
      <point x="53" y="-14"/>
      <point x="97" y="-14" type="curve" smooth="yes"/>
      <point x="146" y="-14"/>
      <point x="184" y="17"/>
      <point x="211" y="48" type="curve"/>
      <point x="257" y="10"/>
      <point x="280" y="-23"/>
    </contour>
    <contour>
      <point x="95" y="35" type="curve" smooth="yes"/>
      <point x="66" y="35"/>
      <point x="61" y="51"/>
      <point x="61" y="62" type="curve" smooth="yes"/>
      <point x="61" y="83"/>
      <point x="77" y="97"/>
      <point x="100" y="97" type="curve" smooth="yes"/>
      <point x="119" y="97"/>
      <point x="141" y="88"/>
      <point x="162" y="76" type="curve"/>
      <point x="144" y="48"/>
      <point x="121" y="35"/>
    </contour>
  </outline>
</glyph>
<glyph name="yen" format="2">
  <advance width="584"/>
  <unicode hex="00A5"/>
  <outline>
    <contour>
      <point x="143" y="0" type="line"/>
      <point x="431" y="0" type="line"/>
      <point x="431" y="42" type="line"/>
      <point x="409" y="42" type="line" smooth="yes"/>
      <point x="355" y="42"/>
      <point x="337" y="53"/>
      <point x="337" y="131" type="curve" smooth="yes"/>
      <point x="337" y="257" type="line"/>
      <point x="526" y="257" type="line"/>
      <point x="526" y="317" type="line"/>
      <point x="342" y="317" type="line"/>
      <point x="387" y="403" type="line"/>
      <point x="526" y="403" type="line"/>
      <point x="526" y="463" type="line"/>
      <point x="418" y="463" type="line"/>
      <point x="486" y="594" type="line" smooth="yes"/>
      <point x="518" y="657"/>
      <point x="529" y="672"/>
      <point x="590" y="679" type="curve"/>
      <point x="590" y="721" type="line"/>
      <point x="369" y="721" type="line"/>
      <point x="369" y="679" type="line"/>
      <point x="376" y="679" type="line" smooth="yes"/>
      <point x="430" y="679"/>
      <point x="443" y="660"/>
      <point x="443" y="643" type="curve" smooth="yes"/>
      <point x="443" y="630"/>
      <point x="436" y="613"/>
      <point x="430" y="600" type="curve" smooth="yes"/>
      <point x="314" y="358" type="line"/>
      <point x="189" y="609" type="line" smooth="yes"/>
      <point x="186" y="615"/>
      <point x="169" y="650"/>
      <point x="169" y="661" type="curve" smooth="yes"/>
      <point x="169" y="676"/>
      <point x="205" y="679"/>
      <point x="244" y="679" type="curve"/>
      <point x="244" y="721" type="line"/>
      <point x="-8" y="721" type="line"/>
      <point x="-8" y="679" type="line"/>
      <point x="55" y="679"/>
      <point x="56" y="656"/>
      <point x="79" y="610" type="curve" smooth="yes"/>
      <point x="152" y="463" type="line"/>
      <point x="58" y="463" type="line"/>
      <point x="58" y="403" type="line"/>
      <point x="183" y="403" type="line"/>
      <point x="226" y="317" type="line"/>
      <point x="58" y="317" type="line"/>
      <point x="58" y="257" type="line"/>
      <point x="237" y="257" type="line"/>
      <point x="237" y="131" type="line" smooth="yes"/>
      <point x="237" y="53"/>
      <point x="219" y="42"/>
      <point x="165" y="42" type="curve" smooth="yes"/>
      <point x="143" y="42" type="line"/>
    </contour>
  </outline>
</glyph>
<glyph name="section" format="2">
  <advance width="475"/>
  <unicode hex="00A7"/>
  <outline>
    <contour>
      <point x="224" y="-181" type="curve" smooth="yes"/>
      <point x="317" y="-181"/>
      <point x="387" y="-125"/>
      <point x="387" y="-40" type="curve" smooth="yes"/>
      <point x="387" y="41"/>
      <point x="324" y="89"/>
      <point x="275" y="123" type="curve"/>
      <point x="287" y="121"/>
      <point x="302" y="115"/>
      <point x="320" y="115" type="curve" smooth="yes"/>
      <point x="371" y="115"/>
      <point x="431" y="163"/>
      <point x="431" y="247" type="curve" smooth="yes"/>
      <point x="431" y="428"/>
      <point x="156" y="499"/>
      <point x="156" y="619" type="curve" smooth="yes"/>
      <point x="156" y="664"/>
      <point x="194" y="692"/>
      <point x="244" y="692" type="curve" smooth="yes"/>
      <point x="279" y="692"/>
      <point x="305" y="678"/>
      <point x="305" y="662" type="curve" smooth="yes"/>
      <point x="305" y="643"/>
      <point x="270" y="641"/>
      <point x="270" y="603" type="curve" smooth="yes"/>
      <point x="270" y="572"/>
      <point x="294" y="549"/>
      <point x="326" y="549" type="curve" smooth="yes"/>
      <point x="358" y="549"/>
      <point x="386" y="573"/>
      <point x="386" y="615" type="curve" smooth="yes"/>
      <point x="386" y="683"/>
      <point x="311" y="721"/>
      <point x="238" y="721" type="curve" smooth="yes"/>
      <point x="157" y="721"/>
      <point x="85" y="673"/>
      <point x="85" y="585" type="curve" smooth="yes"/>
      <point x="85" y="525"/>
      <point x="119" y="467"/>
      <point x="197" y="422" type="curve"/>
      <point x="182" y="425"/>
      <point x="175" y="426"/>
      <point x="165" y="426" type="curve" smooth="yes"/>
      <point x="90" y="426"/>
      <point x="43" y="363"/>
      <point x="43" y="290" type="curve" smooth="yes"/>
      <point x="43" y="115"/>
      <point x="316" y="47"/>
      <point x="316" y="-75" type="curve" smooth="yes"/>
      <point x="316" y="-117"/>
      <point x="284" y="-154"/>
      <point x="228" y="-154" type="curve" smooth="yes"/>
      <point x="186" y="-154"/>
      <point x="156" y="-133"/>
      <point x="156" y="-120" type="curve" smooth="yes"/>
      <point x="156" y="-105"/>
      <point x="191" y="-90"/>
      <point x="191" y="-57" type="curve" smooth="yes"/>
      <point x="191" y="-34"/>
      <point x="173" y="-5"/>
      <point x="136" y="-5" type="curve" smooth="yes"/>
      <point x="94" y="-5"/>
      <point x="74" y="-40"/>
      <point x="74" y="-71" type="curve" smooth="yes"/>
      <point x="74" y="-124"/>
      <point x="131" y="-181"/>
    </contour>
    <contour>
      <point x="300" y="143" type="curve" smooth="yes"/>
      <point x="239" y="143"/>
      <point x="106" y="260"/>
      <point x="106" y="330" type="curve" smooth="yes"/>
      <point x="106" y="365"/>
      <point x="139" y="397"/>
      <point x="174" y="397" type="curve" smooth="yes"/>
      <point x="243" y="397"/>
      <point x="370" y="276"/>
      <point x="370" y="211" type="curve" smooth="yes"/>
      <point x="370" y="176"/>
      <point x="333" y="143"/>
    </contour>
  </outline>
</glyph>
<glyph name="ordfeminine" format="2">
  <advance width="341"/>
  <unicode hex="00AA"/>
  <outline>
    <contour>
      <point x="127" y="405" type="curve" smooth="yes"/>
      <point x="160" y="405"/>
      <point x="191" y="424"/>
      <point x="212" y="439" type="curve"/>
      <point x="217" y="423"/>
      <point x="227" y="406"/>
      <point x="252" y="406" type="curve" smooth="yes"/>
      <point x="274" y="406"/>
      <point x="296" y="418"/>
      <point x="311" y="439" type="curve"/>
      <point x="291" y="457" type="line"/>
      <point x="286" y="453"/>
      <point x="278" y="444"/>
      <point x="274" y="444" type="curve" smooth="yes"/>
      <point x="269" y="444"/>
      <point x="267" y="452"/>
      <point x="267" y="476" type="curve" smooth="yes"/>
      <point x="267" y="622" type="line" smooth="yes"/>
      <point x="267" y="665"/>
      <point x="254" y="707"/>
      <point x="173" y="707" type="curve" smooth="yes"/>
      <point x="106" y="707"/>
      <point x="53" y="678"/>
      <point x="53" y="641" type="curve" smooth="yes"/>
      <point x="53" y="622"/>
      <point x="66" y="611"/>
      <point x="86" y="611" type="curve" smooth="yes"/>
      <point x="136" y="611"/>
      <point x="118" y="676"/>
      <point x="169" y="676" type="curve" smooth="yes"/>
      <point x="208" y="676"/>
      <point x="208" y="638"/>
      <point x="208" y="612" type="curve" smooth="yes"/>
      <point x="208" y="594" type="line"/>
      <point x="127" y="573"/>
      <point x="43" y="544"/>
      <point x="43" y="476" type="curve" smooth="yes"/>
      <point x="43" y="423"/>
      <point x="95" y="405"/>
    </contour>
    <contour>
      <point x="144" y="443" type="curve" smooth="yes"/>
      <point x="120" y="443"/>
      <point x="108" y="456"/>
      <point x="108" y="477" type="curve" smooth="yes"/>
      <point x="108" y="523"/>
      <point x="164" y="548"/>
      <point x="208" y="562" type="curve"/>
      <point x="208" y="469" type="line"/>
      <point x="184" y="454"/>
      <point x="166" y="443"/>
    </contour>
  </outline>
</glyph>
<glyph name="logicalnot" format="2">
  <advance width="649"/>
  <unicode hex="00AC"/>
  <outline>
    <contour>
      <point x="468" y="82" type="line"/>
      <point x="539" y="82" type="line"/>
      <point x="539" y="383" type="line"/>
      <point x="62" y="383" type="line"/>
      <point x="62" y="311" type="line"/>
      <point x="468" y="311" type="line"/>
    </contour>
  </outline>
</glyph>
<glyph name="degree" format="2">
  <advance width="324"/>
  <unicode hex="00B0"/>
  <outline>
    <contour>
      <point x="163" y="468" type="curve" smooth="yes"/>
      <point x="222" y="468"/>
      <point x="281" y="517"/>
      <point x="281" y="601" type="curve" smooth="yes"/>
      <point x="281" y="685"/>
      <point x="223" y="735"/>
      <point x="163" y="735" type="curve" smooth="yes"/>
      <point x="104" y="735"/>
      <point x="43" y="686"/>
      <point x="43" y="602" type="curve" smooth="yes"/>
      <point x="43" y="521"/>
      <point x="101" y="468"/>
    </contour>
    <contour>
      <point x="162" y="519" type="curve" smooth="yes"/>
      <point x="122" y="519"/>
      <point x="107" y="561"/>
      <point x="107" y="601" type="curve" smooth="yes"/>
      <point x="107" y="641"/>
      <point x="123" y="684"/>
      <point x="163" y="684" type="curve" smooth="yes"/>
      <point x="204" y="684"/>
      <point x="217" y="641"/>
      <point x="217" y="601" type="curve" smooth="yes"/>
      <point x="217" y="561"/>
      <point x="202" y="519"/>
    </contour>
  </outline>
</glyph>
<glyph name="twosuperior" format="2">
  <advance width="355"/>
  <unicode hex="00B2"/>
  <outline>
    <contour>
      <point x="32" y="327" type="line"/>
      <point x="288" y="327" type="line"/>
      <point x="317" y="446" type="line"/>
      <point x="284" y="453" type="line"/>
      <point x="267" y="398"/>
      <point x="251" y="382"/>
      <point x="210" y="382" type="curve" smooth="yes"/>
      <point x="95" y="382" type="line"/>
      <point x="121" y="417"/>
      <point x="144" y="441"/>
      <point x="185" y="475" type="curve" smooth="yes"/>
      <point x="252" y="531"/>
      <point x="312" y="569"/>
      <point x="312" y="639" type="curve" smooth="yes"/>
      <point x="312" y="701"/>
      <point x="265" y="751"/>
      <point x="185" y="751" type="curve" smooth="yes"/>
      <point x="97" y="751"/>
      <point x="46" y="691"/>
      <point x="46" y="647" type="curve" smooth="yes"/>
      <point x="46" y="623"/>
      <point x="62" y="597"/>
      <point x="88" y="597" type="curve" smooth="yes"/>
      <point x="109" y="597"/>
      <point x="126" y="615"/>
      <point x="126" y="634" type="curve" smooth="yes"/>
      <point x="126" y="651"/>
      <point x="111" y="667"/>
      <point x="111" y="681" type="curve" smooth="yes"/>
      <point x="111" y="700"/>
      <point x="138" y="717"/>
      <point x="174" y="717" type="curve" smooth="yes"/>
      <point x="211" y="717"/>
      <point x="240" y="699"/>
      <point x="240" y="647" type="curve" smooth="yes"/>
      <point x="240" y="584"/>
      <point x="196" y="551"/>
      <point x="148" y="501" type="curve" smooth="yes"/>
      <point x="101" y="453"/>
      <point x="50" y="389"/>
      <point x="32" y="354" type="curve"/>
    </contour>
  </outline>
</glyph>
<glyph name="threesuperior" format="2">
  <advance width="355"/>
  <unicode hex="00B3"/>
  <outline>
    <contour>
      <point x="168" y="317" type="curve" smooth="yes"/>
      <point x="267" y="317"/>
      <point x="320" y="376"/>
      <point x="320" y="439" type="curve" smooth="yes"/>
      <point x="320" y="473"/>
      <point x="305" y="500"/>
      <point x="279" y="522" type="curve" smooth="yes"/>
      <point x="262" y="536"/>
      <point x="249" y="543"/>
      <point x="222" y="548" type="curve"/>
      <point x="272" y="568"/>
      <point x="305" y="597"/>
      <point x="305" y="647" type="curve" smooth="yes"/>
      <point x="305" y="709"/>
      <point x="254" y="751"/>
      <point x="180" y="751" type="curve" smooth="yes"/>
      <point x="112" y="751"/>
      <point x="44" y="715"/>
      <point x="44" y="664" type="curve" smooth="yes"/>
      <point x="44" y="646"/>
      <point x="53" y="626"/>
      <point x="84" y="626" type="curve" smooth="yes"/>
      <point x="112" y="626"/>
      <point x="121" y="643"/>
      <point x="121" y="661" type="curve" smooth="yes"/>
      <point x="121" y="670"/>
      <point x="119" y="680"/>
      <point x="119" y="688" type="curve" smooth="yes"/>
      <point x="119" y="711"/>
      <point x="138" y="717"/>
      <point x="163" y="717" type="curve" smooth="yes"/>
      <point x="215" y="717"/>
      <point x="235" y="691"/>
      <point x="235" y="649" type="curve" smooth="yes"/>
      <point x="235" y="594"/>
      <point x="202" y="563"/>
      <point x="161" y="564" type="curve" smooth="yes"/>
      <point x="131" y="565" type="line" smooth="yes"/>
      <point x="119" y="565"/>
      <point x="110" y="556"/>
      <point x="110" y="546" type="curve" smooth="yes"/>
      <point x="110" y="535"/>
      <point x="119" y="529"/>
      <point x="132" y="529" type="curve" smooth="yes"/>
      <point x="163" y="530" type="line" smooth="yes"/>
      <point x="224" y="532"/>
      <point x="245" y="489"/>
      <point x="245" y="437" type="curve" smooth="yes"/>
      <point x="245" y="371"/>
      <point x="210" y="349"/>
      <point x="159" y="349" type="curve" smooth="yes"/>
      <point x="122" y="349"/>
      <point x="108" y="361"/>
      <point x="108" y="377" type="curve" smooth="yes"/>
      <point x="108" y="384"/>
      <point x="111" y="399"/>
      <point x="111" y="408" type="curve" smooth="yes"/>
      <point x="111" y="426"/>
      <point x="97" y="442"/>
      <point x="69" y="442" type="curve" smooth="yes"/>
      <point x="39" y="442"/>
      <point x="30" y="423"/>
      <point x="30" y="402" type="curve" smooth="yes"/>
      <point x="30" y="343"/>
      <point x="102" y="317"/>
    </contour>
  </outline>
</glyph>
<glyph name="micro" format="2">
  <advance width="537"/>
  <unicode hex="00B5"/>
  <anchor x="269" y="0" name="dotbelow"/>
  <anchor x="269" y="558" name="top"/>
  <outline>
    <contour>
      <point x="116" y="-365" type="curve" smooth="yes"/>
      <point x="147" y="-365"/>
      <point x="175" y="-345"/>
      <point x="175" y="-278" type="curve" smooth="yes"/>
      <point x="175" y="-203"/>
      <point x="139" y="-177"/>
      <point x="134" y="13" type="curve"/>
      <point x="156" y="-5"/>
      <point x="183" y="-14"/>
      <point x="214" y="-14" type="curve" smooth="yes"/>
      <point x="285" y="-14"/>
      <point x="334" y="32"/>
      <point x="368" y="68" type="curve"/>
      <point x="368" y="-9" type="line"/>
      <point x="512" y="0" type="line"/>
      <point x="512" y="36" type="line"/>
      <point x="464" y="37"/>
      <point x="451" y="42"/>
      <point x="451" y="109" type="curve" smooth="yes"/>
      <point x="451" y="490" type="line"/>
      <point x="299" y="442" type="line"/>
      <point x="299" y="412" type="line"/>
      <point x="358" y="403"/>
      <point x="368" y="399"/>
      <point x="368" y="337" type="curve" smooth="yes"/>
      <point x="368" y="116" type="line"/>
      <point x="331" y="78"/>
      <point x="289" y="51"/>
      <point x="248" y="51" type="curve" smooth="yes"/>
      <point x="227" y="51"/>
      <point x="205" y="58"/>
      <point x="193" y="78" type="curve" smooth="yes"/>
      <point x="182" y="96"/>
      <point x="177" y="127"/>
      <point x="177" y="169" type="curve" smooth="yes"/>
      <point x="177" y="490" type="line"/>
      <point x="26" y="442" type="line"/>
      <point x="26" y="412" type="line"/>
      <point x="84" y="403"/>
      <point x="94" y="399"/>
      <point x="94" y="337" type="curve" smooth="yes"/>
      <point x="94" y="56" type="line" smooth="yes"/>
      <point x="94" y="-177"/>
      <point x="55" y="-198"/>
      <point x="55" y="-277" type="curve" smooth="yes"/>
      <point x="55" y="-345"/>
      <point x="84" y="-365"/>
    </contour>
  </outline>
</glyph>
<glyph name="paragraph" format="2">
  <advance width="571"/>
  <unicode hex="00B6"/>
  <outline>
    <contour>
      <point x="119" y="-181" type="line"/>
      <point x="288" y="-181" type="line"/>
      <point x="288" y="679" type="line"/>
      <point x="378" y="679" type="line"/>
      <point x="378" y="-181" type="line"/>
      <point x="541" y="-181" type="line"/>
      <point x="541" y="-138" type="line"/>
      <point x="518" y="-138" type="line" smooth="yes"/>
      <point x="464" y="-138"/>
      <point x="446" y="-128"/>
      <point x="446" y="-50" type="curve" smooth="yes"/>
      <point x="446" y="599" type="line" smooth="yes"/>
      <point x="446" y="662"/>
      <point x="462" y="679"/>
      <point x="517" y="679" type="curve" smooth="yes"/>
      <point x="541" y="679" type="line"/>
      <point x="541" y="721" type="line"/>
      <point x="219" y="721" type="line" smooth="yes"/>
      <point x="97" y="721"/>
      <point x="36" y="658"/>
      <point x="36" y="526" type="curve" smooth="yes"/>
      <point x="36" y="395"/>
      <point x="97" y="332"/>
      <point x="219" y="332" type="curve"/>
      <point x="219" y="-50" type="line" smooth="yes"/>
      <point x="219" y="-128"/>
      <point x="202" y="-138"/>
      <point x="148" y="-138" type="curve" smooth="yes"/>
      <point x="119" y="-138" type="line"/>
    </contour>
  </outline>
</glyph>
<glyph name="onesuperior" format="2">
  <advance width="355"/>
  <unicode hex="00B9"/>
  <outline>
    <contour>
      <point x="70" y="327" type="line"/>
      <point x="303" y="327" type="line"/>
      <point x="303" y="359" type="line"/>
      <point x="229" y="359"/>
      <point x="218" y="371"/>
      <point x="218" y="412" type="curve" smooth="yes"/>
      <point x="218" y="757" type="line"/>
      <point x="168" y="739"/>
      <point x="124" y="721"/>
      <point x="64" y="711" type="curve"/>
      <point x="64" y="680" type="line"/>
      <point x="152" y="680"/>
      <point x="155" y="678"/>
      <point x="155" y="628" type="curve" smooth="yes"/>
      <point x="155" y="412" type="line" smooth="yes"/>
      <point x="155" y="371"/>
      <point x="144" y="359"/>
      <point x="70" y="359" type="curve"/>
    </contour>
  </outline>
</glyph>
<glyph name="ordmasculine" format="2">
  <advance width="371"/>
  <unicode hex="00BA"/>
  <outline>
    <contour>
      <point x="185" y="406" type="curve" smooth="yes"/>
      <point x="273" y="406"/>
      <point x="328" y="481"/>
      <point x="328" y="558" type="curve" smooth="yes"/>
      <point x="328" y="644"/>
      <point x="260" y="707"/>
      <point x="186" y="707" type="curve" smooth="yes"/>
      <point x="114" y="707"/>
      <point x="43" y="647"/>
      <point x="43" y="559" type="curve" smooth="yes"/>
      <point x="43" y="482"/>
      <point x="97" y="406"/>
    </contour>
    <contour>
      <point x="186" y="436" type="curve" smooth="yes"/>
      <point x="136" y="436"/>
      <point x="109" y="491"/>
      <point x="109" y="557" type="curve" smooth="yes"/>
      <point x="109" y="622"/>
      <point x="136" y="678"/>
      <point x="186" y="678" type="curve" smooth="yes"/>
      <point x="237" y="678"/>
      <point x="262" y="621"/>
      <point x="262" y="557" type="curve" smooth="yes"/>
      <point x="262" y="491"/>
      <point x="236" y="436"/>
    </contour>
  </outline>
</glyph>
<glyph name="AE" format="2">
  <advance width="1065"/>
  <unicode hex="00C6"/>
  <anchor x="659" y="813" name="top"/>
  <outline>
    <contour>
      <point x="-8" y="0" type="line"/>
      <point x="223" y="0" type="line"/>
      <point x="223" y="42" type="line"/>
      <point x="159" y="42"/>
      <point x="137" y="44"/>
      <point x="137" y="64" type="curve" smooth="yes"/>
      <point x="137" y="77"/>
      <point x="146" y="95"/>
      <point x="158" y="114" type="curve" smooth="yes"/>
      <point x="248" y="256" type="line"/>
      <point x="522" y="256" type="line"/>
      <point x="522" y="131" type="line" smooth="yes"/>
      <point x="522" y="53"/>
      <point x="505" y="42"/>
      <point x="451" y="42" type="curve" smooth="yes"/>
      <point x="428" y="42" type="line"/>
      <point x="428" y="0" type="line"/>
      <point x="951" y="0" type="line"/>
      <point x="1022" y="190" type="line"/>
      <point x="988" y="204" type="line"/>
      <point x="938" y="133"/>
      <point x="867" y="41"/>
      <point x="701" y="41" type="curve" smooth="yes"/>
      <point x="635" y="41"/>
      <point x="623" y="55"/>
      <point x="623" y="116" type="curve" smooth="yes"/>
      <point x="623" y="349" type="line"/>
      <point x="653" y="349" type="line" smooth="yes"/>
      <point x="781" y="349"/>
      <point x="791" y="310"/>
      <point x="808" y="225" type="curve"/>
      <point x="848" y="225" type="line"/>
      <point x="848" y="511" type="line"/>
      <point x="806" y="511" type="line"/>
      <point x="789" y="426"/>
      <point x="775" y="391"/>
      <point x="653" y="391" type="curve" smooth="yes"/>
      <point x="623" y="391" type="line"/>
      <point x="623" y="615" type="line" smooth="yes"/>
      <point x="623" y="670"/>
      <point x="648" y="679"/>
      <point x="711" y="679" type="curve" smooth="yes"/>
      <point x="819" y="679"/>
      <point x="880" y="651"/>
      <point x="962" y="533" type="curve"/>
      <point x="1000" y="548" type="line"/>
      <point x="936" y="721" type="line"/>
      <point x="399" y="721" type="line"/>
      <point x="399" y="680" type="line"/>
      <point x="455" y="680" type="line" smooth="yes"/>
      <point x="472" y="680"/>
      <point x="475" y="674"/>
      <point x="475" y="670" type="curve" smooth="yes"/>
      <point x="475" y="663"/>
      <point x="462" y="647"/>
      <point x="446" y="624" type="curve" smooth="yes"/>
      <point x="94" y="114" type="line" smooth="yes"/>
      <point x="68" y="76"/>
      <point x="35" y="42"/>
      <point x="-8" y="42" type="curve"/>
    </contour>
    <contour>
      <point x="276" y="298" type="line"/>
      <point x="522" y="655" type="line"/>
      <point x="522" y="298" type="line"/>
    </contour>
  </outline>
</glyph>
<glyph name="Eth" format="2">
  <advance width="721"/>
  <unicode hex="00D0"/>
  <outline>
    <contour>
      <point x="31" y="346" type="line"/>
      <point x="413" y="346" type="line"/>
      <point x="413" y="388" type="line"/>
      <point x="31" y="388" type="line"/>
    </contour>
    <component base="D"/>
  </outline>
</glyph>
<glyph name="Oslash" format="2">
  <advance width="707"/>
  <unicode hex="00D8"/>
  <outline>
    <contour>
      <point x="157" y="-39" type="line"/>
      <point x="586" y="723" type="line"/>
      <point x="550" y="743" type="line"/>
      <point x="122" y="-18" type="line"/>
    </contour>
    <component base="O"/>
  </outline>
</glyph>
<glyph name="Thorn" format="2">
  <advance width="621"/>
  <unicode hex="00DE"/>
  <outline>
    <contour>
      <point x="32" y="0" type="line"/>
      <point x="328" y="0" type="line"/>
      <point x="328" y="42" type="line"/>
      <point x="298" y="42" type="line" smooth="yes"/>
      <point x="244" y="42"/>
      <point x="227" y="53"/>
      <point x="227" y="131" type="curve" smooth="yes"/>
      <point x="227" y="170" type="line"/>
      <point x="261" y="170" type="line" smooth="yes"/>
      <point x="349" y="170"/>
      <point x="430" y="170"/>
      <point x="493" y="203" type="curve" smooth="yes"/>
      <point x="552" y="234"/>
      <point x="588" y="289"/>
      <point x="588" y="361" type="curve" smooth="yes"/>
      <point x="588" y="468"/>
      <point x="507" y="520"/>
      <point x="457" y="538" type="curve" smooth="yes"/>
      <point x="421" y="551"/>
      <point x="368" y="559"/>
      <point x="294" y="559" type="curve" smooth="yes"/>
      <point x="227" y="559" type="line"/>
      <point x="227" y="599" type="line" smooth="yes"/>
      <point x="227" y="662"/>
      <point x="242" y="679"/>
      <point x="297" y="679" type="curve" smooth="yes"/>
      <point x="328" y="679" type="line"/>
      <point x="328" y="721" type="line"/>
      <point x="32" y="721" type="line"/>
      <point x="32" y="679" type="line"/>
      <point x="56" y="679" type="line" smooth="yes"/>
      <point x="111" y="679"/>
      <point x="126" y="662"/>
      <point x="126" y="599" type="curve" smooth="yes"/>
      <point x="126" y="131" type="line" smooth="yes"/>
      <point x="126" y="53"/>
      <point x="109" y="42"/>
      <point x="55" y="42" type="curve" smooth="yes"/>
      <point x="32" y="42" type="line"/>
    </contour>
    <contour>
      <point x="227" y="214" type="line"/>
      <point x="227" y="449" type="line" smooth="yes"/>
      <point x="227" y="475"/>
      <point x="233" y="489"/>
      <point x="236" y="494" type="curve" smooth="yes"/>
      <point x="248" y="514"/>
      <point x="289" y="519"/>
      <point x="321" y="519" type="curve" smooth="yes"/>
      <point x="431" y="519"/>
      <point x="477" y="459"/>
      <point x="477" y="364" type="curve" smooth="yes"/>
      <point x="477" y="214"/>
      <point x="364" y="214"/>
      <point x="285" y="214" type="curve" smooth="yes"/>
    </contour>
  </outline>
</glyph>
<glyph name="germandbls" format="2">
  <advance width="549"/>
  <unicode hex="00DF"/>
  <outline>
    <contour>
      <point x="358" y="-14" type="curve" smooth="yes"/>
      <point x="476" y="-14"/>
      <point x="526" y="71"/>
      <point x="526" y="155" type="curve" smooth="yes"/>
      <point x="526" y="309"/>
      <point x="355" y="353"/>
      <point x="355" y="410" type="curve" smooth="yes"/>
      <point x="355" y="456"/>
      <point x="470" y="473"/>
      <point x="470" y="588" type="curve" smooth="yes"/>
      <point x="470" y="677"/>
      <point x="401" y="735"/>
      <point x="289" y="735" type="curve" smooth="yes"/>
      <point x="173" y="735"/>
      <point x="84" y="672"/>
      <point x="84" y="479" type="curve" smooth="yes"/>
      <point x="84" y="95" type="line" smooth="yes"/>
      <point x="84" y="56"/>
      <point x="77" y="40"/>
      <point x="23" y="40" type="curve"/>
      <point x="23" y="0" type="line"/>
      <point x="168" y="0" type="line"/>
      <point x="168" y="468" type="line"/>
      <point x="166" y="543" type="line" smooth="yes"/>
      <point x="164" y="629"/>
      <point x="208" y="698"/>
      <point x="289" y="698" type="curve" smooth="yes"/>
      <point x="361" y="698"/>
      <point x="395" y="643"/>
      <point x="395" y="579" type="curve" smooth="yes"/>
      <point x="395" y="457"/>
      <point x="271" y="458"/>
      <point x="271" y="383" type="curve" smooth="yes"/>
      <point x="271" y="295"/>
      <point x="439" y="277"/>
      <point x="439" y="127" type="curve" smooth="yes"/>
      <point x="439" y="66"/>
      <point x="411" y="28"/>
      <point x="362" y="28" type="curve" smooth="yes"/>
      <point x="320" y="28"/>
      <point x="307" y="55"/>
      <point x="307" y="82" type="curve" smooth="yes"/>
      <point x="307" y="106"/>
      <point x="295" y="124"/>
      <point x="267" y="124" type="curve" smooth="yes"/>
      <point x="238" y="124"/>
      <point x="224" y="105"/>
      <point x="224" y="80" type="curve" smooth="yes"/>
      <point x="224" y="39"/>
      <point x="264" y="-14"/>
    </contour>
  </outline>
</glyph>
<glyph name="ae" format="2">
  <advance width="770"/>
  <unicode hex="00E6"/>
  <anchor x="388" y="558" name="top"/>
  <outline>
    <contour>
      <point x="170" y="-14" type="curve" smooth="yes"/>
      <point x="251" y="-14"/>
      <point x="298" y="38"/>
      <point x="342" y="79" type="curve"/>
      <point x="384" y="17"/>
      <point x="448" y="-14"/>
      <point x="524" y="-14" type="curve" smooth="yes"/>
      <point x="619" y="-14"/>
      <point x="686" y="35"/>
      <point x="734" y="101" type="curve"/>
      <point x="707" y="122" type="line"/>
      <point x="663" y="72"/>
      <point x="610" y="43"/>
      <point x="550" y="43" type="curve" smooth="yes"/>
      <point x="507" y="43"/>
      <point x="469" y="59"/>
      <point x="439" y="93" type="curve" smooth="yes"/>
      <point x="409" y="127"/>
      <point x="392" y="175"/>
      <point x="392" y="257" type="curve"/>
      <point x="729" y="257" type="line"/>
      <point x="721" y="373"/>
      <point x="655" y="482"/>
      <point x="530" y="482" type="curve" smooth="yes"/>
      <point x="469" y="482"/>
      <point x="417" y="456"/>
      <point x="376" y="413" type="curve"/>
      <point x="359" y="444"/>
      <point x="322" y="482"/>
      <point x="235" y="482" type="curve" smooth="yes"/>
      <point x="142" y="482"/>
      <point x="54" y="439"/>
      <point x="54" y="380" type="curve" smooth="yes"/>
      <point x="54" y="352"/>
      <point x="73" y="332"/>
      <point x="104" y="332" type="curve" smooth="yes"/>
      <point x="175" y="332"/>
      <point x="144" y="441"/>
      <point x="231" y="441" type="curve" smooth="yes"/>
      <point x="286" y="441"/>
      <point x="299" y="397"/>
      <point x="299" y="355" type="curve" smooth="yes"/>
      <point x="299" y="292" type="line"/>
      <point x="169" y="256"/>
      <point x="38" y="212"/>
      <point x="38" y="97" type="curve" smooth="yes"/>
      <point x="38" y="9"/>
      <point x="116" y="-14"/>
    </contour>
    <contour>
      <point x="193" y="37" type="curve" smooth="yes"/>
      <point x="154" y="37"/>
      <point x="130" y="66"/>
      <point x="130" y="104" type="curve" smooth="yes"/>
      <point x="130" y="184"/>
      <point x="234" y="232"/>
      <point x="301" y="252" type="curve"/>
      <point x="301" y="221" type="line" smooth="yes"/>
      <point x="301" y="175"/>
      <point x="308" y="139"/>
      <point x="325" y="106" type="curve"/>
      <point x="275" y="57"/>
      <point x="226" y="37"/>
    </contour>
    <contour>
      <point x="399" y="301" type="line"/>
      <point x="415" y="401"/>
      <point x="466" y="445"/>
      <point x="525" y="445" type="curve" smooth="yes"/>
      <point x="578" y="445"/>
      <point x="627" y="410"/>
      <point x="635" y="301" type="curve"/>
    </contour>
  </outline>
</glyph>
<glyph name="ccedilla" format="2">
  <advance width="462"/>
  <unicode hex="00E7"/>
  <anchor x="224" y="-17" name="attachcedilla"/>
  <outline>
    <contour>
      <point x="215" y="-217" type="curve" smooth="yes"/>
      <point x="285" y="-217"/>
      <point x="338" y="-186"/>
      <point x="338" y="-132" type="curve" smooth="yes"/>
      <point x="338" y="-92"/>
      <point x="308" y="-63"/>
      <point x="268" y="-63" type="curve" smooth="yes"/>
      <point x="252" y="-63"/>
      <point x="236" y="-68"/>
      <point x="236" y="-68" type="curve"/>
      <point x="254" y="-14" type="line"/>
      <point x="346" y="-12"/>
      <point x="408" y="48"/>
      <point x="443" y="109" type="curve"/>
      <point x="410" y="130" type="line"/>
      <point x="378" y="81"/>
      <point x="333" y="43"/>
      <point x="275" y="43" type="curve" smooth="yes"/>
      <point x="190" y="43"/>
      <point x="134" y="125"/>
      <point x="134" y="249" type="curve" smooth="yes"/>
      <point x="134" y="363"/>
      <point x="181" y="442"/>
      <point x="252" y="442" type="curve" smooth="yes"/>
      <point x="335" y="442"/>
      <point x="308" y="336"/>
      <point x="374" y="336" type="curve" smooth="yes"/>
      <point x="405" y="336"/>
      <point x="427" y="360"/>
      <point x="427" y="387" type="curve" smooth="yes"/>
      <point x="427" y="436"/>
      <point x="352" y="482"/>
      <point x="273" y="482" type="curve" smooth="yes"/>
      <point x="145" y="482"/>
      <point x="41" y="363"/>
      <point x="41" y="219" type="curve" smooth="yes"/>
      <point x="41" y="93"/>
      <point x="120" y="-1"/>
      <point x="224" y="-13" type="curve"/>
      <point x="190" y="-93" type="line"/>
      <point x="201" y="-99" type="line"/>
      <point x="208" y="-98"/>
      <point x="219" y="-96"/>
      <point x="229" y="-96" type="curve" smooth="yes"/>
      <point x="262" y="-96"/>
      <point x="270" y="-115"/>
      <point x="270" y="-133" type="curve" smooth="yes"/>
      <point x="270" y="-166"/>
      <point x="242" y="-183"/>
      <point x="210" y="-183" type="curve" smooth="yes"/>
      <point x="183" y="-183"/>
      <point x="156" y="-171"/>
      <point x="141" y="-164" type="curve"/>
      <point x="123" y="-197" type="line"/>
      <point x="147" y="-208"/>
      <point x="177" y="-217"/>
    </contour>
  </outline>
</glyph>
<glyph name="eth" format="2">
  <advance width="533"/>
  <unicode hex="00F0"/>
  <outline>
    <contour>
      <point x="258" y="-14" type="curve" smooth="yes"/>
      <point x="396" y="-14"/>
      <point x="492" y="126"/>
      <point x="492" y="291" type="curve" smooth="yes"/>
      <point x="492" y="451"/>
      <point x="401" y="586"/>
      <point x="332" y="652" type="curve"/>
      <point x="485" y="735" type="line"/>
      <point x="466" y="766" type="line"/>
      <point x="302" y="677" type="line"/>
      <point x="264" y="714"/>
      <point x="186" y="756"/>
      <point x="142" y="772" type="curve"/>
      <point x="120" y="738" type="line"/>
      <point x="161" y="712"/>
      <point x="214" y="681"/>
      <point x="242" y="645" type="curve"/>
      <point x="83" y="559" type="line"/>
      <point x="99" y="525" type="line"/>
      <point x="268" y="616" type="line"/>
      <point x="295" y="588"/>
      <point x="338" y="511"/>
      <point x="355" y="458" type="curve"/>
      <point x="325" y="474"/>
      <point x="294" y="482"/>
      <point x="262" y="482" type="curve" smooth="yes"/>
      <point x="152" y="482"/>
      <point x="41" y="385"/>
      <point x="41" y="235" type="curve" smooth="yes"/>
      <point x="41" y="97"/>
      <point x="136" y="-14"/>
    </contour>
    <contour>
      <point x="261" y="23" type="curve" smooth="yes"/>
      <point x="179" y="23"/>
      <point x="135" y="120"/>
      <point x="135" y="234" type="curve" smooth="yes"/>
      <point x="135" y="347"/>
      <point x="178" y="445"/>
      <point x="261" y="445" type="curve" smooth="yes"/>
      <point x="343" y="445"/>
      <point x="387" y="348"/>
      <point x="387" y="235" type="curve" smooth="yes"/>
      <point x="387" y="121"/>
      <point x="343" y="23"/>
    </contour>
  </outline>
</glyph>
<glyph name="oslash" format="2">
  <advance width="522"/>
  <unicode hex="00F8"/>
  <anchor x="262" y="558" name="top"/>
  <outline>
    <contour>
      <point x="121" y="-54" type="line"/>
      <point x="159" y="13" type="line"/>
      <point x="188" y="-4"/>
      <point x="223" y="-14"/>
      <point x="262" y="-14" type="curve" smooth="yes"/>
      <point x="396" y="-14"/>
      <point x="481" y="107"/>
      <point x="481" y="236" type="curve" smooth="yes"/>
      <point x="481" y="320"/>
      <point x="445" y="390"/>
      <point x="392" y="434" type="curve"/>
      <point x="432" y="505" type="line"/>
      <point x="401" y="522" type="line"/>
      <point x="363" y="454" type="line"/>
      <point x="332" y="472"/>
      <point x="297" y="482"/>
      <point x="262" y="482" type="curve" smooth="yes"/>
      <point x="152" y="482"/>
      <point x="41" y="385"/>
      <point x="41" y="237" type="curve" smooth="yes"/>
      <point x="41" y="159"/>
      <point x="72" y="82"/>
      <point x="129" y="34" type="curve"/>
      <point x="90" y="-36" type="line"/>
    </contour>
    <contour>
      <point x="261" y="23" type="curve" smooth="yes"/>
      <point x="229" y="23"/>
      <point x="204" y="37"/>
      <point x="185" y="61" type="curve"/>
      <point x="359" y="373" type="line"/>
      <point x="377" y="336"/>
      <point x="387" y="289"/>
      <point x="387" y="235" type="curve" smooth="yes"/>
      <point x="387" y="121"/>
      <point x="343" y="23"/>
    </contour>
    <contour>
      <point x="162" y="95" type="line"/>
      <point x="145" y="133"/>
      <point x="135" y="183"/>
      <point x="135" y="237" type="curve" smooth="yes"/>
      <point x="135" y="347"/>
      <point x="178" y="445"/>
      <point x="261" y="445" type="curve" smooth="yes"/>
      <point x="292" y="445"/>
      <point x="318" y="431"/>
      <point x="337" y="408" type="curve"/>
    </contour>
  </outline>
</glyph>
<glyph name="thorn" format="2">
  <advance width="539"/>
  <unicode hex="00FE"/>
  <outline>
    <contour>
      <point x="34" y="-181" type="line"/>
      <point x="253" y="-181" type="line"/>
      <point x="253" y="-141" type="line"/>
      <point x="246" y="-141" type="line" smooth="yes"/>
      <point x="192" y="-141"/>
      <point x="185" y="-128"/>
      <point x="185" y="-82" type="curve" smooth="yes"/>
      <point x="185" y="40" type="line"/>
      <point x="215" y="13"/>
      <point x="253" y="-14"/>
      <point x="307" y="-14" type="curve" smooth="yes"/>
      <point x="415" y="-14"/>
      <point x="498" y="95"/>
      <point x="498" y="234" type="curve" smooth="yes"/>
      <point x="498" y="371"/>
      <point x="418" y="482"/>
      <point x="310" y="482" type="curve" smooth="yes"/>
      <point x="259" y="482"/>
      <point x="217" y="457"/>
      <point x="185" y="428" type="curve"/>
      <point x="185" y="729" type="line"/>
      <point x="34" y="681" type="line"/>
      <point x="34" y="651" type="line"/>
      <point x="92" y="642"/>
      <point x="102" y="638"/>
      <point x="102" y="576" type="curve" smooth="yes"/>
      <point x="102" y="-82" type="line" smooth="yes"/>
      <point x="102" y="-121"/>
      <point x="96" y="-141"/>
      <point x="42" y="-141" type="curve" smooth="yes"/>
      <point x="34" y="-141" type="line"/>
    </contour>
    <contour>
      <point x="285" y="41" type="curve" smooth="yes"/>
      <point x="241" y="41"/>
      <point x="215" y="62"/>
      <point x="185" y="85" type="curve"/>
      <point x="185" y="377" type="line"/>
      <point x="209" y="408"/>
      <point x="241" y="431"/>
      <point x="286" y="431" type="curve" smooth="yes"/>
      <point x="350" y="431"/>
      <point x="404" y="385"/>
      <point x="404" y="236" type="curve" smooth="yes"/>
      <point x="404" y="98"/>
      <point x="358" y="41"/>
    </contour>
  </outline>
</glyph>
<glyph name="dcroat" format="2">
  <advance width="524"/>
  <unicode hex="0111"/>
  <outline>
    <contour>
      <point x="241" y="525" type="line"/>
      <point x="502" y="525" type="line"/>
      <point x="502" y="565" type="line"/>
      <point x="241" y="565" type="line"/>
    </contour>
    <component base="d"/>
  </outline>
</glyph>
<glyph name="eogonek" format="2">
  <advance width="510"/>
  <unicode hex="0119"/>
  <outline>
    <contour>
      <point x="359" y="-204" type="curve" smooth="yes"/>
      <point x="399" y="-204"/>
      <point x="427" y="-190"/>
      <point x="448" y="-175" type="curve"/>
      <point x="428" y="-141" type="line"/>
      <point x="412" y="-151"/>
      <point x="401" y="-156"/>
      <point x="381" y="-156" type="curve" smooth="yes"/>
      <point x="332" y="-156"/>
      <point x="315" y="-126"/>
      <point x="315" y="-91" type="curve" smooth="yes"/>
      <point x="315" y="-36"/>
      <point x="356" y="-3"/>
      <point x="376" y="13" type="curve"/>
      <point x="322" y="3" type="line"/>
      <point x="285" y="-19"/>
      <point x="254" y="-57"/>
      <point x="254" y="-108" type="curve" smooth="yes"/>
      <point x="254" y="-167"/>
      <point x="294" y="-204"/>
    </contour>
    <component base="e"/>
  </outline>
</glyph>
<glyph name="Hbar" format="2">
  <advance width="738"/>
  <unicode hex="0126"/>
  <anchor x="370" y="813" name="top"/>
  <outline>
    <contour>
      <point x="32" y="0" type="line"/>
      <point x="314" y="0" type="line"/>
      <point x="314" y="42" type="line"/>
      <point x="298" y="42" type="line" smooth="yes"/>
      <point x="244" y="42"/>
      <point x="227" y="53"/>
      <point x="227" y="131" type="curve" smooth="yes"/>
      <point x="227" y="345" type="line"/>
      <point x="512" y="345" type="line"/>
      <point x="512" y="131" type="line" smooth="yes"/>
      <point x="512" y="53"/>
      <point x="495" y="42"/>
      <point x="441" y="42" type="curve" smooth="yes"/>
      <point x="426" y="42" type="line"/>
      <point x="426" y="0" type="line"/>
      <point x="707" y="0" type="line"/>
      <point x="707" y="42" type="line"/>
      <point x="684" y="42" type="line" smooth="yes"/>
      <point x="630" y="42"/>
      <point x="613" y="53"/>
      <point x="613" y="131" type="curve" smooth="yes"/>
      <point x="613" y="511" type="line"/>
      <point x="706" y="511" type="line"/>
      <point x="706" y="554" type="line"/>
      <point x="613" y="554" type="line"/>
      <point x="613" y="599" type="line" smooth="yes"/>
      <point x="613" y="662"/>
      <point x="628" y="679"/>
      <point x="683" y="679" type="curve" smooth="yes"/>
      <point x="707" y="679" type="line"/>
      <point x="707" y="721" type="line"/>
      <point x="426" y="721" type="line"/>
      <point x="426" y="679" type="line"/>
      <point x="442" y="679" type="line" smooth="yes"/>
      <point x="497" y="679"/>
      <point x="512" y="662"/>
      <point x="512" y="599" type="curve" smooth="yes"/>
      <point x="512" y="554" type="line"/>
      <point x="227" y="554" type="line"/>
      <point x="227" y="599" type="line" smooth="yes"/>
      <point x="227" y="662"/>
      <point x="242" y="679"/>
      <point x="297" y="679" type="curve" smooth="yes"/>
      <point x="314" y="679" type="line"/>
      <point x="314" y="721" type="line"/>
      <point x="32" y="721" type="line"/>
      <point x="32" y="679" type="line"/>
      <point x="56" y="679" type="line" smooth="yes"/>
      <point x="111" y="679"/>
      <point x="126" y="662"/>
      <point x="126" y="599" type="curve" smooth="yes"/>
      <point x="126" y="554" type="line"/>
      <point x="32" y="554" type="line"/>
      <point x="32" y="511" type="line"/>
      <point x="126" y="511" type="line"/>
      <point x="126" y="131" type="line" smooth="yes"/>
      <point x="126" y="53"/>
      <point x="109" y="42"/>
      <point x="55" y="42" type="curve" smooth="yes"/>
      <point x="32" y="42" type="line"/>
    </contour>
    <contour>
      <point x="227" y="394" type="line"/>
      <point x="227" y="511" type="line"/>
      <point x="512" y="511" type="line"/>
      <point x="512" y="394" type="line"/>
    </contour>
  </outline>
</glyph>
<glyph name="hbar" format="2">
  <advance width="546"/>
  <unicode hex="0127"/>
  <outline>
    <contour>
      <point x="28" y="525" type="line"/>
      <point x="309" y="525" type="line"/>
      <point x="309" y="565" type="line"/>
      <point x="28" y="565" type="line"/>
    </contour>
    <component base="h"/>
  </outline>
</glyph>
<glyph name="idotless" format="2">
  <advance width="270"/>
  <unicode hex="0131"/>
  <anchor x="141" y="0" name="dotbelow"/>
  <anchor x="135" y="0" name="ogonek"/>
  <anchor x="141" y="558" name="top"/>
  <anchor x="141" y="558" name="top_dot"/>
  <outline>
    <contour>
      <point x="34" y="0" type="line"/>
      <point x="246" y="0" type="line"/>
      <point x="246" y="40" type="line"/>
      <point x="192" y="40"/>
      <point x="185" y="53"/>
      <point x="185" y="98" type="curve" smooth="yes"/>
      <point x="185" y="490" type="line"/>
      <point x="34" y="442" type="line"/>
      <point x="34" y="412" type="line"/>
      <point x="92" y="403"/>
      <point x="102" y="399"/>
      <point x="102" y="337" type="curve" smooth="yes"/>
      <point x="102" y="98" type="line" smooth="yes"/>
      <point x="102" y="59"/>
      <point x="96" y="40"/>
      <point x="42" y="40" type="curve" smooth="yes"/>
      <point x="34" y="40" type="line"/>
    </contour>
  </outline>
</glyph>
<glyph name="Lslash" format="2">
  <advance width="605"/>
  <unicode hex="0141"/>
  <outline>
    <contour>
      <point x="44" y="257" type="line"/>
      <point x="370" y="431" type="line"/>
      <point x="370" y="488" type="line"/>
      <point x="44" y="308" type="line"/>
    </contour>
    <component base="L"/>
  </outline>
</glyph>
<glyph name="lslash" format="2">
  <advance width="263"/>
  <unicode hex="0142"/>
  <outline>
    <contour>
      <point x="38" y="298" type="line"/>
      <point x="236" y="399" type="line"/>
      <point x="236" y="451" type="line"/>
      <point x="38" y="347" type="line"/>
    </contour>
    <component base="l"/>
  </outline>
</glyph>
<glyph name="OE" format="2">
  <advance width="1043"/>
  <unicode hex="0152"/>
  <anchor x="568" y="813" name="top"/>
  <outline>
    <contour>
      <point x="386" y="0" type="curve" smooth="yes"/>
      <point x="931" y="0" type="line"/>
      <point x="1001" y="188" type="line"/>
      <point x="964" y="200" type="line"/>
      <point x="918" y="133"/>
      <point x="859" y="41"/>
      <point x="692" y="41" type="curve" smooth="yes"/>
      <point x="627" y="41"/>
      <point x="615" y="55"/>
      <point x="615" y="116" type="curve" smooth="yes"/>
      <point x="615" y="349" type="line"/>
      <point x="638" y="349" type="line" smooth="yes"/>
      <point x="765" y="349"/>
      <point x="777" y="310"/>
      <point x="794" y="225" type="curve"/>
      <point x="834" y="225" type="line"/>
      <point x="834" y="511" type="line"/>
      <point x="792" y="511" type="line"/>
      <point x="775" y="426"/>
      <point x="760" y="391"/>
      <point x="638" y="391" type="curve" smooth="yes"/>
      <point x="615" y="391" type="line"/>
      <point x="615" y="615" type="line" smooth="yes"/>
      <point x="615" y="670"/>
      <point x="640" y="679"/>
      <point x="704" y="679" type="curve" smooth="yes"/>
      <point x="812" y="679"/>
      <point x="856" y="652"/>
      <point x="938" y="534" type="curve"/>
      <point x="975" y="551" type="line"/>
      <point x="911" y="721" type="line"/>
      <point x="386" y="721" type="line" smooth="yes"/>
      <point x="175" y="721"/>
      <point x="43" y="568"/>
      <point x="43" y="362" type="curve" smooth="yes"/>
      <point x="43" y="151"/>
      <point x="182" y="0"/>
    </contour>
    <contour>
      <point x="395" y="44" type="curve" smooth="yes"/>
      <point x="279" y="44"/>
      <point x="155" y="71"/>
      <point x="155" y="362" type="curve" smooth="yes"/>
      <point x="155" y="586"/>
      <point x="228" y="677"/>
      <point x="387" y="677" type="curve" smooth="yes"/>
      <point x="458" y="677"/>
      <point x="515" y="659"/>
      <point x="515" y="532" type="curve" smooth="yes"/>
      <point x="515" y="201" type="line" smooth="yes"/>
      <point x="515" y="52"/>
      <point x="458" y="44"/>
    </contour>
  </outline>
</glyph>
<glyph name="oe" format="2">
  <advance width="848"/>
  <unicode hex="0153"/>
  <anchor x="437" y="558" name="top"/>
  <outline>
    <contour>
      <point x="262" y="-14" type="curve" smooth="yes"/>
      <point x="333" y="-14"/>
      <point x="390" y="18"/>
      <point x="425" y="79" type="curve"/>
      <point x="464" y="13"/>
      <point x="531" y="-14"/>
      <point x="603" y="-14" type="curve" smooth="yes"/>
      <point x="702" y="-14"/>
      <point x="770" y="37"/>
      <point x="815" y="101" type="curve"/>
      <point x="788" y="122" type="line"/>
      <point x="744" y="72"/>
      <point x="691" y="43"/>
      <point x="631" y="43" type="curve" smooth="yes"/>
      <point x="588" y="43"/>
      <point x="550" y="59"/>
      <point x="520" y="93" type="curve" smooth="yes"/>
      <point x="490" y="126"/>
      <point x="474" y="176"/>
      <point x="474" y="257" type="curve"/>
      <point x="810" y="257" type="line"/>
      <point x="800" y="380"/>
      <point x="736" y="482"/>
      <point x="605" y="482" type="curve" smooth="yes"/>
      <point x="496" y="482"/>
      <point x="452" y="411"/>
      <point x="435" y="381" type="curve"/>
      <point x="397" y="455"/>
      <point x="331" y="482"/>
      <point x="268" y="482" type="curve" smooth="yes"/>
      <point x="149" y="482"/>
      <point x="41" y="385"/>
      <point x="41" y="238" type="curve" smooth="yes"/>
      <point x="41" y="110"/>
      <point x="123" y="-14"/>
    </contour>
    <contour>
      <point x="261" y="23" type="curve" smooth="yes"/>
      <point x="179" y="23"/>
      <point x="135" y="120"/>
      <point x="135" y="234" type="curve" smooth="yes"/>
      <point x="135" y="347"/>
      <point x="178" y="445"/>
      <point x="261" y="445" type="curve" smooth="yes"/>
      <point x="343" y="445"/>
      <point x="382" y="348"/>
      <point x="382" y="235" type="curve" smooth="yes"/>
      <point x="382" y="121"/>
      <point x="343" y="23"/>
    </contour>
    <contour>
      <point x="480" y="301" type="line"/>
      <point x="496" y="402"/>
      <point x="547" y="445"/>
      <point x="606" y="445" type="curve" smooth="yes"/>
      <point x="660" y="445"/>
      <point x="708" y="410"/>
      <point x="716" y="301" type="curve"/>
    </contour>
  </outline>
</glyph>
<glyph name="Tcedilla" format="2">
  <advance width="641"/>
  <unicode hex="0162"/>
  <anchor x="303" y="-17" name="attachcedilla"/>
  <anchor x="322" y="0" name="commaaccentbelow"/>
  <anchor x="320" y="813" name="top"/>
  <outline>
    <contour>
      <point x="294" y="-217" type="curve" smooth="yes"/>
      <point x="364" y="-217"/>
      <point x="417" y="-186"/>
      <point x="417" y="-132" type="curve" smooth="yes"/>
      <point x="417" y="-92"/>
      <point x="387" y="-63"/>
      <point x="347" y="-63" type="curve" smooth="yes"/>
      <point x="331" y="-63"/>
      <point x="315" y="-68"/>
      <point x="315" y="-68" type="curve"/>
      <point x="337" y="0" type="line"/>
      <point x="471" y="0" type="line"/>
      <point x="471" y="42" type="line"/>
      <point x="442" y="42" type="line" smooth="yes"/>
      <point x="388" y="42"/>
      <point x="371" y="53"/>
      <point x="371" y="131" type="curve" smooth="yes"/>
      <point x="371" y="615" type="line" smooth="yes"/>
      <point x="371" y="664"/>
      <point x="371" y="679"/>
      <point x="411" y="679" type="curve" smooth="yes"/>
      <point x="469" y="679"/>
      <point x="533" y="647"/>
      <point x="611" y="526" type="curve"/>
      <point x="649" y="542" type="line"/>
      <point x="595" y="721" type="line"/>
      <point x="46" y="721" type="line"/>
      <point x="-8" y="542" type="line"/>
      <point x="30" y="526" type="line"/>
      <point x="108" y="647"/>
      <point x="172" y="679"/>
      <point x="230" y="679" type="curve" smooth="yes"/>
      <point x="270" y="679"/>
      <point x="270" y="664"/>
      <point x="270" y="615" type="curve" smooth="yes"/>
      <point x="270" y="131" type="line" smooth="yes"/>
      <point x="270" y="53"/>
      <point x="253" y="42"/>
      <point x="199" y="42" type="curve" smooth="yes"/>
      <point x="170" y="42" type="line"/>
      <point x="170" y="0" type="line"/>
      <point x="307" y="0" type="line"/>
      <point x="269" y="-93" type="line"/>
      <point x="280" y="-99" type="line"/>
      <point x="286" y="-98"/>
      <point x="298" y="-96"/>
      <point x="308" y="-96" type="curve" smooth="yes"/>
      <point x="341" y="-96"/>
      <point x="349" y="-115"/>
      <point x="349" y="-133" type="curve" smooth="yes"/>
      <point x="349" y="-166"/>
      <point x="321" y="-183"/>
      <point x="289" y="-183" type="curve" smooth="yes"/>
      <point x="262" y="-183"/>
      <point x="235" y="-171"/>
      <point x="219" y="-164" type="curve"/>
      <point x="202" y="-197" type="line"/>
      <point x="226" y="-208"/>
      <point x="256" y="-217"/>
    </contour>
  </outline>
</glyph>
<glyph name="Uogonek" format="2">
  <advance width="757"/>
  <unicode hex="0172"/>
  <outline>
    <contour>
      <point x="501" y="-204" type="curve" smooth="yes"/>
      <point x="541" y="-204"/>
      <point x="569" y="-190"/>
      <point x="589" y="-175" type="curve"/>
      <point x="570" y="-141" type="line"/>
      <point x="554" y="-151"/>
      <point x="543" y="-156"/>
      <point x="523" y="-156" type="curve" smooth="yes"/>
      <point x="473" y="-156"/>
      <point x="456" y="-126"/>
      <point x="456" y="-89" type="curve" smooth="yes"/>
      <point x="456" y="-44"/>
      <point x="480" y="-12"/>
      <point x="514" y="11" type="curve"/>
      <point x="463" y="0" type="line"/>
      <point x="428" y="-13"/>
      <point x="396" y="-56"/>
      <point x="396" y="-108" type="curve" smooth="yes"/>
      <point x="396" y="-167"/>
      <point x="436" y="-204"/>
    </contour>
    <component base="U"/>
  </outline>
</glyph>
<glyph name="longs" format="2">
  <advance width="292"/>
  <unicode hex="017F"/>
  <anchor x="185" y="813" name="top"/>
  <outline>
    <contour>
      <point x="14" y="0" type="line"/>
      <point x="264" y="0" type="line"/>
      <point x="264" y="40" type="line"/>
      <point x="236" y="40" type="line" smooth="yes"/>
      <point x="182" y="40"/>
      <point x="174" y="53"/>
      <point x="174" y="98" type="curve" smooth="yes"/>
      <point x="174" y="468" type="line" smooth="yes"/>
      <point x="174" y="579"/>
      <point x="182" y="662"/>
      <point x="209" y="662" type="curve" smooth="yes"/>
      <point x="226" y="662"/>
      <point x="238" y="627"/>
      <point x="271" y="627" type="curve" smooth="yes"/>
      <point x="299" y="627"/>
      <point x="326" y="651"/>
      <point x="326" y="680" type="curve" smooth="yes"/>
      <point x="326" y="710"/>
      <point x="298" y="732"/>
      <point x="259" y="732" type="curve" smooth="yes"/>
      <point x="194" y="732"/>
      <point x="91" y="666"/>
      <point x="91" y="468" type="curve"/>
      <point x="14" y="468" type="line"/>
      <point x="14" y="425" type="line"/>
      <point x="91" y="425" type="line"/>
      <point x="91" y="95" type="line" smooth="yes"/>
      <point x="91" y="56"/>
      <point x="80" y="40"/>
      <point x="26" y="40" type="curve" smooth="yes"/>
      <point x="14" y="40" type="line"/>
    </contour>
  </outline>
</glyph>
<glyph name="bstroke" format="2">
  <advance width="522"/>
  <unicode hex="0180"/>
  <outline>
    <contour>
      <point x="23" y="525" type="line"/>
      <point x="283" y="525" type="line"/>
      <point x="283" y="565" type="line"/>
      <point x="23" y="565" type="line"/>
    </contour>
    <component base="b"/>
  </outline>
</glyph>
<glyph name="florin" format="2">
  <advance width="535"/>
  <unicode hex="0192"/>
  <outline>
    <contour>
      <point x="32" y="-145" type="curve" smooth="yes"/>
      <point x="67" y="-145"/>
      <point x="122" y="-131"/>
      <point x="179" y="-67" type="curve" smooth="yes"/>
      <point x="218" y="-23"/>
      <point x="242" y="26"/>
      <point x="265" y="155" type="curve" smooth="yes"/>
      <point x="314" y="428" type="line"/>
      <point x="417" y="428" type="line"/>
      <point x="424" y="468" type="line"/>
      <point x="320" y="468" type="line"/>
      <point x="336" y="554"/>
      <point x="357" y="723"/>
      <point x="398" y="723" type="curve" smooth="yes"/>
      <point x="416" y="723"/>
      <point x="426" y="689"/>
      <point x="460" y="689" type="curve" smooth="yes"/>
      <point x="488" y="689"/>
      <point x="522" y="712"/>
      <point x="522" y="750" type="curve" smooth="yes"/>
      <point x="522" y="776"/>
      <point x="506" y="794"/>
      <point x="467" y="794" type="curve" smooth="yes"/>
      <point x="402" y="794"/>
      <point x="341" y="746"/>
      <point x="306" y="698" type="curve" smooth="yes"/>
      <point x="268" y="646"/>
      <point x="245" y="583"/>
      <point x="230" y="468" type="curve"/>
      <point x="161" y="468" type="line"/>
      <point x="154" y="428" type="line"/>
      <point x="223" y="428" type="line"/>
      <point x="165" y="99" type="line" smooth="yes"/>
      <point x="153" y="29"/>
      <point x="135" y="-75"/>
      <point x="101" y="-75" type="curve" smooth="yes"/>
      <point x="82" y="-75"/>
      <point x="75" y="-40"/>
      <point x="39" y="-40" type="curve" smooth="yes"/>
      <point x="6" y="-40"/>
      <point x="-23" y="-69"/>
      <point x="-23" y="-102" type="curve" smooth="yes"/>
      <point x="-23" y="-126"/>
      <point x="-8" y="-145"/>
    </contour>
  </outline>
</glyph>
<glyph name="Ohorn" format="2">
  <advance width="707"/>
  <unicode hex="01A0"/>
  <outline>
    <contour>
      <point x="589" y="565" type="line"/>
      <point x="632" y="609"/>
      <point x="707" y="688"/>
      <point x="707" y="765" type="curve" smooth="yes"/>
      <point x="707" y="818"/>
      <point x="671" y="844"/>
      <point x="637" y="844" type="curve" smooth="yes"/>
      <point x="606" y="844"/>
      <point x="575" y="823"/>
      <point x="575" y="781" type="curve" smooth="yes"/>
      <point x="575" y="725"/>
      <point x="631" y="727"/>
      <point x="631" y="697" type="curve" smooth="yes"/>
      <point x="631" y="671"/>
      <point x="591" y="623"/>
      <point x="563" y="592" type="curve"/>
    </contour>
    <component base="O"/>
  </outline>
</glyph>
<glyph name="Uhorn" format="2">
  <advance width="878"/>
  <unicode hex="01AF"/>
  <outline>
    <contour>
      <point x="623" y="475" type="line"/>
      <point x="789" y="475"/>
      <point x="881" y="688"/>
      <point x="881" y="767" type="curve" smooth="yes"/>
      <point x="881" y="817"/>
      <point x="845" y="844"/>
      <point x="811" y="844" type="curve" smooth="yes"/>
      <point x="781" y="844"/>
      <point x="749" y="823"/>
      <point x="749" y="780" type="curve" smooth="yes"/>
      <point x="749" y="723"/>
      <point x="805" y="732"/>
      <point x="805" y="693" type="curve" smooth="yes"/>
      <point x="805" y="670"/>
      <point x="786" y="554"/>
      <point x="623" y="517" type="curve"/>
    </contour>
    <component base="U"/>
  </outline>
</glyph>
<glyph name="uhorn" format="2">
  <advance width="605"/>
  <unicode hex="01B0"/>
  <outline>
    <contour>
      <point x="444" y="272" type="line"/>
      <point x="521" y="361"/>
      <point x="616" y="457"/>
      <point x="616" y="542" type="curve" smooth="yes"/>
      <point x="616" y="593"/>
      <point x="581" y="619"/>
      <point x="547" y="619" type="curve" smooth="yes"/>
      <point x="516" y="619"/>
      <point x="484" y="598"/>
      <point x="484" y="556" type="curve" smooth="yes"/>
      <point x="484" y="500"/>
      <point x="541" y="500"/>
      <point x="541" y="473" type="curve" smooth="yes"/>
      <point x="541" y="446"/>
      <point x="480" y="376"/>
      <point x="444" y="336" type="curve"/>
    </contour>
    <component base="u"/>
  </outline>
</glyph>
<glyph name="Ecedilla" format="2">
  <advance width="670"/>
  <unicode hex="0228"/>
  <outline>
    <contour>
      <point x="296" y="-217" type="curve" smooth="yes"/>
      <point x="366" y="-217"/>
      <point x="419" y="-186"/>
      <point x="419" y="-132" type="curve" smooth="yes"/>
      <point x="419" y="-92"/>
      <point x="389" y="-63"/>
      <point x="349" y="-63" type="curve" smooth="yes"/>
      <point x="333" y="-63"/>
      <point x="317" y="-68"/>
      <point x="317" y="-68" type="curve"/>
      <point x="341" y="3" type="line"/>
      <point x="311" y="3" type="line"/>
      <point x="271" y="-93" type="line"/>
      <point x="282" y="-99" type="line"/>
      <point x="289" y="-98"/>
      <point x="301" y="-96"/>
      <point x="311" y="-96" type="curve" smooth="yes"/>
      <point x="343" y="-96"/>
      <point x="351" y="-115"/>
      <point x="351" y="-133" type="curve" smooth="yes"/>
      <point x="351" y="-166"/>
      <point x="323" y="-183"/>
      <point x="291" y="-183" type="curve" smooth="yes"/>
      <point x="264" y="-183"/>
      <point x="237" y="-171"/>
      <point x="222" y="-164" type="curve"/>
      <point x="204" y="-197" type="line"/>
      <point x="228" y="-208"/>
      <point x="258" y="-217"/>
    </contour>
    <component base="E"/>
  </outline>
</glyph>
<glyph name="jdotless" format="2">
  <advance width="250"/>
  <unicode hex="0237"/>
  <anchor x="141" y="558" name="top"/>
  <anchor x="141" y="558" name="top_dot"/>
  <outline>
    <contour>
      <point x="33" y="-188" type="curve" smooth="yes"/>
      <point x="78" y="-188"/>
      <point x="185" y="-154"/>
      <point x="185" y="22" type="curve" smooth="yes"/>
      <point x="185" y="490" type="line"/>
      <point x="34" y="442" type="line"/>
      <point x="34" y="412" type="line"/>
      <point x="92" y="403"/>
      <point x="102" y="399"/>
      <point x="102" y="337" type="curve" smooth="yes"/>
      <point x="102" y="-28" type="line" smooth="yes"/>
      <point x="102" y="-94"/>
      <point x="91" y="-123"/>
      <point x="80" y="-123" type="curve" smooth="yes"/>
      <point x="65" y="-123"/>
      <point x="61" y="-76"/>
      <point x="17" y="-76" type="curve" smooth="yes"/>
      <point x="-12" y="-76"/>
      <point x="-37" y="-97"/>
      <point x="-37" y="-129" type="curve" smooth="yes"/>
      <point x="-37" y="-165"/>
      <point x="-4" y="-188"/>
    </contour>
  </outline>
</glyph>
<glyph name="Bstroke" format="2">
  <advance width="663"/>
  <unicode hex="0243"/>
  <outline>
    <contour>
      <point x="31" y="200" type="line"/>
      <point x="413" y="200" type="line"/>
      <point x="413" y="242" type="line"/>
      <point x="31" y="242" type="line"/>
    </contour>
    <component base="B"/>
  </outline>
</glyph>
<glyph name="schwa" format="2">
  <advance width="510"/>
  <unicode hex="0259"/>
  <anchor x="244" y="-17" name="attachcedilla"/>
  <anchor x="270" y="0" name="dotbelow"/>
  <anchor x="329" y="0" name="ogonek"/>
  <anchor x="270" y="558" name="top"/>
  <outline>
    <contour>
      <point x="244" y="-14" type="curve" smooth="yes"/>
      <point x="376" y="-14"/>
      <point x="475" y="112"/>
      <point x="475" y="252" type="curve" smooth="yes"/>
      <point x="475" y="394"/>
      <point x="373" y="482"/>
      <point x="250" y="482" type="curve" smooth="yes"/>
      <point x="155" y="482"/>
      <point x="85" y="430"/>
      <point x="41" y="368" type="curve"/>
      <point x="68" y="346" type="line"/>
      <point x="112" y="396"/>
      <point x="165" y="425"/>
      <point x="225" y="425" type="curve" smooth="yes"/>
      <point x="268" y="425"/>
      <point x="306" y="409"/>
      <point x="336" y="375" type="curve" smooth="yes"/>
      <point x="366" y="341"/>
      <point x="383" y="293"/>
      <point x="383" y="211" type="curve"/>
      <point x="46" y="211" type="line"/>
      <point x="54" y="95"/>
      <point x="121" y="-14"/>
    </contour>
    <contour>
      <point x="250" y="23" type="curve" smooth="yes"/>
      <point x="197" y="23"/>
      <point x="148" y="58"/>
      <point x="141" y="168" type="curve"/>
      <point x="376" y="168" type="line"/>
      <point x="360" y="67"/>
      <point x="309" y="23"/>
    </contour>
  </outline>
</glyph>
